<svg width="110.69526072363215" height="65.50000600000067" xmlns="http://www.w3.org/2000/svg">
 <style type="text/css">.st0{fill:#FAFAFA;}
	.st1{fill:#010202;}
	.st2{fill:#FFFFFF;}</style>

 <g>
  <title>background</title>
  <rect fill="none" id="canvas_background" height="402" width="582" y="-1" x="-1"/>
 </g>
 <g>
  <title>Layer 1</title>
  <g id="svg_447">
   <g id="XMLID_4_">
    <g id="svg_448">
     <path id="svg_449" d="m79.599994,0.500006l0,54l-79.6,0l0,-19.1c0,-3.5 2.5,-6.4 5.9,-7l30.9,-5.3l9.7,-23.1l33.1,0.5zm-3.8,27.5l0,-24.7l-9,0l0.7,24.7l8.3,0zm-12.1,0l0,-24.7l-15.7,0l-10,24.7l25.7,0z"/>
    </g>
   </g>
   <g id="svg_450">
    <circle id="svg_451" r="7.7" cy="57.800006" cx="17.199994"/>
   </g>
   <g id="svg_452">
    <circle id="svg_453" r="7.7" cy="57.800006" cx="66.699994"/>
   </g>
   <g id="svg_454">
    <rect id="svg_455" height="21.6" width="6.7" y="32.900006" x="76.699994"/>
   </g>
   <g id="svg_456">
    <rect id="svg_457" height="5" width="34.9" transform="matrix(0.9518,-0.3066,0.3066,0.9518,-133.4931,128.0732) " y="-15.862142" x="225.153253"/>
   </g>
  </g>
 </g>
</svg>