<svg width="93.0999984741211" height="87.19999694824219" xmlns="http://www.w3.org/2000/svg">
 <style type="text/css">.st0{fill:#FFFFFF;}</style>

 <g>
  <title>background</title>
  <rect fill="none" id="canvas_background" height="843.9" width="597.3" y="-1" x="-1"/>
 </g>
 <g>
  <title>Layer 1</title>
  <g id="svg_42">
   <g id="XMLID_5_">
    <g id="svg_43">
     <path id="svg_44" d="m69.900001,62.599997l0,-58.1l-24.4,0l-6.3,37l3.6,21.2l27.1,0l0,-0.1zm12.2,-28.1l0,-30l-9.6,0l0,30.2l9.6,-0.2zm2.8,-33.1l0,33.3l8.2,24.5l0,17.6l-60.2,0l0,-19.8l9.2,-55.5l42.8,0l0,-0.1z"/>
    </g>
   </g>
   <g id="svg_45">
    <circle id="svg_46" r="7.8" cy="79.199997" cx="45.100001"/>
   </g>
   <g id="svg_47">
    <circle id="svg_48" r="7.8" cy="79.399997" cx="81.300001"/>
   </g>
   <g id="svg_49">
    <polygon id="svg_50" points="31.500003814697266,83.69999694824219 0,83.69999694824219 0,78.69999694824219 26.500003814697266,78.69999694824219 26.500003814697266,0 31.500003814697266,0 "/>
   </g>
   <g id="svg_51">
    <rect id="svg_52" height="5" width="8.4" y="69.099997" x="29.000001"/>
   </g>
  </g>
  <g id="svg_2"/>
 </g>
</svg>