<?xml version="1.0" encoding="utf-8"?>
<!-- Generator: Adobe Illustrator 22.0.1, SVG Export Plug-In . SVG Version: 6.00 Build 0)  -->
<svg version="1.1" id="Warstwa_1" xmlns="http://www.w3.org/2000/svg" xmlns:xlink="http://www.w3.org/1999/xlink" x="0px" y="0px"
	 viewBox="0 0 595.3 841.9" style="enable-background:new 0 0 595.3 841.9;" xml:space="preserve">
<style type="text/css">
	.st0{fill:#FAFAFA;}
	.st1{fill:#010202;}
	.st2{fill:#FFFFFF;}
</style>
<g xmlns="http://www.w3.org/2000/svg" id="svg_1">
   <g id="svg_2">
    <g id="svg_3">
     <rect id="svg_4" height="7.4" width="81.4" y="58.599998" x="14.300012"/>
    </g>
   </g>
   <g id="svg_5">
    <g id="svg_6">
     <circle id="svg_7" r="6.2" cy="68.599998" cx="26.200012"/>
    </g>
   </g>
   <g id="svg_8">
    <g id="svg_9">
     <circle id="svg_10" r="6.2" cy="68.599998" cx="86.200012"/>
    </g>
   </g>
   <g id="XMLID_1_">
    <g id="svg_11">
     <g id="svg_12">
      <path id="svg_13" d="m100.000012,40.699998l0,20l-36.5,0l0,-33.9l19.9,0l16.6,13.9zm-27.6,1.3l21.7,0l-12.3,-10.9l-9.4,0l0,10.9z"/>
     </g>
    </g>
   </g>
   <g id="svg_14">
    <g id="svg_15">
     <rect id="svg_16" height="27.9" width="5.2" transform="matrix(0.5855,-0.8107,0.8107,0.5855,140.1595,448.2067) " y="-331.065219" x="254.487882"/>
    </g>
   </g>
   <g id="svg_17">
    <g id="svg_18">
     <rect id="svg_19" height="5.2" width="95" transform="matrix(0.894,-0.448,0.448,0.894,25.6609,241.7633) " y="-178.137524" x="66.643426"/>
    </g>
   </g>
   <g id="svg_20">
    <g id="svg_21">
     <polygon id="svg_22" points="5.70001220703125,54 0,42.5 85.70001220703125,0 91.4000244140625,11.39999771118164 88.70001220703125,12.799999237060547 84.4000244140625,4 4,43.900001525878906 8.300018310546875,52.69999694824219 "/>
    </g>
   </g>
  </g>
</svg>
