<?xml version="1.0" encoding="utf-8"?>
<!-- Generator: Adobe Illustrator 22.0.1, SVG Export Plug-In . SVG Version: 6.00 Build 0)  -->
<svg version="1.1" id="Warstwa_1" xmlns="http://www.w3.org/2000/svg" xmlns:xlink="http://www.w3.org/1999/xlink" x="0px" y="0px"
	 viewBox="0 0 595.3 841.9" style="enable-background:new 0 0 595.3 841.9;" xml:space="preserve">
<style type="text/css">
	.st0{fill:#FAFAFA;}
	.st1{fill:#010202;}
	.st2{fill:#FFFFFF;}
</style>
<g xmlns="http://www.w3.org/2000/svg" id="svg_580">
   <g id="svg_581">
    <g id="svg_582">
     <rect id="svg_583" height="7.7" width="72.2" y="53.800006" x="0"/>
    </g>
   </g>
   <g id="svg_584">
    <g id="svg_585">
     <circle id="svg_586" r="5.5" cy="63.200006" cx="10.6"/>
    </g>
   </g>
   <g id="svg_587">
    <g id="svg_588">
     <circle id="svg_589" r="5.5" cy="63.200006" cx="63.8"/>
    </g>
   </g>
   <g id="svg_590">
    <path id="svg_591" d="m59.1,57.700006l-43.9,0c-3.1,0 -5.7,-2.6 -5.7,-5.7l0,-46.3c0,-3.1 2.6,-5.7 5.7,-5.7l43.9,0c3.1,0 5.7,2.6 5.7,5.7l0,46.3c0,3.1 -2.6,5.7 -5.7,5.7z"/>
   </g>
   <g id="svg_592">
    <g id="svg_593">
     <path id="svg_594" d="m28.1,47.700006c-0.1,0 -0.2,-0.1 -0.3,-0.1c-2.3,-0.6 -3.7,-2.4 -3.7,-4.8c0,-7.4 0,-14.7 0,-22.1c0,-0.3 0.1,-0.7 0.2,-1c0.1,0 0.1,-0.1 0.2,-0.1c-0.6,-0.5 -1.2,-1.1 -1.8,-1.6c-0.6,-0.6 -0.6,-1 0,-1.5c1.4,-1.4 2.8,-2.8 4.2,-4.2c0.6,-0.6 1,-0.7 1.5,0c0.9,1.3 2.1,1.5 3.6,1.4c1.1,-0.1 2,-0.4 2.8,-1.1c0.9,-0.8 1.7,-1.6 2.6,-2.3c0.8,-0.6 1.7,-1 2.6,-1.5c2.5,0 5.1,0 7.6,0c0.1,0 0.2,0.1 0.3,0.1c2.3,0.7 3.8,2.4 3.8,4.8c0,9.7 0,19.4 0,29.1c0,1.7 -0.7,3.2 -2.2,4.1c-0.6,0.4 -1.2,0.6 -1.9,0.8c-6.5,0 -13,0 -19.5,0zm22,-19.5c0,-4.8 0,-9.6 0,-14.5c0,-2 -1.3,-3.4 -3.3,-3.4c-1.9,0 -3.9,0 -5.8,0c-0.9,0 -1.6,0.3 -2.3,0.9c-0.8,0.7 -1.7,1.4 -2.4,2.2c-1.3,1.3 -2.9,1.9 -4.7,1.8c-0.3,0 -0.7,0.2 -1,0.4c-1.5,1.5 -2.9,3 -4.3,4.5c-0.4,0.4 -0.5,0.7 -0.5,1.3c0,7 0,14 0,21c0,2.3 1.3,3.6 3.6,3.6c5.7,0 11.4,0 17.1,0c2.3,0 3.6,-1.3 3.6,-3.6c0,-4.7 0,-9.5 0,-14.2zm-25,-10.1c1.2,-1.2 2.3,-2.3 3.3,-3.3c-0.2,-0.3 -0.5,-0.7 -0.7,-0.9c-1.2,1.2 -2.3,2.3 -3.4,3.4c0.3,0.2 0.7,0.6 0.8,0.8z" class="st2"/>
    </g>
    <g id="svg_595">
     <path id="svg_596" d="m38.9,32.400006c0.4,0.3 0.7,0.5 1,0.8c2,1.9 3.9,3.9 5.9,5.9c0.4,0.4 0.5,0.8 0.1,1.3c-0.4,0.4 -0.9,0.3 -1.3,-0.1c-0.1,-0.1 -0.2,-0.2 -0.3,-0.3c-1.9,-1.9 -3.8,-3.8 -5.8,-5.8c-0.2,-0.2 -0.4,-0.4 -0.6,-0.7c-0.3,0.3 -0.5,0.4 -0.7,0.6c-2,2 -4,4 -5.9,5.9c-0.2,0.2 -0.3,0.4 -0.5,0.4c-0.3,0 -0.8,0.1 -1,-0.1c-0.2,-0.2 -0.2,-0.6 -0.1,-0.9c0,-0.2 0.3,-0.4 0.5,-0.6c2,-2 3.9,-3.9 5.9,-5.9c0.2,-0.2 0.5,-0.3 0.8,-0.5c-2.3,-2.3 -4.4,-4.4 -6.6,-6.6c-0.2,-0.2 -0.3,-0.3 -0.5,-0.5c-0.3,-0.4 -0.4,-0.9 0,-1.1c0.3,-0.2 0.8,-0.1 1.1,0c0.3,0.1 0.5,0.5 0.8,0.7c2,2 4.1,4.1 6.2,6.2c0.3,-0.4 0.6,-0.8 0.9,-1.1c1.8,-1.8 3.7,-3.7 5.5,-5.5c0.2,-0.2 0.3,-0.4 0.5,-0.5c0.3,-0.1 0.9,-0.1 1,0.1c0.2,0.2 0.1,0.7 0.1,1.1c0,0.2 -0.3,0.3 -0.5,0.5c-2.1,2.2 -4.2,4.4 -6.5,6.7z" class="st2"/>
    </g>
    <g id="svg_597">
     <path id="svg_598" d="m44.4,13.600006c-0.8,0 -1.6,0 -2.4,0c-0.5,0 -0.9,-0.3 -0.9,-0.8c0,-0.5 0.4,-0.8 0.9,-0.8c1.6,0 3.1,0 4.7,0c0.5,0 0.9,0.3 0.9,0.8c0,0.5 -0.4,0.8 -0.9,0.8c-0.8,0 -1.5,0 -2.3,0z" class="st2"/>
    </g>
   </g>
  </g>
</svg>
