<?xml version="1.0" encoding="utf-8"?>
<!-- Generator: Adobe Illustrator 22.0.1, SVG Export Plug-In . SVG Version: 6.00 Build 0)  -->
<svg version="1.1" id="Warstwa_1" xmlns="http://www.w3.org/2000/svg" xmlns:xlink="http://www.w3.org/1999/xlink" x="0px" y="0px"
	 viewBox="0 0 595.3 841.9" style="enable-background:new 0 0 595.3 841.9;" xml:space="preserve">
<style type="text/css">
	.st0{fill:#FAFAFA;}
	.st1{fill:#010202;}
	.st2{fill:#FFFFFF;}
</style>
<g xmlns="http://www.w3.org/2000/svg" id="svg_176">
   <g id="svg_177">
    <g id="svg_178">
     <polygon id="svg_179" points="0,57.5 0,71.9000244140625 16.099998474121094,57.5 "/>
    </g>
   </g>
   <g id="svg_180">
    <g id="svg_181">
     <polyline id="svg_182" points="16.099998474121094,57.5 32.099998474121094,43 16.099998474121094,43 "/>
    </g>
   </g>
   <g id="svg_183">
    <g id="svg_184">
     <polyline id="svg_185" points="32.099998474121094,43 48.099998474121094,28.5 32.099998474121094,28.5 "/>
    </g>
   </g>
   <g id="svg_186">
    <g id="svg_187">
     <polyline id="svg_188" points="48.099998474121094,14.10003662109375 64.0999984741211,14.10003662109375 48.099998474121094,28.5 "/>
    </g>
   </g>
   <g id="svg_189">
    <g id="svg_190">
     <rect id="svg_191" height="2.4" width="107" transform="matrix(0.7411,-0.6714,0.6714,0.7411,-379.9915,228.9716) " y="138.773068" x="387.087978"/>
    </g>
   </g>
   <g id="svg_192">
    <g id="svg_193">
     <polyline id="svg_194" points="63.70000457763672,14.4000244140625 79.70000457763672,0 63.70000457763672,0 "/>
    </g>
   </g>
   <g id="svg_195">
    <g id="svg_196">
     <polygon id="svg_197" points="0.09999847412109375,74.4000244140625 0,71.20001220703125 78.0999984741211,70.4000244140625 78.0999984741211,0 81.29999542236328,0 81.29999542236328,73.5 "/>
    </g>
   </g>
   <g id="svg_198">
    <g id="svg_199">
     <rect id="svg_200" height="45.6" width="3.2" y="27.400012" x="48.699998"/>
    </g>
   </g>
   <g id="svg_201">
    <g id="svg_202">
     <ellipse id="svg_203" ry="5.8" rx="5.7" cy="77.800012" cx="21.699998"/>
    </g>
   </g>
   <g id="svg_204">
    <g id="svg_205">
     <ellipse id="svg_206" ry="5.8" rx="5.7" cy="77.800012" cx="66.199998"/>
    </g>
   </g>
  </g>
</svg>
