<?xml version="1.0" encoding="utf-8"?>
<!-- Generator: Adobe Illustrator 22.0.1, SVG Export Plug-In . SVG Version: 6.00 Build 0)  -->
<svg version="1.1" id="Warstwa_1" xmlns="http://www.w3.org/2000/svg" xmlns:xlink="http://www.w3.org/1999/xlink" x="0px" y="0px"
	 viewBox="0 0 595.3 841.9" style="enable-background:new 0 0 595.3 841.9;" xml:space="preserve">
<style type="text/css">
	.st0{fill:#FAFAFA;}
	.st1{fill:#010202;}
	.st2{fill:#FFFFFF;}
</style>
<g xmlns="http://www.w3.org/2000/svg" id="svg_411">
   <g id="svg_412">
    <g id="svg_413">
     <rect id="svg_414" height="7.7" width="72.2" y="53.899988" x="-0.000006"/>
    </g>
   </g>
   <g id="svg_415">
    <g id="svg_416">
     <circle id="svg_417" r="5.5" cy="63.299988" cx="10.599994"/>
    </g>
   </g>
   <g id="svg_418">
    <g id="svg_419">
     <circle id="svg_420" r="5.5" cy="63.299988" cx="63.799994"/>
    </g>
   </g>
   <g id="svg_421">
    <path id="svg_422" d="m58.099994,57.699988l-43.9,0c-3.1,0 -5.7,-2.6 -5.7,-5.7l0,-46.3c0,-3.1 2.6,-5.7 5.7,-5.7l43.9,0c3.1,0 5.7,2.6 5.7,5.7l0,46.3c0,3.2 -2.5,5.7 -5.7,5.7z"/>
   </g>
   <g id="svg_423">
    <g id="svg_424">
     <path id="svg_425" d="m34.299994,38.799988c-0.5,-0.1 -1,-0.1 -1.5,-0.2c-2.6,-0.6 -4.5,-3 -4.6,-5.7c0,-1.8 0,-3.5 0,-5.3c0,-0.9 0.6,-1.5 1.5,-1.5c0.2,0 0.4,0 0.7,0c0,-0.2 0,-0.3 0,-0.5c0,-1.6 0,-3.2 0,-4.8c0,-1 0.8,-1.7 1.7,-1.5c0.7,0.1 1.1,0.7 1.1,1.5c0,1.6 0,3.1 0,4.7c0,0.2 0,0.3 0,0.5c1.9,0 3.7,0 5.5,0c0,-0.2 0,-0.3 0,-0.4c0,-1.6 0,-3.2 0,-4.8c0,-1 0.7,-1.6 1.7,-1.5c0.7,0.1 1.2,0.7 1.2,1.4c0,1.6 0,3.3 0,4.9c0,0.1 0,0.2 0,0.4c0.2,0 0.5,0 0.7,0c0.9,0 1.5,0.6 1.5,1.5c0,2 0.1,3.9 -0.1,5.9c-0.2,2.8 -2.7,5.2 -5.4,5.3c-0.2,0 -0.4,0 -0.5,0c0,1.1 -0.1,2.2 0,3.2c0.1,0.9 0.6,1.3 1.6,1.3c1.7,-0.2 3.3,-0.7 4.7,-1.7c4.2,-3 6.4,-7 6.5,-12.2c0.1,-6.8 -4.6,-12.7 -11.1,-14.4c-8.2,-2.1 -16.5,3.1 -18.2,11.4c-1.3,6.2 1.5,12.5 7,15.8c0.5,0.3 1,0.6 1.5,1c0.3,0.2 0.6,0.6 0.8,0.9c0.6,1 0,2.1 -1.1,2.3c-0.4,0 -0.9,0 -1.3,-0.2c-5.5,-2.6 -9.1,-6.9 -10.4,-12.9c-2,-9 3.2,-18.2 12,-21.2c7.6,-2.6 15.8,-0.1 20.6,6.3c2.6,3.4 3.9,7.3 3.7,11.6c-0.3,5.4 -2.4,10 -6.6,13.5c-2.5,2.1 -5.4,3.2 -8.6,3.3c-0.9,0 -1.7,0 -2.6,-0.1c-0.7,0 -1.2,-0.5 -1.6,-1.1c-0.4,-0.7 -0.6,-1.6 -0.6,-2.4c0,-1.3 0,-2.6 0,-3.9c0.2,-0.1 0.2,-0.2 0.2,-0.4z" class="st2"/>
    </g>
   </g>
  </g>
</svg>
