<svg width="115.4000015258789" height="76.10000610351562" xmlns="http://www.w3.org/2000/svg">
 <style type="text/css">.st0{fill:#FAFAFA;}
	.st1{fill:#010202;}
	.st2{fill:#FFFFFF;}</style>

 <g>
  <title>background</title>
  <rect fill="none" id="canvas_background" height="403" width="583" y="-1" x="-1"/>
 </g>
 <g>
  <title>Layer 1</title>
  <g id="svg_613">
   <g id="svg_614">
    <rect x="0" y="54.3" width="109.5" height="10" id="svg_615"/>
   </g>
   <g id="svg_616">
    <circle cx="16" cy="67.7" r="8.4" id="svg_617"/>
   </g>
   <g id="svg_618">
    <circle cx="96.8" cy="67.7" r="8.4" id="svg_619"/>
   </g>
   <g id="XMLID_3_">
    <g id="svg_620">
     <path d="m115.4,30.2l0,26.9l-49.2,0l0,-45.6l26.8,0l22.4,18.7zm-37.3,1.8l29.2,0l-16.5,-14.7l-12.7,0l0,14.7z" id="svg_621"/>
    </g>
   </g>
   <g id="svg_622">
    <rect x="10" y="0" width="43.8" height="58.1" id="svg_623"/>
   </g>
   <g id="svg_624">
    <rect x="0.7" y="21.4" width="18.7" height="20.8" id="svg_625"/>
   </g>
   <g id="svg_626">
    <path class="st2" d="m17.7,26l1.7,6.5c0.4,1.4 0.7,2.7 0.9,4.1l0.1,0c0.3,-1.3 0.7,-2.7 1.1,-4l2.1,-6.5l1.9,0l2,6.4c0.5,1.5 0.8,2.9 1.1,4.2l0.1,0c0.2,-1.3 0.6,-2.6 1,-4.1l1.8,-6.4l2.4,0l-4.1,12.7l-2.1,0l-1.9,-6.1c-0.4,-1.4 -0.8,-2.7 -1.1,-4.2l-0.1,0c-0.3,1.5 -0.7,2.8 -1.2,4.2l-2.1,6.1l-2.1,0l-3.8,-12.7l2.3,0l0,-0.2z" id="svg_627"/>
    <path class="st2" d="m45,38.3c-0.6,0.3 -1.9,0.7 -3.7,0.7c-3.8,0 -6.3,-2.6 -6.3,-6.5c0,-3.9 2.7,-6.8 6.8,-6.8c1.4,0 2.6,0.3 3.2,0.7l-0.5,1.8c-0.6,-0.3 -1.4,-0.6 -2.7,-0.6c-2.9,0 -4.5,2.2 -4.5,4.8c0,2.9 1.9,4.8 4.4,4.8c1.3,0 2.2,-0.3 2.8,-0.6l0.5,1.7z" id="svg_628"/>
   </g>
  </g>
 </g>
</svg>