<?xml version="1.0" encoding="utf-8"?>
<!-- Generator: Adobe Illustrator 22.0.1, SVG Export Plug-In . SVG Version: 6.00 Build 0)  -->
<svg version="1.1" id="Warstwa_1" xmlns="http://www.w3.org/2000/svg" xmlns:xlink="http://www.w3.org/1999/xlink" x="0px" y="0px"
	 viewBox="0 0 595.3 841.9" style="enable-background:new 0 0 595.3 841.9;" xml:space="preserve">
<style type="text/css">
	.st0{fill:#FAFAFA;}
	.st1{fill:#010202;}
	.st2{fill:#FFFFFF;}
</style>
<g xmlns="http://www.w3.org/2000/svg" id="svg_613">
   <g id="svg_614">
    <rect id="svg_615" height="10" width="109.5" y="54.299988" x="0.000002"/>
   </g>
   <g id="svg_616">
    <circle id="svg_617" r="8.4" cy="67.699988" cx="16.000002"/>
   </g>
   <g id="svg_618">
    <circle id="svg_619" r="8.4" cy="67.699988" cx="96.800002"/>
   </g>
   <g id="XMLID_3_">
    <g id="svg_620">
     <path id="svg_621" d="m115.400002,30.199988l0,26.9l-49.2,0l0,-45.6l26.8,0l22.4,18.7zm-37.3,1.8l29.2,0l-16.5,-14.7l-12.7,0l0,14.7z"/>
    </g>
   </g>
   <g id="svg_622">
    <rect id="svg_623" height="58.1" width="43.8" y="-0.000012" x="10.000002"/>
   </g>
   <g id="svg_624">
    <rect id="svg_625" height="20.8" width="18.7" y="21.399988" x="0.700002"/>
   </g>
   <g id="svg_626">
    <path id="svg_627" d="m17.700002,25.999988l1.7,6.5c0.4,1.4 0.7,2.7 0.9,4.1l0.1,0c0.3,-1.3 0.7,-2.7 1.1,-4l2.1,-6.5l1.9,0l2,6.4c0.5,1.5 0.8,2.9 1.1,4.2l0.1,0c0.2,-1.3 0.6,-2.6 1,-4.1l1.8,-6.4l2.4,0l-4.1,12.7l-2.1,0l-1.9,-6.1c-0.4,-1.4 -0.8,-2.7 -1.1,-4.2l-0.1,0c-0.3,1.5 -0.7,2.8 -1.2,4.2l-2.1,6.1l-2.1,0l-3.8,-12.7l2.3,0l0,-0.2z" class="st2"/>
    <path id="svg_628" d="m45.000002,38.299988c-0.6,0.3 -1.9,0.7 -3.7,0.7c-3.8,0 -6.3,-2.6 -6.3,-6.5c0,-3.9 2.7,-6.8 6.8,-6.8c1.4,0 2.6,0.3 3.2,0.7l-0.5,1.8c-0.6,-0.3 -1.4,-0.6 -2.7,-0.6c-2.9,0 -4.5,2.2 -4.5,4.8c0,2.9 1.9,4.8 4.4,4.8c1.3,0 2.2,-0.3 2.8,-0.6l0.5,1.7z" class="st2"/>
   </g>
  </g>
</svg>
