<?xml version="1.0" encoding="utf-8"?>
<!-- Generator: Adobe Illustrator 22.0.1, SVG Export Plug-In . SVG Version: 6.00 Build 0)  -->
<svg version="1.1" id="Warstwa_1" xmlns="http://www.w3.org/2000/svg" xmlns:xlink="http://www.w3.org/1999/xlink" x="0px" y="0px"
	 viewBox="0 0 595.3 841.9" style="enable-background:new 0 0 595.3 841.9;" xml:space="preserve">
<style type="text/css">
	.st0{fill:#FAFAFA;}
	.st1{fill:#010202;}
	.st2{fill:#FFFFFF;}
</style>
<g xmlns="http://www.w3.org/2000/svg" id="svg_426">
   <g id="svg_427">
    <rect id="svg_428" height="10" width="93.7" y="77.599994" x="20.82196"/>
   </g>
   <g id="svg_429">
    <circle id="svg_430" r="7.2" cy="89.799994" cx="34.42196"/>
   </g>
   <g id="svg_431">
    <circle id="svg_432" r="7.2" cy="89.799994" cx="103.62196"/>
   </g>
   <g id="svg_433">
    <rect id="svg_434" height="42.3" width="5" transform="matrix(0.7384,-0.6744,0.6744,0.7384,-108.0999,403.7308) " y="-187.446983" x="317.597678"/>
   </g>
   <g id="svg_435">
    <rect id="svg_436" height="37.6" width="48.2" y="42.999994" x="63.32196"/>
    <path id="svg_437" d="m114.52196,83.599994l-54.2,0l0,-43.6l54.2,0l0,43.6zm-48.2,-6l42.2,0l0,-31.6l-42.2,0l0,31.6z"/>
   </g>
   <g id="svg_438">
    <path id="svg_439" d="m91.12196,1.399994c0,0 6.1,2.6 5.8,8.7c-0.2,6.1 -5.5,7 -5.8,14.2c-0.2,7.2 5.8,8.3 5.8,8.3" class="st2"/>
    <path id="svg_440" d="m96.72196,33.999994c-2.5,-0.4 -7.2,-3.1 -7,-9.8c0.1,-4.2 1.8,-6.6 3.3,-8.6c1.2,-1.7 2.3,-3.2 2.4,-5.6c0.2,-5 -4.7,-7.1 -4.9,-7.2l1.2,-2.8c0.3,0.1 7,3.1 6.7,10.1c-0.1,3.4 -1.6,5.4 -3,7.3c-1.4,1.9 -2.7,3.6 -2.8,6.9c-0.2,5.7 4,6.7 4.5,6.7l-0.4,3z"/>
   </g>
   <g id="svg_441">
    <path id="svg_442" d="m83.12196,1.399994c0,0 6.1,2.6 5.8,8.7c-0.2,6.1 -5.5,7 -5.8,14.2c-0.2,7.2 5.8,8.3 5.8,8.3" class="st2"/>
    <path id="svg_443" d="m88.62196,33.999994c-2.5,-0.4 -7.2,-3.1 -7,-9.8c0.1,-4.2 1.8,-6.6 3.3,-8.6c1.2,-1.7 2.3,-3.2 2.4,-5.6c0.2,-5 -4.9,-7.2 -4.9,-7.2l1.2,-2.8c0.3,0.1 7,3.1 6.7,10.1c-0.1,3.4 -1.6,5.4 -3,7.3c-1.4,1.9 -2.7,3.6 -2.8,6.9c-0.2,5.8 4.3,6.7 4.5,6.7l-0.4,3z"/>
   </g>
   <g id="svg_444">
    <path id="svg_445" d="m74.62196,2.199994c0,0 6.1,2.6 5.8,8.7c-0.2,6.1 -5.5,7 -5.8,14.2c-0.2,7.2 5.8,8.3 5.8,8.3" class="st2"/>
    <path id="svg_446" d="m80.12196,34.799994c-2.5,-0.4 -7.2,-3.1 -7,-9.8c0.1,-4.2 1.8,-6.6 3.3,-8.6c1.2,-1.7 2.3,-3.2 2.4,-5.6c0.2,-5 -4.9,-7.2 -4.9,-7.2l1.2,-2.8c0.3,0.1 7,3.1 6.7,10.1c-0.1,3.4 -1.6,5.4 -3,7.3c-1.4,1.9 -2.7,3.6 -2.8,6.9c-0.2,5.7 4,6.7 4.5,6.7l-0.4,3z"/>
   </g>
  </g>
</svg>
