<?xml version="1.0" encoding="utf-8"?>
<!-- Generator: Adobe Illustrator 22.0.1, SVG Export Plug-In . SVG Version: 6.00 Build 0)  -->
<svg version="1.1" id="Warstwa_1" xmlns="http://www.w3.org/2000/svg" xmlns:xlink="http://www.w3.org/1999/xlink" x="0px" y="0px"
	 viewBox="0 0 595.3 841.9" style="enable-background:new 0 0 595.3 841.9;" xml:space="preserve">
<style type="text/css">
	.st0{fill:#FAFAFA;}
	.st1{fill:#010202;}
	.st2{fill:#FFFFFF;}
</style>
<g xmlns="http://www.w3.org/2000/svg" id="svg_528">
   <g id="svg_529">
    <g id="svg_530">
     <polygon id="svg_531" points="0.0477294921875,72.39996337890625 0.0477294921875,86 15.0477294921875,72.39996337890625 "/>
    </g>
   </g>
   <g id="svg_532">
    <g id="svg_533">
     <polyline id="svg_534" points="15.0477294921875,72.39996337890625 30.147720336914062,58.79998779296875 15.0477294921875,58.79998779296875 "/>
    </g>
   </g>
   <g id="svg_535">
    <g id="svg_536">
     <polyline id="svg_537" points="30.147720336914062,58.79998779296875 45.24772644042969,45.20001220703125 30.147720336914062,45.20001220703125 "/>
    </g>
   </g>
   <g id="svg_538">
    <g id="svg_539">
     <polyline id="svg_540" points="45.24772644042969,31.5999755859375 60.24772644042969,31.5999755859375 45.24772644042969,45.20001220703125 "/>
    </g>
   </g>
   <g id="svg_541">
    <g id="svg_542">
     <rect id="svg_543" height="2.2" width="100.5" transform="matrix(0.7411,-0.6714,0.6714,0.7411,-347.409,312.5871) " y="65.305796" x="409.610959"/>
    </g>
   </g>
   <g id="svg_544">
    <g id="svg_545">
     <polyline id="svg_546" points="59.84771728515625,31.89996337890625 74.84771728515625,18.39996337890625 59.84771728515625,18.39996337890625 "/>
    </g>
   </g>
   <g id="svg_547">
    <g id="svg_548">
     <rect id="svg_549" height="42.9" width="3" y="44.199988" x="45.747723"/>
    </g>
   </g>
   <g id="svg_550">
    <g id="svg_551">
     <ellipse id="svg_552" ry="5.5" rx="5.3" cy="91.399988" cx="20.447723"/>
    </g>
   </g>
   <g id="svg_553">
    <g id="svg_554">
     <ellipse id="svg_555" ry="5.5" rx="5.3" cy="91.399988" cx="63.647723"/>
    </g>
   </g>
   <g id="svg_556">
    <g id="svg_557">
     <rect id="svg_558" height="78.9" width="6" transform="matrix(0.003316195,-1,1,0.003316195,-408.3528,871.5042) " y="405.813695" x="783.052073"/>
    </g>
   </g>
   <g id="svg_559">
    <g id="svg_560">
     <polygon id="svg_561" points="66.64773559570312,67.70001220703125 66.64773559570312,85 84.74771118164062,85 84.74771118164062,73.5999755859375 "/>
    </g>
   </g>
   <g id="svg_562">
    <g id="svg_563">
     <rect id="svg_564" height="12.6" width="14.5" y="72.399988" x="48.347723"/>
    </g>
   </g>
   <g id="svg_565">
    <g id="svg_566">
     <rect id="svg_567" height="11.5" width="6.5" y="61.599988" x="48.347723"/>
    </g>
   </g>
   <g id="svg_568">
    <path id="svg_569" d="m8.747723,2.899988l0,0l-4,2.1l-0.6,-2.3l5,-2.7l2.6,0l0,22.8l-3,0l0,-19.9z"/>
    <path id="svg_570" d="m29.547723,22.799988l0,-6.2l-10.6,0l0,-2l10.2,-14.5l3.3,0l0,14.1l3.2,0l0,2.4l-3.2,0l0,6.2l-2.9,0zm0,-8.6l0,-7.6c0,-1.2 0,-2.4 0.1,-3.6l-0.1,0c-0.7,1.3 -1.3,2.3 -1.9,3.4l-5.6,7.7l0,0.1l7.5,0z"/>
   </g>
  </g>
</svg>
