<?xml version="1.0" encoding="utf-8"?>
<!-- Generator: Adobe Illustrator 22.0.1, SVG Export Plug-In . SVG Version: 6.00 Build 0)  -->
<svg version="1.1" id="Warstwa_1" xmlns="http://www.w3.org/2000/svg" xmlns:xlink="http://www.w3.org/1999/xlink" x="0px" y="0px"
	 viewBox="0 0 595.3 841.9" style="enable-background:new 0 0 595.3 841.9;" xml:space="preserve">
<style type="text/css">
	.st0{fill:#FAFAFA;}
	.st1{fill:#010202;}
	.st2{fill:#FFFFFF;}
</style>
<g xmlns="http://www.w3.org/2000/svg" id="svg_599">
   <g id="XMLID_8_">
    <g id="svg_600">
     <path id="svg_601" d="m37.1,61.199988l0,-58.1l-17.4,0l-10.4,36.9l0.7,21.3l27.1,0l0,-0.1zm12.2,-28.1l0,-30l-9.6,0l0,30.2l9.6,-0.2zm2.8,-33.1l0,33.3l16.2,13.6l0,28.5l-68.3,0l0,-19.8l16.3,-55.5l35.8,0l0,-0.1z"/>
    </g>
   </g>
   <g id="svg_602">
    <circle id="svg_603" r="7.8" cy="77.799988" cx="16.3"/>
   </g>
   <g id="svg_604">
    <circle id="svg_605" r="7.8" cy="77.999988" cx="52.5"/>
   </g>
   <g id="svg_606">
    <g id="svg_607">
     <path id="svg_608" d="m46.6,70.399988c-0.1,0 -0.1,-0.1 -0.2,-0.1c-1.5,-0.4 -2.4,-1.6 -2.4,-3.1c0,-4.7 0,-9.4 0,-14.2c0,-0.2 0.1,-0.4 0.1,-0.7c0,0 0.1,-0.1 0.1,-0.1c-0.4,-0.3 -0.8,-0.7 -1.2,-1c-0.4,-0.4 -0.4,-0.6 0,-1c0.9,-0.9 1.8,-1.8 2.7,-2.7c0.4,-0.4 0.7,-0.4 1,0c0.6,0.8 1.4,1 2.3,0.9c0.7,0 1.3,-0.2 1.8,-0.7c0.5,-0.5 1.1,-1 1.7,-1.5c0.5,-0.4 1.1,-0.6 1.7,-1c1.6,0 3.3,0 4.9,0c0.1,0 0.1,0.1 0.2,0.1c1.5,0.4 2.4,1.5 2.4,3.1c0,6.2 0,12.5 0,18.7c0,1.1 -0.5,2 -1.4,2.6c-0.4,0.2 -0.8,0.4 -1.2,0.5c-4.2,0.2 -8.4,0.2 -12.5,0.2zm14,-12.5c0,-3.1 0,-6.2 0,-9.3c0,-1.3 -0.8,-2.2 -2.1,-2.2c-1.2,0 -2.5,0 -3.7,0c-0.6,0 -1,0.2 -1.5,0.6c-0.5,0.5 -1.1,0.9 -1.6,1.4c-0.8,0.8 -1.8,1.2 -3,1.2c-0.2,0 -0.5,0.1 -0.6,0.3c-0.9,1 -1.8,1.9 -2.8,2.9c-0.2,0.2 -0.3,0.5 -0.3,0.8c0,4.5 0,9 0,13.5c0,1.5 0.8,2.3 2.3,2.3c3.7,0 7.3,0 11,0c1.5,0 2.3,-0.8 2.3,-2.3c0,-3.1 0,-6.2 0,-9.2zm-15.9,-6.5c0.7,-0.7 1.5,-1.5 2.1,-2.1c-0.1,-0.2 -0.3,-0.4 -0.4,-0.6c-0.7,0.7 -1.5,1.5 -2.2,2.2c0.1,0.1 0.3,0.3 0.5,0.5z" class="st2"/>
    </g>
    <g id="svg_609">
     <path id="svg_610" d="m53.5,60.599988c0.2,0.2 0.5,0.3 0.7,0.5c1.3,1.2 2.5,2.5 3.8,3.8c0.3,0.3 0.3,0.5 0.1,0.8c-0.3,0.3 -0.6,0.2 -0.8,-0.1c-0.1,-0.1 -0.1,-0.1 -0.2,-0.2c-1.2,-1.2 -2.5,-2.5 -3.7,-3.7c-0.1,-0.1 -0.2,-0.3 -0.4,-0.5c-0.2,0.2 -0.3,0.3 -0.4,0.4c-1.3,1.3 -2.5,2.5 -3.8,3.8c-0.1,0.1 -0.2,0.3 -0.3,0.3c-0.2,0 -0.5,0 -0.6,-0.1c-0.1,-0.1 -0.1,-0.4 -0.1,-0.6c0,-0.1 0.2,-0.2 0.3,-0.4c1.3,-1.3 2.5,-2.5 3.8,-3.8c0.1,-0.1 0.3,-0.2 0.5,-0.3c-1.5,-1.5 -2.9,-2.8 -4.2,-4.2c-0.1,-0.1 -0.2,-0.2 -0.3,-0.3c-0.2,-0.2 -0.2,-0.6 0,-0.7c0.2,-0.1 0.5,-0.1 0.7,0c0.2,0.1 0.3,0.3 0.5,0.5c1.3,1.3 2.6,2.6 4,4c0.2,-0.2 0.4,-0.5 0.6,-0.7c1.2,-1.2 2.3,-2.4 3.5,-3.5c0.1,-0.1 0.2,-0.3 0.3,-0.3c0.2,0 0.6,-0.1 0.6,0c0.1,0.2 0.1,0.5 0.1,0.7c0,0.1 -0.2,0.2 -0.3,0.3c-1.6,1.4 -2.9,2.8 -4.4,4.3z" class="st2"/>
    </g>
    <g id="svg_611">
     <path id="svg_612" d="m57,48.499988c-0.5,0 -1,0 -1.5,0c-0.3,0 -0.6,-0.2 -0.6,-0.5c0,-0.4 0.2,-0.5 0.6,-0.5c1,0 2,0 3,0c0.3,0 0.6,0.2 0.6,0.5c0,0.4 -0.3,0.5 -0.6,0.5c-0.5,0 -1,0 -1.5,0z" class="st2"/>
    </g>
   </g>
  </g>
</svg>
