<svg width="76.26428143456269" height="51.50000100000011" xmlns="http://www.w3.org/2000/svg">
 <g>
  <title>background</title>
  <rect x="-1" y="-1" width="78.264281" height="53.500001" id="canvas_background" fill="none"/>
 </g>

 <g>
  <title>Layer 1</title>
  <g id="svg_351">
   <g id="svg_352">
    <g id="svg_353">
     <path id="svg_354" d="m68.364282,41.900001l-44.4,0c-3.2,0 -5.8,-2.6 -5.8,-5.8l0,-30.3c0,-3.2 2.6,-5.8 5.8,-5.8l44.4,0c3.2,0 5.8,2.6 5.8,5.8l0,30.3c-0.1,3.2 -2.7,5.8 -5.8,5.8zm-44.5,-37.9c-1,0 -1.8,0.8 -1.8,1.8l0,30.3c0,1 0.8,1.8 1.8,1.8l44.4,0c1,0 1.8,-0.8 1.8,-1.8l0,-30.3c0,-1 -0.8,-1.8 -1.8,-1.8l-44.4,0z"/>
    </g>
   </g>
   <g id="svg_355">
    <g id="svg_356">
     <rect id="svg_357" height="6.7" width="62.4" y="38.600001" x="13.864282"/>
    </g>
   </g>
   <g id="svg_358">
    <g id="svg_359">
     <circle id="svg_360" r="4.8" cy="46.700001" cx="22.964282"/>
    </g>
   </g>
   <g id="svg_361">
    <g id="svg_362">
     <circle id="svg_363" r="4.8" cy="46.700001" cx="68.964282"/>
    </g>
   </g>
   <g id="svg_364">
    <g id="svg_365">
     <rect id="svg_366" height="28.2" width="3.3" transform="matrix(0.7384,-0.6744,0.6744,0.7384,48.223,269.5235) " y="-216.000784" x="131.971738"/>
    </g>
   </g>
   <g id="svg_367">
    <g id="svg_368">
     <polygon id="svg_369" points="46.06427001953125,30.799999237060547 55.46429443359375,19.60000228881836 36.7642822265625,19.60000228881836 "/>
    </g>
   </g>
   <g id="svg_370">
    <g id="svg_371">
     <rect id="svg_372" height="12.3" width="8.3" transform="matrix(-1,-1.224647e-16,1.224647e-16,-1,813.1387,118.7573) " y="95.499999" x="763.135718"/>
    </g>
   </g>
  </g>
 </g>
</svg>