<svg width="92.1000044741213" height="57.3999985258788" xmlns="http://www.w3.org/2000/svg">
 <g>
  <title>background</title>
  <rect x="-1" y="-1" width="94.100004" height="59.399999" id="canvas_background" fill="none"/>
 </g>

 <g>
  <title>Layer 1</title>
  <g id="svg_23">
   <g id="svg_24">
    <g id="svg_25">
     <rect id="svg_26" height="6.5" width="92.1" y="39.999997" x="0.000006"/>
    </g>
   </g>
   <g id="svg_27">
    <g id="svg_28">
     <circle id="svg_29" r="7.1" cy="50.299997" cx="13.400006"/>
    </g>
   </g>
   <g id="svg_30">
    <g id="svg_31">
     <circle id="svg_32" r="7.1" cy="50.299997" cx="81.400006"/>
    </g>
   </g>
   <g id="svg_33">
    <g id="svg_34">
     <rect id="svg_35" height="6.5" width="92.1" y="-0.000003" x="0.000006"/>
    </g>
   </g>
   <g id="svg_36">
    <g id="svg_37">
     <rect id="svg_38" height="54.9" width="3.2" transform="matrix(0.7283,-0.6853,0.6853,0.7283,-62.942,261.3429) " y="-138.390618" x="227.949783"/>
    </g>
   </g>
   <g id="svg_39">
    <g id="svg_40">
     <rect id="svg_41" height="3.2" width="56.8" transform="matrix(0.7101,-0.7041,0.7041,0.7101,-61.4236,270.887) " y="-114.283649" x="209.769826"/>
    </g>
   </g>
   <g id="svg_42">
    <g id="svg_43">
     <g id="svg_44">
      <path id="svg_45" d="m71.600006,34.499997l-11.5,-11.5l11.5,-11.5l11.5,11.5l-11.5,11.5zm-6.9,-11.5l7,7l7,-7l-7,-7l-7,7z"/>
     </g>
    </g>
    <g id="svg_46">
     <g id="svg_47">
      <polygon id="svg_48" points="71.60000610351562,16 61.100006103515625,5.899993896484375 63.399993896484375,3.5999908447265625 71.60000610351562,11.5 80.20001220703125,2.899993896484375 82.5,5.1999969482421875 "/>
     </g>
    </g>
    <g id="svg_49">
     <g id="svg_50">
      <polygon id="svg_51" points="63.20001220703125,43.30000305175781 60.899993896484375,41 71.80001831054688,30.199996948242188 82.30001831054688,40.30000305175781 80.10000610351562,42.59999084472656 71.80001831054688,34.69999694824219 "/>
     </g>
    </g>
   </g>
  </g>
 </g>
</svg>