<?xml version="1.0" encoding="utf-8"?>
<!-- Generator: Adobe Illustrator 22.0.1, SVG Export Plug-In . SVG Version: 6.00 Build 0)  -->
<svg version="1.1" id="Warstwa_1" xmlns="http://www.w3.org/2000/svg" xmlns:xlink="http://www.w3.org/1999/xlink" x="0px" y="0px"
	 viewBox="0 0 595.3 841.9" style="enable-background:new 0 0 595.3 841.9;" xml:space="preserve">
<style type="text/css">
	.st0{fill:#FAFAFA;}
	.st1{fill:#010202;}
	.st2{fill:#FFFFFF;}
</style>
<g xmlns="http://www.w3.org/2000/svg" id="svg_329">
   <g id="svg_330">
    <g id="svg_331">
     <path id="svg_332" d="m68.284738,41.9l-44.4,0c-3.2,0 -5.8,-2.6 -5.8,-5.8l0,-30.3c0,-3.2 2.6,-5.8 5.8,-5.8l44.4,0c3.2,0 5.8,2.6 5.8,5.8l0,30.3c0,3.2 -2.6,5.8 -5.8,5.8zm-44.4,-37.9c-1,0 -1.8,0.8 -1.8,1.8l0,30.3c0,1 0.8,1.8 1.8,1.8l44.4,0c1,0 1.8,-0.8 1.8,-1.8l0,-30.3c0,-1 -0.8,-1.8 -1.8,-1.8l-44.4,0z"/>
    </g>
   </g>
   <g id="svg_333">
    <g id="svg_334">
     <rect id="svg_335" height="6.7" width="62.4" y="38.6" x="13.784738"/>
    </g>
   </g>
   <g id="svg_336">
    <g id="svg_337">
     <circle id="svg_338" r="4.8" cy="46.7" cx="22.884738"/>
    </g>
   </g>
   <g id="svg_339">
    <g id="svg_340">
     <circle id="svg_341" r="4.8" cy="46.7" cx="68.884738"/>
    </g>
   </g>
   <g id="svg_342">
    <g id="svg_343">
     <rect id="svg_344" height="28.2" width="3.3" transform="matrix(0.7384,-0.6744,0.6744,0.7384,19.3771,196.1652) " y="-142.417678" x="103.831772"/>
    </g>
   </g>
   <g id="svg_345">
    <g id="svg_346">
     <polygon id="svg_347" points="46.08473205566406,10.299998474121082 36.68473815917969,21.5000030517578 55.48472595214844,21.5000030517578 "/>
    </g>
   </g>
   <g id="svg_348">
    <g id="svg_349">
     <rect id="svg_350" height="12.3" width="8.3" y="17.9" x="42.184738"/>
    </g>
   </g>
  </g>
</svg>
