<?xml version="1.0" encoding="utf-8"?>
<!-- Generator: Adobe Illustrator 22.0.1, SVG Export Plug-In . SVG Version: 6.00 Build 0)  -->
<svg version="1.1" id="Warstwa_1" xmlns="http://www.w3.org/2000/svg" xmlns:xlink="http://www.w3.org/1999/xlink" x="0px" y="0px"
	 viewBox="0 0 595.3 841.9" style="enable-background:new 0 0 595.3 841.9;" xml:space="preserve">
<style type="text/css">
	.st0{fill:#FAFAFA;}
	.st1{fill:#010202;}
	.st2{fill:#FFFFFF;}
</style>
<g xmlns="http://www.w3.org/2000/svg" id="svg_394">
   <g id="svg_395">
    <path id="svg_396" d="m10.599997,30.699994l79.7,0l-1.1,-8.3c0,0 -1,-3.9 -3.6,-5c-2.6,-1.2 -17.7,-3.3 -17.7,-3.3l-15,-14.1l-31.7,0.3c-0.3,0 -8.7,14.4 -8.7,14.4l-7.5,0c0,0 -1.9,-0.3 -2.6,1.9c-0.7,2.2 -2.4,14.1 -2.4,14.1l10.6,0z" class="st1"/>
   </g>
   <g id="svg_397">
    <polygon id="svg_398" points="45.19999694824219,1.899993896484375 52.59999084472656,1.899993896484375 64.69999694824219,14.099990844726562 45.19999694824219,14.599990844726562 " class="st2"/>
   </g>
   <g id="svg_399">
    <polygon id="svg_400" points="22.300003051757812,1.899993896484375 22,2.29998779296875 15.5,14.599990844726562 22.300003051757812,14.599990844726562 " class="st2"/>
   </g>
   <g id="svg_401">
    <rect id="svg_402" height="12.7" width="17.5" class="st2" y="1.899994" x="25.099997"/>
   </g>
   <g id="svg_403">
    <circle id="svg_404" r="5.7" cy="30.699994" cx="17.599997"/>
   </g>
   <g id="svg_405">
    <circle id="svg_406" r="5.7" cy="30.699994" cx="68.399997"/>
   </g>
  </g>
</svg>
