<svg width="126.70000657763671" height="64.49999237060547" xmlns="http://www.w3.org/2000/svg">
 <g>
  <title>background</title>
  <rect x="-1" y="-1" width="128.700007" height="66.499992" id="canvas_background" fill="none"/>
 </g>

 <g>
  <title>Layer 1</title>
  <g id="svg_152">
   <g id="svg_153">
    <g id="svg_154">
     <rect id="svg_155" height="7.9" width="86.9" y="47.199994" x="8.100002"/>
    </g>
   </g>
   <g id="svg_156">
    <g id="svg_157">
     <circle id="svg_158" r="6.7" cy="57.799994" cx="20.700002"/>
    </g>
   </g>
   <g id="svg_159">
    <g id="svg_160">
     <circle id="svg_161" r="6.7" cy="57.799994" cx="84.800002"/>
    </g>
   </g>
   <g id="XMLID_2_">
    <g id="svg_162">
     <g id="svg_163">
      <path id="svg_164" d="m99.600002,28.099994l0,21.3l-39,0l0,-36.2l21.3,0l17.7,14.9zm-29.6,1.4l23.1,0l-13.1,-11.7l-10.1,0l0,11.7l0.1,0z"/>
     </g>
    </g>
   </g>
   <g id="svg_165">
    <g id="svg_166">
     <rect id="svg_167" height="36.2" width="57.6" y="13.199994" x="0.000002"/>
    </g>
   </g>
   <g id="svg_168">
    <g id="svg_169">
     <polygon id="svg_170" points="107.9000015258789,20.899993896484375 103.0999984741211,20.899993896484375 103.0999984741211,4.79998779296875 16.400001525878906,4.79998779296875 16.400001525878906,17.79998779296875 11.700000762939453,17.79998779296875 11.700000762939453,0 107.9000015258789,0 "/>
    </g>
   </g>
   <g id="svg_171">
    <g id="svg_172">
     <rect id="svg_173" height="22" width="18.8" y="12.099994" x="105.500002"/>
    </g>
    <g id="svg_174">
     <path id="svg_175" d="m126.700002,36.499994l-23.6,0l0,-26.8l23.6,0l0,26.8zm-18.8,-4.8l14.1,0l0,-17.2l-14.1,0l0,17.2z"/>
    </g>
   </g>
  </g>
 </g>
</svg>