<svg width="117.50001525878906" height="79.60000610351562" xmlns="http://www.w3.org/2000/svg">
 <style type="text/css">.st0{fill:#FFFFFF;}</style>

 <g>
  <title>background</title>
  <rect fill="none" id="canvas_background" height="843.9" width="597.3" y="-1" x="-1"/>
 </g>
 <g>
  <title>Layer 1</title>
  <g id="svg_22">
   <g id="svg_23">
    <g id="svg_24">
     <rect id="svg_25" height="8.4" width="117" y="61.200003" x="0.500012"/>
    </g>
   </g>
   <g id="svg_26">
    <g id="svg_27">
     <circle id="svg_28" r="7.1" cy="72.500003" cx="15.400012"/>
    </g>
   </g>
   <g id="svg_29">
    <g id="svg_30">
     <circle id="svg_31" r="7.1" cy="72.500003" cx="99.700012"/>
    </g>
   </g>
   <g id="svg_32">
    <path id="svg_33" d="m4.400012,63.300003"/>
   </g>
   <g id="svg_34">
    <polygon id="svg_35" points="77.80001831054688,47.100006103515625 72.80001831054688,47.100006103515625 72.80001831054688,32.900001525878906 38.4000244140625,32.900001525878906 38.4000244140625,27.900001525878906 77.80001831054688,27.900001525878906 "/>
   </g>
   <g id="svg_36">
    <polygon id="svg_37" points="114,63.69999694824219 109,63.69999694824219 109,49.600006103515625 74.5,49.600006103515625 74.5,44.600006103515625 114,44.600006103515625 "/>
   </g>
   <g id="svg_38">
    <rect id="svg_39" height="119.4" width="5" transform="matrix(0.4081,-0.9129,0.9129,0.4081,92.1749,409.3404) " y="-242.816458" x="320.903692"/>
   </g>
   <g id="svg_40">
    <polygon id="svg_41" points="5,61.19999694824219 0,61.19999694824219 0,0 41.9000244140625,0 41.9000244140625,30.400001525878906 36.9000244140625,30.400001525878906 36.9000244140625,5 5,5 "/>
   </g>
  </g>
  <g id="svg_2"/>
 </g>
</svg>