<svg width="93.70000457763672" height="77.79999542236328" xmlns="http://www.w3.org/2000/svg">
 <style type="text/css">.st0{fill:#FAFAFA;}
	.st1{fill:#010202;}
	.st2{fill:#FFFFFF;}</style>

 <g>
  <title>background</title>
  <rect fill="none" id="canvas_background" height="403" width="583" y="-1" x="-1"/>
 </g>
 <g>
  <title>Layer 1</title>
  <g id="svg_629">
   <g id="svg_630">
    <rect id="svg_631" height="10" width="93.7" y="58.4" x="0"/>
   </g>
   <g id="svg_632">
    <circle id="svg_633" r="7.2" cy="70.6" cx="13.7"/>
   </g>
   <g id="svg_634">
    <circle id="svg_635" r="7.2" cy="70.6" cx="82.8"/>
   </g>
   <g id="svg_636">
    <rect id="svg_637" height="36.7" width="69.1" y="23.8" x="6.5"/>
    <path id="svg_638" d="m78.1,63l-74.1,0l0,-41.7l74.1,0l0,41.7zm-69.1,-5l64.1,0l0,-31.7l-64.1,0l0,31.7z"/>
   </g>
   <g id="svg_639">
    <rect id="svg_640" height="58" width="23.6" y="2.5" x="60.6"/>
    <path id="svg_641" d="m86.7,63l-28.6,0l0,-63l28.6,0l0,63zm-23.6,-5l18.6,0l0,-53l-18.6,0l0,53z"/>
   </g>
   <g id="svg_642">
    <g id="svg_643">
     <path id="svg_644" d="m42.9,46.6c2.3,1.1 4.7,1.6 7.1,1.9c2,0.2 2.6,1 2,2.9c-1.1,3.2 -3,5.7 -6.1,7.1c-4.3,2 -8.9,-0.2 -10.2,-5c-0.3,-1 -0.3,-2.1 -0.5,-3.2c4.1,0.7 5.8,-0.1 7.7,-3.7z" class="st2"/>
    </g>
    <g id="svg_645">
     <path id="svg_646" d="m33.2,40.6c-2.3,3.7 -2.2,5.8 0.4,8.7c-1.9,1.8 -3.2,4.1 -4.3,6.4c-0.4,0.9 -1.2,1.1 -2.1,0.7c-0.2,-0.1 -0.3,-0.1 -0.4,-0.2c-3,-1.7 -5.6,-6.9 -5,-10.3c0.6,-4.1 4.3,-6.7 8.5,-6.1c0.8,0.3 1.8,0.6 2.9,0.8z" class="st2"/>
    </g>
    <g id="svg_647">
     <path id="svg_648" d="m35.3,39.4c-0.7,-2.4 -1.9,-4.6 -3.4,-6.6c-0.7,-1 -0.6,-2 0.6,-2.5c1.1,-0.5 2.4,-0.9 3.6,-1.1c2,-0.3 4.1,-0.2 6,0.6c4.2,1.7 5.8,5.9 3.9,10.1c-0.7,1.5 -1.7,2.7 -3.1,3.7c-1.3,-3.7 -3.8,-5.1 -7.6,-4.2z" class="st2"/>
    </g>
    <g id="svg_649">
     <path id="svg_650" d="m41.5,44.9c0,2.3 -1.8,4.2 -4.2,4.2c-2.4,0 -4.2,-1.8 -4.3,-4.2c0,-2.4 1.9,-4.3 4.2,-4.3c2.4,0.1 4.3,1.9 4.3,4.3z" class="st2"/>
    </g>
   </g>
  </g>
 </g>
</svg>