<svg width="104.30000305175781" height="55.80000305175781" xmlns="http://www.w3.org/2000/svg">
 <style type="text/css">.st0{fill:#FAFAFA;}
	.st1{fill:#010202;}
	.st2{fill:#FFFFFF;}</style>

 <g>
  <title>background</title>
  <rect fill="none" id="canvas_background" height="402" width="582" y="-1" x="-1"/>
 </g>
 <g>
  <title>Layer 1</title>
  <g id="svg_377">
   <g id="svg_378">
    <path id="svg_379" d="m98.2,47.6l-92.1,0c-3.3,0 -6.1,-2.7 -6.1,-6.1l0,-35.4c0,-3.3 2.7,-6.1 6.1,-6.1l92.1,0c3.3,0 6.1,2.7 6.1,6.1l0,35.4c0,3.3 -2.8,6.1 -6.1,6.1z"/>
   </g>
   <g id="svg_380">
    <path id="svg_381" d="m14.6,27.7l-9,0c-0.8,0 -1.5,-0.7 -1.5,-1.5l0,-21.3c0,-0.8 0.7,-1.5 1.5,-1.5l9,0c0.8,0 1.5,0.7 1.5,1.5l0,21.3c0,0.8 -0.7,1.5 -1.5,1.5z" class="st0"/>
   </g>
   <g id="svg_382">
    <path id="svg_383" d="m35.5,27.7l-13.9,0c-0.8,0 -1.5,-0.7 -1.5,-1.5l0,-21.3c0,-0.8 0.7,-1.5 1.5,-1.5l13.9,0c0.8,0 1.5,0.7 1.5,1.5l0,21.3c0,0.8 -0.7,1.5 -1.5,1.5z" class="st0"/>
   </g>
   <g id="svg_384">
    <path id="svg_385" d="m55.6,27.7l-13.8,0c-0.8,0 -1.5,-0.7 -1.5,-1.5l0,-21.3c0,-0.8 0.7,-1.5 1.5,-1.5l13.8,0c0.8,0 1.5,0.7 1.5,1.5l0,21.3c0.1,0.8 -0.6,1.5 -1.5,1.5z" class="st0"/>
   </g>
   <g id="svg_386">
    <path id="svg_387" d="m75.8,27.7l-13.8,0c-0.8,0 -1.5,-0.7 -1.5,-1.5l0,-21.3c0,-0.8 0.7,-1.5 1.5,-1.5l13.9,0c0.8,0 1.5,0.7 1.5,1.5l0,21.3c0,0.8 -0.7,1.5 -1.6,1.5z" class="st0"/>
   </g>
   <g id="svg_388">
    <path id="svg_389" d="m99.5,27.7l-9.2,0c-0.5,0 -0.6,-0.2 -1,-0.6c-1.8,-2 -8.1,-9.4 -8.1,-9.4c-0.1,-0.2 -0.2,-0.2 -0.3,-0.7c0,-0.2 -0.1,-0.6 -0.1,-0.7l0,-11.8c0,-0.6 0.5,-1 1,-1l17.6,0c0.6,0 1,0.5 1,1l0,22.2c0.1,0.5 -0.3,1 -0.9,1z" class="st0"/>
   </g>
   <g id="svg_390">
    <circle id="svg_391" r="5.7" cy="49.9" cx="20.1"/>
   </g>
   <g id="svg_392">
    <circle id="svg_393" r="5.7" cy="50.1" cx="89.1"/>
   </g>
  </g>
 </g>
</svg>