<svg width="190.000002" height="71.0999984741211" xmlns="http://www.w3.org/2000/svg">
 <style type="text/css">.st0{fill:#FFFFFF;}</style>

 <g>
  <title>background</title>
  <rect fill="none" id="canvas_background" height="843.9" width="597.3" y="-1" x="-1"/>
 </g>
 <g>
  <title>Layer 1</title>
  <g id="svg_143">
   <g id="svg_144">
    <g id="svg_145">
     <rect id="svg_146" height="11" width="183.7" y="47.1" x="0.000002"/>
    </g>
   </g>
   <g id="svg_147">
    <g id="svg_148">
     <circle id="svg_149" r="9.2" cy="61.9" cx="84.100002"/>
    </g>
   </g>
   <g id="svg_150">
    <g id="svg_151">
     <circle id="svg_152" r="9.2" cy="61.9" cx="167.800002"/>
    </g>
   </g>
   <g id="XMLID_3_">
    <g id="svg_153">
     <g id="svg_154">
      <path id="svg_155" d="m190.000002,20.6l0,29.6l-54.1,0l0,-50.2l29.5,0l24.6,20.6zm-41,1.9l32.1,0l-18.1,-16.2l-14,0l0,16.2z"/>
     </g>
    </g>
   </g>
   <g id="svg_156">
    <g id="svg_157">
     <circle id="svg_158" r="9.2" cy="61.9" cx="31.400002"/>
    </g>
   </g>
   <g id="svg_159">
    <path id="svg_160" d="m115.600002,47.1l-99.4,0c-8.9,0 -16.2,-7.3 -16.2,-16.2l0,-14.7c0,-8.9 7.3,-16.2 16.2,-16.2l99.4,0c8.9,0 16.2,7.3 16.2,16.2l0,14.7c0.1,8.9 -7.2,16.2 -16.2,16.2z"/>
   </g>
   <g id="svg_161">
    <g id="svg_162">
     <path id="svg_163" d="m60.300002,37.1c-0.1,0 -0.1,-0.1 -0.2,-0.1c-1.5,-0.4 -2.5,-1.7 -2.5,-3.3c0,-5.1 0,-10.1 0,-15.2c0,-0.2 0.1,-0.5 0.1,-0.7c0,0 0.1,-0.1 0.1,-0.1c-0.4,-0.4 -0.8,-0.7 -1.2,-1.1c-0.4,-0.4 -0.4,-0.7 0,-1.1c0.9,-1 1.9,-1.9 2.8,-2.9c0.4,-0.4 0.7,-0.5 1,0c0.6,0.9 1.4,1 2.4,1c0.7,0 1.3,-0.2 1.9,-0.8c0.6,-0.5 1.1,-1.1 1.7,-1.6c0.5,-0.4 1.1,-0.7 1.7,-1c1.7,0 3.4,0 5.1,0c0.1,0 0.1,0.1 0.2,0.1c1.6,0.4 2.5,1.6 2.5,3.3c0,6.7 0,13.3 0,20c0,1.2 -0.5,2.2 -1.5,2.8c-0.4,0.2 -0.8,0.4 -1.2,0.6c-4.3,0.1 -8.6,0.1 -12.9,0.1zm14.5,-13.4c0,-3.3 0,-6.6 0,-9.9c0,-1.4 -0.9,-2.3 -2.2,-2.3c-1.3,0 -2.6,0 -3.8,0c-0.6,0 -1.1,0.2 -1.5,0.6c-0.5,0.5 -1.1,1 -1.6,1.5c-0.9,0.9 -1.9,1.3 -3.1,1.3c-0.2,0 -0.5,0.1 -0.6,0.3c-1,1 -1.9,2.1 -2.9,3.1c-0.2,0.3 -0.3,0.5 -0.3,0.9c0,4.8 0,9.6 0,14.4c0,1.6 0.8,2.5 2.4,2.5c3.8,0 7.6,0 11.4,0c1.6,0 2.4,-0.9 2.4,-2.5c-0.2,-3.4 -0.2,-6.6 -0.2,-9.9zm-16.5,-6.9c0.8,-0.8 1.5,-1.6 2.2,-2.3c-0.1,-0.2 -0.3,-0.4 -0.5,-0.6c-0.8,0.8 -1.5,1.6 -2.2,2.3c0.2,0.2 0.4,0.4 0.5,0.6z" class="st0"/>
    </g>
    <g id="svg_164">
     <path id="svg_165" d="m67.400002,26.6c0.2,0.2 0.5,0.3 0.7,0.5c1.3,1.3 2.6,2.7 3.9,4c0.3,0.3 0.4,0.6 0.1,0.9c-0.3,0.3 -0.6,0.2 -0.8,-0.1c-0.1,-0.1 -0.1,-0.1 -0.2,-0.2c-1.3,-1.3 -2.6,-2.6 -3.8,-4c-0.1,-0.1 -0.2,-0.3 -0.4,-0.5c-0.2,0.2 -0.3,0.3 -0.4,0.4c-1.3,1.4 -2.6,2.7 -3.9,4.1c-0.1,0.1 -0.2,0.3 -0.3,0.3c-0.2,0 -0.5,0 -0.7,-0.1c-0.1,-0.1 -0.1,-0.4 -0.1,-0.6c0,-0.1 0.2,-0.3 0.3,-0.4c1.3,-1.3 2.6,-2.7 3.9,-4c0.1,-0.1 0.3,-0.2 0.5,-0.3c-1.5,-1.6 -3,-3 -4.4,-4.5c-0.1,-0.1 -0.2,-0.2 -0.3,-0.3c-0.2,-0.3 -0.3,-0.6 0,-0.8c0.2,-0.1 0.5,-0.1 0.7,0c0.2,0.1 0.3,0.3 0.5,0.5c1.3,1.4 2.7,2.8 4.1,4.3c0.2,-0.3 0.4,-0.5 0.6,-0.7c1.2,-1.3 2.4,-2.5 3.6,-3.8c0.1,-0.1 0.2,-0.3 0.3,-0.3c0.2,0 0.6,-0.1 0.7,0c0.1,0.2 0.1,0.5 0.1,0.7c0,0.1 -0.2,0.2 -0.3,0.3c-1.4,1.5 -2.8,3 -4.4,4.6z" class="st0"/>
    </g>
    <g id="svg_166">
     <path id="svg_167" d="m71.100002,13.7c-0.5,0 -1,0 -1.6,0c-0.4,0 -0.6,-0.2 -0.6,-0.6c0,-0.4 0.2,-0.6 0.6,-0.6c1,0 2.1,0 3.1,0c0.3,0 0.6,0.2 0.6,0.6c0,0.4 -0.3,0.5 -0.6,0.5c-0.5,0.1 -1,0.1 -1.5,0.1z" class="st0"/>
    </g>
   </g>
  </g>
  <g id="svg_2"/>
 </g>
</svg>