<svg width="162.5" height="70.99999699999967" xmlns="http://www.w3.org/2000/svg">
 <style type="text/css">.st0{fill:#FFFFFF;}</style>

 <g>
  <title>background</title>
  <rect fill="none" id="canvas_background" height="843.9" width="597.3" y="-1" x="-1"/>
 </g>
 <g>
  <title>Layer 1</title>
  <g id="svg_53">
   <g id="svg_54">
    <g id="svg_55">
     <rect id="svg_56" height="11" width="120.6" y="47.099997" x="35.6"/>
    </g>
   </g>
   <g id="svg_57">
    <g id="svg_58">
     <circle id="svg_59" r="9.2" cy="61.799997" cx="56.6"/>
    </g>
   </g>
   <g id="svg_60">
    <g id="svg_61">
     <circle id="svg_62" r="9.2" cy="61.799997" cx="140.3"/>
    </g>
   </g>
   <g id="XMLID_2_">
    <g id="svg_63">
     <g id="svg_64">
      <path id="svg_65" d="m162.5,20.599997l0,29.6l-54.1,0l0,-50.2l29.5,0l24.6,20.6zm-41,1.9l32.1,0l-18.1,-16.2l-14,0l0,16.2z"/>
     </g>
    </g>
   </g>
   <g id="svg_66">
    <g id="svg_67">
     <path id="svg_68" d="m15.2,10.599997c4.8,0 9.6,-0.1 14.4,0.1c2.4,0.1 4.2,-0.4 5.4,-2.7c0.5,-1 1.5,-1.8 2.3,-2.7c2,-2 4.2,-3.1 7.2,-3c8.2,0.1 16.4,0 24.6,0.1c6.4,0 10.4,4.1 10.4,10.5c0,8.5 0,17 0,25.5c0,6.3 -4.1,10.3 -10.4,10.4c-8,0 -16,-0.2 -24,0.1c-3.7,0.1 -6.4,-1.3 -8.7,-4c-0.9,-1.1 -1.7,-2.3 -2.6,-3.3c-0.4,-0.4 -0.9,-0.9 -1.4,-1c-1.4,-0.1 -2.8,0 -4.2,0c0,4 0,7.7 0,11.6c1.1,0.1 2.1,0.1 3.1,0.2c0,2.8 0,5.4 0,8c-7.2,0 -14.2,0 -21.3,0c0,-2.7 0,-5.3 0,-8c1.1,-0.1 2.1,-0.1 3,-0.2c0,-6.8 0,-13.3 0,-19.9c-1.7,0 -3.2,0 -4.8,0c-0.1,1.1 -0.1,2.1 -0.2,3.1c-2.8,0 -5.4,0 -8,0c0,-7.2 0,-14.2 0,-21.3c2.8,0 5.4,0 8.2,0c0,1.1 0,2.1 0,3.1c1.8,0 3.3,0 5,0c0,-2.2 0,-4.2 0,-6.5c0.7,-0.1 1.3,-0.1 2,-0.1zm1.2,3.4c0,12.7 0,25.3 0,38.1c2.7,0 5.3,0 8.2,0c0,-8.7 0,-17.5 0,-26.3c1.2,0 2.1,0 3.3,0c0,3.7 0,7.5 0,11.4c1.2,0 2.1,0 3.2,0c0,-7.7 0,-15.3 0,-23.1c-4.9,-0.1 -9.7,-0.1 -14.7,-0.1zm18.5,0c-0.3,0.4 -0.2,1.2 -0.2,1.8c0,6.3 0,12.5 0,18.8c0,1.6 0.3,3 1.3,4.3c1.6,2 3.2,4 4.8,6c0.1,-0.1 0.3,-0.2 0.4,-0.3c0,-12.7 0,-25.3 0,-38c-0.2,-0.1 -0.4,-0.3 -0.6,-0.4c-1.9,2.6 -3.9,5.2 -5.7,7.8zm36.4,31c3,-0.7 4.9,-3 4.9,-6.3c0.1,-8.8 0.1,-17.6 0,-26.4c0,-3.3 -1.9,-5.5 -4.9,-6.3c0,13 0,26 0,39zm-63.1,-16.2c1.6,0 3.1,0 4.8,0c0,-2.7 0,-5.4 0,-8.2c-1.6,0 -3.1,0 -4.8,0c0,2.8 0,5.5 0,8.2zm18.5,26.5c-4.1,0.1 -8.2,0 -12.4,0c-1.2,0 -1.5,0.5 -1.2,1.7c4.9,0 9.8,0 14.8,0c0.3,-1.2 0,-1.7 -1.2,-1.7zm-22,-37.8c-1.6,-0.3 -1.7,-0.3 -1.7,1c0,4.1 0,8.2 0,12.4c0,1.2 0.4,1.6 1.7,1.2c0,-4.9 0,-9.8 0,-14.6z"/>
    </g>
   </g>
   <g id="svg_69">
    <g id="svg_70">
     <path id="svg_71" d="m49.9,38.699997c-0.1,0 -0.2,-0.1 -0.2,-0.1c-1.6,-0.4 -2.6,-1.7 -2.6,-3.3c0,-5.1 0,-10.1 0,-15.2c0,-0.2 0.1,-0.5 0.1,-0.7c0.1,0 0.1,-0.1 0.2,-0.1c-0.4,-0.4 -0.8,-0.7 -1.2,-1.1c-0.4,-0.4 -0.4,-0.7 0,-1.1c1,-1 1.9,-1.9 2.9,-2.9c0.4,-0.4 0.7,-0.5 1,0c0.6,0.9 1.5,1 2.5,1c0.8,0 1.4,-0.2 1.9,-0.8c0.6,-0.5 1.2,-1.1 1.8,-1.6c0.5,-0.4 1.2,-0.7 1.8,-1c1.7,0 3.5,0 5.2,0c0.1,0 0.1,0.1 0.2,0.1c1.6,0.4 2.6,1.6 2.6,3.3c0,6.7 0,13.3 0,20c0,1.2 -0.5,2.2 -1.5,2.8c-0.4,0.3 -0.8,0.4 -1.3,0.6c-4.5,0.1 -8.9,0.1 -13.4,0.1zm15.1,-13.4c0,-3.3 0,-6.6 0,-9.9c0,-1.4 -0.9,-2.3 -2.3,-2.3c-1.3,0 -2.6,0 -4,0c-0.6,0 -1.1,0.2 -1.6,0.6c-0.6,0.5 -1.1,1 -1.7,1.5c-0.9,0.9 -2,1.3 -3.3,1.3c-0.2,0 -0.5,0.1 -0.7,0.3c-1,1 -2,2.1 -3,3.1c-0.2,0.3 -0.4,0.5 -0.4,0.9c0,4.8 0,9.6 0,14.4c0,1.6 0.9,2.5 2.5,2.5c3.9,0 7.8,0 11.8,0c1.6,0 2.5,-0.9 2.5,-2.5c0.2,-3.4 0.2,-6.6 0.2,-9.9zm-17.1,-7c0.8,-0.8 1.6,-1.6 2.3,-2.3c-0.1,-0.2 -0.3,-0.4 -0.5,-0.6c-0.8,0.8 -1.6,1.6 -2.3,2.3c0.1,0.3 0.3,0.5 0.5,0.6z" class="st0"/>
    </g>
    <g id="svg_72">
     <path id="svg_73" d="m57.3,28.199997c0.3,0.2 0.5,0.3 0.7,0.5c1.4,1.3 2.7,2.7 4,4c0.3,0.3 0.4,0.6 0.1,0.9c-0.3,0.3 -0.6,0.2 -0.9,-0.1c-0.1,-0.1 -0.1,-0.1 -0.2,-0.2c-1.3,-1.3 -2.6,-2.6 -4,-4c-0.1,-0.1 -0.2,-0.3 -0.4,-0.5c-0.2,0.2 -0.3,0.3 -0.5,0.4c-1.4,1.4 -2.7,2.7 -4.1,4.1c-0.1,0.1 -0.2,0.3 -0.3,0.3c-0.2,0 -0.5,0 -0.7,-0.1c-0.1,-0.1 -0.1,-0.4 -0.1,-0.6c0,-0.1 0.2,-0.3 0.3,-0.4c1.3,-1.3 2.7,-2.7 4,-4c0.1,-0.1 0.3,-0.2 0.5,-0.3c-1.6,-1.6 -3.1,-3 -4.5,-4.5c-0.1,-0.1 -0.2,-0.2 -0.3,-0.3c-0.2,-0.3 -0.3,-0.6 0,-0.8c0.2,-0.1 0.5,-0.1 0.7,0c0.2,0.1 0.4,0.3 0.5,0.5c1.4,1.4 2.8,2.8 4.3,4.3c0.2,-0.3 0.4,-0.5 0.6,-0.7c1.3,-1.3 2.5,-2.5 3.8,-3.8c0.1,-0.1 0.2,-0.3 0.3,-0.3c0.2,0 0.6,-0.1 0.7,0c0.1,0.2 0.1,0.5 0.1,0.7c0,0.1 -0.2,0.2 -0.3,0.3c-1.3,1.5 -2.7,3 -4.3,4.6z" class="st0"/>
    </g>
    <g id="svg_74">
     <path id="svg_75" d="m61.1,15.199997c-0.5,0 -1.1,0 -1.6,0c-0.4,0 -0.6,-0.2 -0.6,-0.6c0,-0.4 0.3,-0.6 0.6,-0.6c1.1,0 2.2,0 3.2,0c0.4,0 0.6,0.2 0.6,0.6c0,0.4 -0.3,0.5 -0.6,0.5c-0.6,0.1 -1.1,0.1 -1.6,0.1z" class="st0"/>
    </g>
   </g>
   <g id="svg_76">
    <path id="svg_77" d="m91.2,43.399997c-0.5,0 -3.5,-0.1 -5.9,-2.5c-1.7,-1.7 -2.6,-4.1 -2.6,-7.2c0,-7.5 5.9,-10 9,-10.3l0.2,0l5.6,0c1.1,-0.1 5.7,-0.7 5.5,-6.1c-0.2,-5.6 -4.9,-6.6 -5.9,-6.7l-20.8,0l0,-4l21.1,0c3.2,0.4 9.2,3 9.5,10.6c0.3,7.7 -6,10.1 -9.3,10.2l-5.6,0c-0.8,0.1 -5.2,0.9 -5.2,6.3c0,1.9 0.5,3.4 1.4,4.3c1.3,1.3 3.1,1.3 3.1,1.3l0,0l22,0l0,4l-22.1,0c0.1,0.1 0,0.1 0,0.1z"/>
   </g>
  </g>
 </g>
</svg>