<svg width="76.18473575072858" height="51.5" xmlns="http://www.w3.org/2000/svg">
 <g>
  <title>background</title>
  <rect x="-1" y="-1" width="78.184736" height="53.5" id="canvas_background" fill="none"/>
 </g>

 <g>
  <title>Layer 1</title>
  <g id="svg_329">
   <g id="svg_330">
    <g id="svg_331">
     <path id="svg_332" d="m68.284738,41.9l-44.4,0c-3.2,0 -5.8,-2.6 -5.8,-5.8l0,-30.3c0,-3.2 2.6,-5.8 5.8,-5.8l44.4,0c3.2,0 5.8,2.6 5.8,5.8l0,30.3c0,3.2 -2.6,5.8 -5.8,5.8zm-44.4,-37.9c-1,0 -1.8,0.8 -1.8,1.8l0,30.3c0,1 0.8,1.8 1.8,1.8l44.4,0c1,0 1.8,-0.8 1.8,-1.8l0,-30.3c0,-1 -0.8,-1.8 -1.8,-1.8l-44.4,0z"/>
    </g>
   </g>
   <g id="svg_333">
    <g id="svg_334">
     <rect id="svg_335" height="6.7" width="62.4" y="38.6" x="13.784738"/>
    </g>
   </g>
   <g id="svg_336">
    <g id="svg_337">
     <circle id="svg_338" r="4.8" cy="46.7" cx="22.884738"/>
    </g>
   </g>
   <g id="svg_339">
    <g id="svg_340">
     <circle id="svg_341" r="4.8" cy="46.7" cx="68.884738"/>
    </g>
   </g>
   <g id="svg_342">
    <g id="svg_343">
     <rect id="svg_344" height="28.2" width="3.3" transform="matrix(0.7384,-0.6744,0.6744,0.7384,19.3771,196.1652) " y="-142.417678" x="103.831772"/>
    </g>
   </g>
   <g id="svg_345">
    <g id="svg_346">
     <polygon id="svg_347" points="46.08473205566406,10.299998474121082 36.68473815917969,21.5000030517578 55.48472595214844,21.5000030517578 "/>
    </g>
   </g>
   <g id="svg_348">
    <g id="svg_349">
     <rect id="svg_350" height="12.3" width="8.3" y="17.9" x="42.184738"/>
    </g>
   </g>
  </g>
 </g>
</svg>