<svg width="90.30000305175781" height="36.39999771118164" xmlns="http://www.w3.org/2000/svg">
 <style type="text/css">.st0{fill:#FAFAFA;}
	.st1{fill:#010202;}
	.st2{fill:#FFFFFF;}</style>

 <g>
  <title>background</title>
  <rect fill="none" id="canvas_background" height="402" width="582" y="-1" x="-1"/>
 </g>
 <g>
  <title>Layer 1</title>
  <g id="svg_394">
   <g id="svg_395">
    <path id="svg_396" d="m10.6,30.7l79.7,0l-1.1,-8.3c0,0 -1,-3.9 -3.6,-5c-2.6,-1.2 -17.7,-3.3 -17.7,-3.3l-15,-14.1l-31.7,0.3c-0.3,0 -8.7,14.4 -8.7,14.4l-7.5,0c0,0 -1.9,-0.3 -2.6,1.9c-0.7,2.2 -2.4,14.1 -2.4,14.1l10.6,0z" class="st1"/>
   </g>
   <g id="svg_397">
    <polygon id="svg_398" points="45.20000076293945,1.8999998569481855 52.59999465942383,1.8999998569481855 64.69999694824219,14.099996566771795 45.20000076293945,14.599996566771795 " class="st2"/>
   </g>
   <g id="svg_399">
    <polygon id="svg_400" points="22.300006866455078,1.8999998569481855 22.000003814697266,2.2999937534325605 15.50000286102295,14.599996566771795 22.300006866455078,14.599996566771795 " class="st2"/>
   </g>
   <g id="svg_401">
    <rect id="svg_402" height="12.7" width="17.5" class="st2" y="1.9" x="25.1"/>
   </g>
   <g id="svg_403">
    <circle id="svg_404" r="5.7" cy="30.7" cx="17.6"/>
   </g>
   <g id="svg_405">
    <circle id="svg_406" r="5.7" cy="30.7" cx="68.4"/>
   </g>
  </g>
 </g>
</svg>