<svg width="191.10000610351562" height="66.1999925776363" xmlns="http://www.w3.org/2000/svg">
 <style type="text/css">.st0{fill:#FAFAFA;}
	.st1{fill:#010202;}
	.st2{fill:#FFFFFF;}</style>

 <g>
  <title>background</title>
  <rect fill="none" id="canvas_background" height="402" width="582" y="-1" x="-1"/>
 </g>
 <g>
  <title>Layer 1</title>
  <g id="svg_458">
   <g id="XMLID_7_">
    <g id="svg_459">
     <path id="svg_460" d="m80.3,0.499988l0,54.5l-80.3,0l0,-19.3c0,-3.5 2.5,-6.5 6,-7.1l31.2,-5.3l9.8,-23.3l33.3,0.5zm-3.9,27.8l0,-25l-9.1,0l0.7,25l8.4,0zm-12.1,0l0,-25l-15.9,0l-10.1,25l26,0z"/>
    </g>
   </g>
   <g id="svg_461">
    <circle id="svg_462" r="10.9" cy="55.299988" cx="167.6"/>
   </g>
   <g id="svg_463">
    <rect id="svg_464" height="21.8" width="6.8" y="33.199988" x="77.4"/>
   </g>
   <g id="svg_465">
    <rect id="svg_466" height="13.3" width="128" y="41.699988" x="63.1"/>
   </g>
   <g id="svg_467">
    <rect id="svg_468" height="23.7" width="33.1" y="20.499988" x="77.8"/>
   </g>
   <g id="svg_469">
    <circle id="svg_470" r="10.9" cy="55.299988" cx="20.3"/>
   </g>
   <g id="svg_471">
    <circle id="svg_472" r="10.9" cy="55.299988" cx="143.6"/>
   </g>
  </g>
 </g>
</svg>