<svg width="84.747727359686" height="78.5000228881836" xmlns="http://www.w3.org/2000/svg">
 <style type="text/css">.st0{fill:#FAFAFA;}
	.st1{fill:#010202;}
	.st2{fill:#FFFFFF;}</style>

 <g>
  <title>background</title>
  <rect fill="none" id="canvas_background" height="98.89999" width="86.747712" y="-1" x="-1"/>
 </g>
 <g>
  <title>Layer 1</title>
  <g id="svg_528">
   <g id="svg_529">
    <g id="svg_530">
     <polygon points="0.047743220772645145,54 0.047743220772645145,67.60003662109375 15.047742878045938,54 " id="svg_531"/>
    </g>
   </g>
   <g id="svg_532">
    <g id="svg_533">
     <polyline points="15.047742878045938,54 30.147734676446817,40.4000244140625 15.047742878045938,40.4000244140625 " id="svg_534"/>
    </g>
   </g>
   <g id="svg_535">
    <g id="svg_536">
     <polyline points="30.147734676446817,40.4000244140625 45.24774077996244,26.800048828125 30.147734676446817,26.800048828125 " id="svg_537"/>
    </g>
   </g>
   <g id="svg_538">
    <g id="svg_539">
     <polyline points="45.24774077996244,13.20001220703125 60.24774077996244,13.20001220703125 45.24774077996244,26.800048828125 " id="svg_540"/>
    </g>
   </g>
   <g id="svg_541">
    <g id="svg_542">
     <rect x="421.964616" y="51.66969" transform="matrix(0.7411,-0.6714,0.6714,0.7411,-347.409,312.5871) " width="100.5" height="2.2" id="svg_543"/>
    </g>
   </g>
   <g id="svg_544">
    <g id="svg_545">
     <polyline points="59.847731624689004,13.5 74.847731624689,0 59.847731624689004,0 " id="svg_546"/>
    </g>
   </g>
   <g id="svg_547">
    <g id="svg_548">
     <rect x="45.747737" y="25.800025" width="3" height="42.9" id="svg_549"/>
    </g>
   </g>
   <g id="svg_550">
    <g id="svg_551">
     <ellipse cx="20.447737" cy="73.000025" rx="5.3" ry="5.5" id="svg_552"/>
    </g>
   </g>
   <g id="svg_553">
    <g id="svg_554">
     <ellipse cx="63.647737" cy="73.000025" rx="5.3" ry="5.5" id="svg_555"/>
    </g>
   </g>
   <g id="svg_556">
    <g id="svg_557">
     <rect x="801.451834" y="405.752692" transform="matrix(0.003316195,-1,1,0.003316195,-408.3528,871.5042) " width="6" height="78.9" id="svg_558"/>
    </g>
   </g>
   <g id="svg_559">
    <g id="svg_560">
     <polygon points="66.64774993523588,49.300048828125 66.64774993523588,66.60003662109375 84.74772552117338,66.60003662109375 84.74772552117338,55.20001220703125 " id="svg_561"/>
    </g>
   </g>
   <g id="svg_562">
    <g id="svg_563">
     <rect x="48.347737" y="54.000025" width="14.5" height="12.6" id="svg_564"/>
    </g>
   </g>
   <g id="svg_565">
    <g id="svg_566">
     <rect x="48.347737" y="43.200025" width="6.5" height="11.5" id="svg_567"/>
    </g>
   </g>
  </g>
 </g>
</svg>