<svg width="68.19999694824219" height="85.79999105175739" xmlns="http://www.w3.org/2000/svg">
 <style type="text/css">.st0{fill:#FAFAFA;}
	.st1{fill:#010202;}
	.st2{fill:#FFFFFF;}</style>

 <g>
  <title>background</title>
  <rect fill="none" id="canvas_background" height="402" width="582" y="-1" x="-1"/>
 </g>
 <g>
  <title>Layer 1</title>
  <g id="svg_473">
   <g id="XMLID_5_">
    <g id="svg_474">
     <path id="svg_475" d="m37,61.199988l0,-58.1l-17.4,0l-10.4,36.9l0.7,21.3l27.1,0l0,-0.1zm12.2,-28.1l0,-30l-9.6,0l0,30.2l9.6,-0.2zm2.8,-33.1l0,33.3l16.2,13.6l0,28.5l-68.2,0l0,-19.8l16.3,-55.5l35.7,0l0,-0.1z"/>
    </g>
   </g>
   <g id="svg_476">
    <circle id="svg_477" r="7.8" cy="77.799988" cx="16.2"/>
   </g>
   <g id="svg_478">
    <circle id="svg_479" r="7.8" cy="77.999988" cx="52.4"/>
   </g>
   <g id="svg_480">
    <g id="svg_481">
     <path id="svg_482" d="m51.4,61.199988c-0.3,0 -0.6,-0.1 -0.9,-0.1c-1.7,-0.4 -2.8,-1.9 -2.9,-3.6c0,-1.1 0,-2.2 0,-3.3c0,-0.6 0.4,-0.9 1,-1c0.1,0 0.3,0 0.4,0c0,-0.1 0,-0.2 0,-0.3c0,-1 0,-2 0,-3c0,-0.6 0.5,-1 1.1,-0.9c0.4,0.1 0.7,0.5 0.7,0.9c0,1 0,2 0,2.9c0,0.1 0,0.2 0,0.3c1.2,0 2.3,0 3.5,0c0,-0.1 0,-0.2 0,-0.3c0,-1 0,-2 0,-3c0,-0.6 0.5,-1 1,-0.9c0.4,0.1 0.7,0.4 0.7,0.9c0,1 0,2 0,3.1c0,0.1 0,0.2 0,0.3c0.2,0 0.3,0 0.4,0c0.6,0 1,0.4 1,0.9c0,1.2 0,2.5 0,3.7c-0.1,1.7 -1.7,3.2 -3.4,3.3c-0.1,0 -0.2,0 -0.3,0c0,0.7 0,1.4 0,2c0,0.6 0.4,0.8 1,0.8c1.1,-0.1 2.1,-0.4 2.9,-1.1c2.6,-1.9 4,-4.4 4.1,-7.6c0.1,-4.2 -2.9,-8 -7,-9c-5.1,-1.3 -10.3,2 -11.4,7.1c-0.8,3.9 1,7.8 4.4,9.9c0.3,0.2 0.6,0.4 0.9,0.6c0.2,0.2 0.4,0.3 0.5,0.6c0.4,0.6 0,1.3 -0.7,1.4c-0.3,0 -0.6,0 -0.8,-0.1c-3.5,-1.6 -5.7,-4.3 -6.5,-8.1c-1.3,-5.6 2,-11.4 7.5,-13.3c4.8,-1.6 9.9,0 12.9,4c1.6,2.1 2.4,4.6 2.3,7.3c-0.2,3.4 -1.5,6.3 -4.1,8.5c-1.5,1.3 -3.4,2 -5.4,2.1c-0.5,0 -1.1,0 -1.6,-0.1c-0.5,0 -0.8,-0.3 -1,-0.7c-0.3,-0.5 -0.4,-1 -0.4,-1.5c0,-0.8 0,-1.6 0,-2.5c0.1,0 0.1,-0.1 0.1,-0.2z" class="st2"/>
    </g>
   </g>
  </g>
 </g>
</svg>