<?xml version="1.0" encoding="utf-8"?>
<!-- Generator: Adobe Illustrator 22.0.1, SVG Export Plug-In . SVG Version: 6.00 Build 0)  -->
<svg version="1.1" id="Warstwa_1" xmlns="http://www.w3.org/2000/svg" xmlns:xlink="http://www.w3.org/1999/xlink" x="0px" y="0px"
	 viewBox="0 0 595.3 841.9" style="enable-background:new 0 0 595.3 841.9;" xml:space="preserve">
<style type="text/css">
	.st0{fill:#FFFFFF;}
</style>
<g>
	<g>
		<g>
			<rect x="51.6" y="153.8" width="108.3" height="8.3"/>
		</g>
	</g>
	<g>
		<g>
			<circle cx="64.7" cy="165" r="7"/>
		</g>
	</g>
	<g>
		<g>
			<circle cx="147.9" cy="165" r="7"/>
		</g>
	</g>
	<g id="XMLID_1_">
		<g>
			<g>
				<path d="M164.8,133.8v22.4h-41v-38h22.3L164.8,133.8z M133.7,135.2H158L144.3,123h-10.6V135.2z"/>
			</g>
		</g>
	</g>
	<g>
		<rect x="83.4" y="95.4" transform="matrix(0.5973 -0.802 0.802 0.5973 -72.2287 123.0405)" width="6" height="76"/>
	</g>
	<g>
		<rect x="49.1" y="130.4" transform="matrix(0.8089 -0.5879 0.5879 0.8089 -61.7012 77.0413)" width="77.2" height="6"/>
	</g>
	<g>
		<rect x="51.6" y="81.7" width="89.3" height="32.6"/>
	</g>
	<g>
		<path d="M168,114.8h-36.2v-23H168V114.8z M135.7,110.8H164v-15h-28.2V110.8z"/>
	</g>
</g>
<g>
	<g>
		<g>
			<rect x="305.3" y="155.4" width="117" height="8.4"/>
		</g>
	</g>
	<g>
		<g>
			<circle cx="320.2" cy="166.7" r="7.1"/>
		</g>
	</g>
	<g>
		<g>
			<circle cx="404.5" cy="166.7" r="7.1"/>
		</g>
	</g>
	<g>
		<path d="M309.2,157.5"/>
	</g>
	<g>
		<polygon points="382.6,141.3 377.6,141.3 377.6,127.1 343.2,127.1 343.2,122.1 382.6,122.1 		"/>
	</g>
	<g>
		<polygon points="418.8,157.9 413.8,157.9 413.8,143.8 379.3,143.8 379.3,138.8 418.8,138.8 		"/>
	</g>
	<g>
		<rect x="359.3" y="73.9" transform="matrix(0.4081 -0.9129 0.9129 0.4081 92.1749 409.3404)" width="5" height="119.4"/>
	</g>
	<g>
		<polygon points="309.8,155.4 304.8,155.4 304.8,94.2 346.7,94.2 346.7,124.6 341.7,124.6 341.7,99.2 309.8,99.2 		"/>
	</g>
</g>
<g>
	<g id="XMLID_5_">
		<g>
			<path d="M115.7,284.9v-58.1H91.3L85,263.8l3.6,21.2H115.7z M127.9,256.8l0-30h-9.6V257L127.9,256.8z M130.7,223.7V257l8.2,24.5
				v17.6H78.7v-19.8l9.2-55.5H130.7z"/>
		</g>
	</g>
	<g>
		<circle cx="90.9" cy="301.5" r="7.8"/>
	</g>
	<g>
		<circle cx="127.1" cy="301.7" r="7.8"/>
	</g>
	<g>
		<polygon points="77.3,306 45.8,306 45.8,301 72.3,301 72.3,222.3 77.3,222.3 		"/>
	</g>
	<g>
		<rect x="74.8" y="291.4" width="8.4" height="5"/>
	</g>
</g>
<g>
	<g>
		<g>
			<rect x="321.6" y="281.9" width="120.6" height="11"/>
		</g>
	</g>
	<g>
		<g>
			<circle cx="342.6" cy="296.6" r="9.2"/>
		</g>
	</g>
	<g>
		<g>
			<circle cx="426.3" cy="296.6" r="9.2"/>
		</g>
	</g>
	<g id="XMLID_2_">
		<g>
			<g>
				<path d="M448.5,255.4v29.6h-54.1v-50.2h29.5L448.5,255.4z M407.5,257.3h32.1l-18.1-16.2h-14V257.3z"/>
			</g>
		</g>
	</g>
	<g>
		<g>
			<path d="M301.2,245.4c4.8,0,9.6-0.1,14.4,0.1c2.4,0.1,4.2-0.4,5.4-2.7c0.5-1,1.5-1.8,2.3-2.7c2-2,4.2-3.1,7.2-3
				c8.2,0.1,16.4,0,24.6,0.1c6.4,0,10.4,4.1,10.4,10.5c0,8.5,0,17,0,25.5c0,6.3-4.1,10.3-10.4,10.4c-8,0-16-0.2-24,0.1
				c-3.7,0.1-6.4-1.3-8.7-4c-0.9-1.1-1.7-2.3-2.6-3.3c-0.4-0.4-0.9-0.9-1.4-1c-1.4-0.1-2.8,0-4.2,0c0,4,0,7.7,0,11.6
				c1.1,0.1,2.1,0.1,3.1,0.2c0,2.8,0,5.4,0,8c-7.2,0-14.2,0-21.3,0c0-2.7,0-5.3,0-8c1.1-0.1,2.1-0.1,3-0.2c0-6.8,0-13.3,0-19.9
				c-1.7,0-3.2,0-4.8,0c-0.1,1.1-0.1,2.1-0.2,3.1c-2.8,0-5.4,0-8,0c0-7.2,0-14.2,0-21.3c2.8,0,5.4,0,8.2,0c0,1.1,0,2.1,0,3.1
				c1.8,0,3.3,0,5,0c0-2.2,0-4.2,0-6.5C299.9,245.4,300.5,245.4,301.2,245.4z M302.4,248.8c0,12.7,0,25.3,0,38.1c2.7,0,5.3,0,8.2,0
				c0-8.7,0-17.5,0-26.3c1.2,0,2.1,0,3.3,0c0,3.7,0,7.5,0,11.4c1.2,0,2.1,0,3.2,0c0-7.7,0-15.3,0-23.1
				C312.2,248.8,307.4,248.8,302.4,248.8z M320.9,248.8c-0.3,0.4-0.2,1.2-0.2,1.8c0,6.3,0,12.5,0,18.8c0,1.6,0.3,3,1.3,4.3
				c1.6,2,3.2,4,4.8,6c0.1-0.1,0.3-0.2,0.4-0.3c0-12.7,0-25.3,0-38c-0.2-0.1-0.4-0.3-0.6-0.4C324.7,243.6,322.7,246.2,320.9,248.8z
				 M357.3,279.8c3-0.7,4.9-3,4.9-6.3c0.1-8.8,0.1-17.6,0-26.4c0-3.3-1.9-5.5-4.9-6.3C357.3,253.8,357.3,266.8,357.3,279.8z
				 M294.2,263.6c1.6,0,3.1,0,4.8,0c0-2.7,0-5.4,0-8.2c-1.6,0-3.1,0-4.8,0C294.2,258.2,294.2,260.9,294.2,263.6z M312.7,290.1
				c-4.1,0.1-8.2,0-12.4,0c-1.2,0-1.5,0.5-1.2,1.7c4.9,0,9.8,0,14.8,0C314.2,290.6,313.9,290.1,312.7,290.1z M290.7,252.3
				c-1.6-0.3-1.7-0.3-1.7,1c0,4.1,0,8.2,0,12.4c0,1.2,0.4,1.6,1.7,1.2C290.7,262,290.7,257.1,290.7,252.3z"/>
		</g>
	</g>
	<g>
		<g>
			<path class="st0" d="M335.9,273.5c-0.1,0-0.2-0.1-0.2-0.1c-1.6-0.4-2.6-1.7-2.6-3.3c0-5.1,0-10.1,0-15.2c0-0.2,0.1-0.5,0.1-0.7
				c0.1,0,0.1-0.1,0.2-0.1c-0.4-0.4-0.8-0.7-1.2-1.1c-0.4-0.4-0.4-0.7,0-1.1c1-1,1.9-1.9,2.9-2.9c0.4-0.4,0.7-0.5,1,0
				c0.6,0.9,1.5,1,2.5,1c0.8,0,1.4-0.2,1.9-0.8c0.6-0.5,1.2-1.1,1.8-1.6c0.5-0.4,1.2-0.7,1.8-1c1.7,0,3.5,0,5.2,0
				c0.1,0,0.1,0.1,0.2,0.1c1.6,0.4,2.6,1.6,2.6,3.3c0,6.7,0,13.3,0,20c0,1.2-0.5,2.2-1.5,2.8c-0.4,0.3-0.8,0.4-1.3,0.6
				C344.8,273.5,340.4,273.5,335.9,273.5z M351,260.1c0-3.3,0-6.6,0-9.9c0-1.4-0.9-2.3-2.3-2.3c-1.3,0-2.6,0-4,0
				c-0.6,0-1.1,0.2-1.6,0.6c-0.6,0.5-1.1,1-1.7,1.5c-0.9,0.9-2,1.3-3.3,1.3c-0.2,0-0.5,0.1-0.7,0.3c-1,1-2,2.1-3,3.1
				c-0.2,0.3-0.4,0.5-0.4,0.9c0,4.8,0,9.6,0,14.4c0,1.6,0.9,2.5,2.5,2.5c3.9,0,7.8,0,11.8,0c1.6,0,2.5-0.9,2.5-2.5
				C351,266.6,351,263.4,351,260.1z M333.9,253.1c0.8-0.8,1.6-1.6,2.3-2.3c-0.1-0.2-0.3-0.4-0.5-0.6c-0.8,0.8-1.6,1.6-2.3,2.3
				C333.5,252.8,333.7,253,333.9,253.1z"/>
		</g>
		<g>
			<path class="st0" d="M343.3,263c0.3,0.2,0.5,0.3,0.7,0.5c1.4,1.3,2.7,2.7,4,4c0.3,0.3,0.4,0.6,0.1,0.9c-0.3,0.3-0.6,0.2-0.9-0.1
				c-0.1-0.1-0.1-0.1-0.2-0.2c-1.3-1.3-2.6-2.6-4-4c-0.1-0.1-0.2-0.3-0.4-0.5c-0.2,0.2-0.3,0.3-0.5,0.4c-1.4,1.4-2.7,2.7-4.1,4.1
				c-0.1,0.1-0.2,0.3-0.3,0.3c-0.2,0-0.5,0-0.7-0.1c-0.1-0.1-0.1-0.4-0.1-0.6c0-0.1,0.2-0.3,0.3-0.4c1.3-1.3,2.7-2.7,4-4
				c0.1-0.1,0.3-0.2,0.5-0.3c-1.6-1.6-3.1-3-4.5-4.5c-0.1-0.1-0.2-0.2-0.3-0.3c-0.2-0.3-0.3-0.6,0-0.8c0.2-0.1,0.5-0.1,0.7,0
				c0.2,0.1,0.4,0.3,0.5,0.5c1.4,1.4,2.8,2.8,4.3,4.3c0.2-0.3,0.4-0.5,0.6-0.7c1.3-1.3,2.5-2.5,3.8-3.8c0.1-0.1,0.2-0.3,0.3-0.3
				c0.2,0,0.6-0.1,0.7,0c0.1,0.2,0.1,0.5,0.1,0.7c0,0.1-0.2,0.2-0.3,0.3C346.3,259.9,344.9,261.4,343.3,263z"/>
		</g>
		<g>
			<path class="st0" d="M347.1,250c-0.5,0-1.1,0-1.6,0c-0.4,0-0.6-0.2-0.6-0.6c0-0.4,0.3-0.6,0.6-0.6c1.1,0,2.2,0,3.2,0
				c0.4,0,0.6,0.2,0.6,0.6c0,0.4-0.3,0.5-0.6,0.5C348.1,250,347.6,250,347.1,250z"/>
		</g>
	</g>
	<g>
		<path d="M377.2,278.2c-0.5,0-3.5-0.1-5.9-2.5c-1.7-1.7-2.6-4.1-2.6-7.2c0-7.5,5.9-10,9-10.3l0.2,0h5.6c1.1-0.1,5.7-0.7,5.5-6.1
			c-0.2-5.6-4.9-6.6-5.9-6.7h-20.8v-4l21.1,0c3.2,0.4,9.2,3,9.5,10.6c0.3,7.7-6,10.1-9.3,10.2l-5.6,0c-0.8,0.1-5.2,0.9-5.2,6.3
			c0,1.9,0.5,3.4,1.4,4.3c1.3,1.3,3.1,1.3,3.1,1.3l0,0h22v4H377.2C377.3,278.2,377.2,278.2,377.2,278.2z"/>
	</g>
</g>
<g>
	<path d="M295.2,328.8h1.1v3.6h0c0.2-0.3,0.4-0.6,0.8-0.7c0.3-0.2,0.7-0.3,1.1-0.3c0.8,0,2,0.5,2,2.5v3.5h-1.1V334
		c0-0.9-0.3-1.7-1.3-1.7c-0.7,0-1.2,0.5-1.4,1.1c-0.1,0.1-0.1,0.3-0.1,0.5v3.5h-1.1V328.8z"/>
	<path d="M302.1,331.5l1.3,3.4c0.1,0.4,0.3,0.8,0.4,1.2h0c0.1-0.3,0.2-0.8,0.4-1.2l1.2-3.4h1.1l-1.6,4.1c-0.8,2-1.3,3-2,3.6
		c-0.5,0.5-1,0.6-1.3,0.7l-0.3-0.9c0.3-0.1,0.6-0.3,0.9-0.5c0.3-0.2,0.6-0.6,0.9-1.2c0-0.1,0.1-0.2,0.1-0.3c0-0.1,0-0.1-0.1-0.3
		l-2.1-5.3H302.1z"/>
	<path d="M312.3,328.8v7c0,0.5,0,1.1,0,1.5h-0.9l0-1h0c-0.3,0.6-1,1.1-2,1.1c-1.4,0-2.5-1.2-2.5-3c0-1.9,1.2-3.1,2.6-3.1
		c0.9,0,1.5,0.4,1.8,0.9h0v-3.5H312.3z M311.2,333.9c0-0.1,0-0.3,0-0.4c-0.2-0.7-0.7-1.2-1.5-1.2c-1.1,0-1.7,1-1.7,2.2
		c0,1.2,0.6,2.1,1.7,2.1c0.7,0,1.4-0.5,1.5-1.3c0-0.1,0-0.3,0-0.5V333.9z"/>
	<path d="M314,333.3c0-0.7,0-1.3,0-1.8h0.9l0,1.1h0c0.3-0.8,0.9-1.3,1.6-1.3c0.1,0,0.2,0,0.3,0v1c-0.1,0-0.2,0-0.4,0
		c-0.7,0-1.3,0.6-1.4,1.4c0,0.1,0,0.3,0,0.5v3.1h-1V333.3z"/>
	<path d="M321.1,337.3l-0.1-0.7h0c-0.3,0.5-0.9,0.9-1.8,0.9c-1.2,0-1.8-0.8-1.8-1.7c0-1.4,1.2-2.2,3.5-2.2v-0.1
		c0-0.5-0.1-1.3-1.3-1.3c-0.5,0-1.1,0.2-1.5,0.4l-0.2-0.7c0.5-0.3,1.2-0.5,1.9-0.5c1.8,0,2.2,1.2,2.2,2.4v2.2c0,0.5,0,1,0.1,1.4
		H321.1z M320.9,334.4c-1.2,0-2.5,0.2-2.5,1.3c0,0.7,0.5,1,1,1c0.8,0,1.2-0.5,1.4-1c0-0.1,0.1-0.2,0.1-0.3V334.4z"/>
	<path d="M323.7,333.1c0-0.6,0-1.1,0-1.6h0.9l0.1,1h0c0.3-0.6,1-1.1,1.9-1.1c0.8,0,2.1,0.5,2.1,2.5v3.5h-1.1V334
		c0-0.9-0.3-1.7-1.3-1.7c-0.7,0-1.2,0.5-1.4,1.1c0,0.1-0.1,0.3-0.1,0.5v3.5h-1.1V333.1z"/>
	<path d="M331.5,329.9v1.7h1.5v0.8h-1.5v3.1c0,0.7,0.2,1.1,0.8,1.1c0.3,0,0.5,0,0.6-0.1l0,0.8c-0.2,0.1-0.5,0.1-0.9,0.1
		c-0.5,0-0.9-0.2-1.1-0.4c-0.3-0.3-0.4-0.8-0.4-1.5v-3.2h-0.9v-0.8h0.9v-1.4L331.5,329.9z"/>
	<path d="M336.8,333.3c0-0.7,0-1.3,0-1.8h0.9l0,1.1h0c0.3-0.8,0.9-1.3,1.6-1.3c0.1,0,0.2,0,0.3,0v1c-0.1,0-0.2,0-0.4,0
		c-0.7,0-1.3,0.6-1.4,1.4c0,0.1,0,0.3,0,0.5v3.1h-1V333.3z"/>
	<path d="M341.2,334.6c0,1.4,0.9,2,2,2c0.8,0,1.2-0.1,1.6-0.3l0.2,0.8c-0.4,0.2-1,0.4-1.9,0.4c-1.8,0-2.9-1.2-2.9-2.9
		c0-1.8,1-3.1,2.7-3.1c1.9,0,2.4,1.7,2.4,2.7c0,0.2,0,0.4,0,0.5H341.2z M344.3,333.9c0-0.7-0.3-1.7-1.5-1.7c-1.1,0-1.5,1-1.6,1.7
		H344.3z"/>
	<path d="M346.7,337.3v-5h-0.8v-0.8h0.8v-0.3c0-0.8,0.2-1.6,0.7-2c0.4-0.4,0.9-0.5,1.4-0.5c0.4,0,0.7,0.1,0.9,0.2l-0.1,0.8
		c-0.2-0.1-0.4-0.1-0.7-0.1c-0.9,0-1.1,0.8-1.1,1.7v0.3h1.4v0.8h-1.4v5H346.7z"/>
	<path d="M355,335.8c0,0.6,0,1.1,0,1.6h-0.9l-0.1-0.9h0c-0.3,0.5-0.9,1.1-1.9,1.1c-0.9,0-2-0.5-2-2.5v-3.4h1.1v3.2
		c0,1.1,0.3,1.8,1.3,1.8c0.7,0,1.2-0.5,1.4-1c0.1-0.2,0.1-0.3,0.1-0.5v-3.6h1.1V335.8z"/>
	<path d="M357.3,334.6c0,1.4,0.9,2,2,2c0.8,0,1.2-0.1,1.6-0.3l0.2,0.8c-0.4,0.2-1,0.4-1.9,0.4c-1.8,0-2.9-1.2-2.9-2.9
		c0-1.8,1-3.1,2.7-3.1c1.9,0,2.4,1.7,2.4,2.7c0,0.2,0,0.4,0,0.5H357.3z M360.4,333.9c0-0.7-0.3-1.7-1.5-1.7c-1.1,0-1.5,1-1.6,1.7
		H360.4z"/>
	<path d="M362.7,328.8h1.1v8.5h-1.1V328.8z"/>
	<path d="M366.2,334.6c0,1.4,0.9,2,2,2c0.8,0,1.2-0.1,1.6-0.3l0.2,0.8c-0.4,0.2-1,0.4-1.9,0.4c-1.8,0-2.9-1.2-2.9-2.9
		c0-1.8,1-3.1,2.7-3.1c1.9,0,2.4,1.7,2.4,2.7c0,0.2,0,0.4,0,0.5H366.2z M369.2,333.9c0-0.7-0.3-1.7-1.5-1.7c-1.1,0-1.5,1-1.6,1.7
		H369.2z"/>
	<path d="M371.6,333.3c0-0.7,0-1.3,0-1.8h0.9l0,1.1h0c0.3-0.8,0.9-1.3,1.6-1.3c0.1,0,0.2,0,0.3,0v1c-0.1,0-0.2,0-0.4,0
		c-0.7,0-1.3,0.6-1.4,1.4c0,0.1,0,0.3,0,0.5v3.1h-1V333.3z"/>
</g>
<g>
	<path d="M47.3,190.5c-0.3,0.1-0.9,0.3-1.7,0.3c-1.8,0-2.9-1.2-2.9-3c0-1.8,1.2-3.1,3.1-3.1c0.6,0,1.2,0.2,1.5,0.3l-0.2,0.8
		c-0.3-0.1-0.6-0.3-1.2-0.3c-1.3,0-2.1,1-2.1,2.2c0,1.3,0.9,2.2,2,2.2c0.6,0,1-0.2,1.3-0.3L47.3,190.5z"/>
	<path d="M51.8,190.7l-0.1-0.7h0c-0.3,0.5-0.9,0.9-1.8,0.9c-1.2,0-1.8-0.8-1.8-1.7c0-1.4,1.2-2.2,3.5-2.2v-0.1
		c0-0.5-0.1-1.3-1.3-1.3c-0.5,0-1.1,0.2-1.5,0.4l-0.2-0.7c0.5-0.3,1.2-0.5,1.9-0.5c1.8,0,2.2,1.2,2.2,2.4v2.2c0,0.5,0,1,0.1,1.4
		H51.8z M51.6,187.7c-1.2,0-2.5,0.2-2.5,1.3c0,0.7,0.5,1,1,1c0.8,0,1.2-0.5,1.4-1c0-0.1,0.1-0.2,0.1-0.3V187.7z"/>
	<path d="M55.6,183.2v1.7h1.5v0.8h-1.5v3.1c0,0.7,0.2,1.1,0.8,1.1c0.3,0,0.5,0,0.6-0.1l0,0.8c-0.2,0.1-0.5,0.1-0.9,0.1
		c-0.5,0-0.9-0.2-1.1-0.4c-0.3-0.3-0.4-0.8-0.4-1.5v-3.2h-0.9v-0.8h0.9v-1.4L55.6,183.2z"/>
	<path d="M58.8,188c0,1.4,0.9,2,2,2c0.8,0,1.2-0.1,1.6-0.3l0.2,0.8c-0.4,0.2-1,0.4-1.9,0.4c-1.8,0-2.9-1.2-2.9-2.9
		c0-1.8,1-3.1,2.7-3.1c1.9,0,2.4,1.7,2.4,2.7c0,0.2,0,0.4,0,0.5H58.8z M61.9,187.2c0-0.7-0.3-1.7-1.5-1.7c-1.1,0-1.5,1-1.6,1.7H61.9
		z"/>
	<path d="M64.2,186.7c0-0.7,0-1.3,0-1.8h0.9l0,1.1h0c0.3-0.8,0.9-1.3,1.6-1.3c0.1,0,0.2,0,0.3,0v1c-0.1,0-0.2,0-0.4,0
		c-0.7,0-1.3,0.6-1.4,1.4c0,0.1,0,0.3,0,0.5v3.1h-1V186.7z"/>
	<path d="M69.4,183.2c0,0.4-0.3,0.6-0.7,0.6c-0.4,0-0.6-0.3-0.6-0.6c0-0.4,0.3-0.7,0.7-0.7C69.1,182.6,69.4,182.9,69.4,183.2z
		 M68.2,190.7v-5.8h1.1v5.8H68.2z"/>
	<path d="M71,186.4c0-0.6,0-1.1,0-1.6h0.9l0.1,1h0c0.3-0.6,1-1.1,1.9-1.1c0.8,0,2.1,0.5,2.1,2.5v3.5h-1.1v-3.3
		c0-0.9-0.3-1.7-1.3-1.7c-0.7,0-1.2,0.5-1.4,1.1c0,0.1-0.1,0.3-0.1,0.5v3.5H71V186.4z"/>
	<path d="M82.7,184.9c0,0.4,0,0.9,0,1.6v3.4c0,1.3-0.3,2.1-0.8,2.7c-0.6,0.5-1.4,0.7-2.1,0.7c-0.7,0-1.5-0.2-1.9-0.5l0.3-0.8
		c0.4,0.2,1,0.5,1.7,0.5c1.1,0,1.9-0.6,1.9-2v-0.6h0c-0.3,0.5-0.9,1-1.8,1c-1.4,0-2.5-1.2-2.5-2.8c0-2,1.3-3.1,2.6-3.1
		c1,0,1.6,0.5,1.8,1h0l0-0.9H82.7z M81.6,187.2c0-0.2,0-0.3-0.1-0.5c-0.2-0.6-0.7-1.1-1.5-1.1c-1,0-1.7,0.9-1.7,2.2
		c0,1.1,0.6,2.1,1.7,2.1c0.6,0,1.2-0.4,1.5-1.1c0.1-0.2,0.1-0.4,0.1-0.6V187.2z"/>
	<path d="M87.3,184.9l1.1,3.3c0.2,0.5,0.3,1,0.5,1.5h0c0.1-0.5,0.3-1,0.5-1.5l1.1-3.3h1.1l-2.3,5.8h-1l-2.2-5.8H87.3z"/>
	<path d="M93.2,188c0,1.4,0.9,2,2,2c0.8,0,1.2-0.1,1.6-0.3l0.2,0.8c-0.4,0.2-1,0.4-1.9,0.4c-1.8,0-2.9-1.2-2.9-2.9
		c0-1.8,1-3.1,2.7-3.1c1.9,0,2.4,1.7,2.4,2.7c0,0.2,0,0.4,0,0.5H93.2z M96.3,187.2c0-0.7-0.3-1.7-1.5-1.7c-1.1,0-1.5,1-1.6,1.7H96.3
		z"/>
	<path d="M98.6,182.2h1.1v3.6h0c0.2-0.3,0.4-0.6,0.8-0.7c0.3-0.2,0.7-0.3,1.1-0.3c0.8,0,2,0.5,2,2.5v3.5h-1.1v-3.3
		c0-0.9-0.3-1.7-1.3-1.7c-0.7,0-1.2,0.5-1.4,1.1c-0.1,0.1-0.1,0.3-0.1,0.5v3.5h-1.1V182.2z"/>
	<path d="M106.4,183.2c0,0.4-0.3,0.6-0.7,0.6c-0.4,0-0.6-0.3-0.6-0.6c0-0.4,0.3-0.7,0.7-0.7C106.2,182.6,106.4,182.9,106.4,183.2z
		 M105.2,190.7v-5.8h1.1v5.8H105.2z"/>
	<path d="M112.2,190.5c-0.3,0.1-0.9,0.3-1.7,0.3c-1.8,0-2.9-1.2-2.9-3c0-1.8,1.2-3.1,3.1-3.1c0.6,0,1.2,0.2,1.5,0.3l-0.2,0.8
		c-0.3-0.1-0.6-0.3-1.2-0.3c-1.3,0-2.1,1-2.1,2.2c0,1.3,0.9,2.2,2,2.2c0.6,0,1-0.2,1.3-0.3L112.2,190.5z"/>
	<path d="M113.4,182.2h1.1v8.5h-1.1V182.2z"/>
	<path d="M116.9,188c0,1.4,0.9,2,2,2c0.8,0,1.2-0.1,1.6-0.3l0.2,0.8c-0.4,0.2-1,0.4-1.9,0.4c-1.8,0-2.9-1.2-2.9-2.9
		c0-1.8,1-3.1,2.7-3.1c1.9,0,2.4,1.7,2.4,2.7c0,0.2,0,0.4,0,0.5H116.9z M119.9,187.2c0-0.7-0.3-1.7-1.5-1.7c-1.1,0-1.5,1-1.6,1.7
		H119.9z"/>
</g>
<g>
	<path d="M310.4,193.3l-0.1-0.7h0c-0.3,0.5-0.9,0.9-1.8,0.9c-1.2,0-1.8-0.8-1.8-1.7c0-1.4,1.2-2.2,3.5-2.2v-0.1
		c0-0.5-0.1-1.3-1.3-1.3c-0.5,0-1.1,0.2-1.5,0.4l-0.2-0.7c0.5-0.3,1.2-0.5,1.9-0.5c1.8,0,2.2,1.2,2.2,2.4v2.2c0,0.5,0,1,0.1,1.4
		H310.4z M310.3,190.4c-1.2,0-2.5,0.2-2.5,1.3c0,0.7,0.5,1,1,1c0.8,0,1.2-0.5,1.4-1c0-0.1,0.1-0.2,0.1-0.3V190.4z"/>
	<path d="M314.2,185.9c0,0.4-0.3,0.6-0.7,0.6c-0.4,0-0.6-0.3-0.6-0.6c0-0.4,0.3-0.7,0.7-0.7C313.9,185.2,314.2,185.5,314.2,185.9z
		 M313,193.3v-5.8h1.1v5.8H313z"/>
	<path d="M315.8,189.3c0-0.7,0-1.3,0-1.8h0.9l0,1.1h0c0.3-0.8,0.9-1.3,1.6-1.3c0.1,0,0.2,0,0.3,0v1c-0.1,0-0.2,0-0.4,0
		c-0.7,0-1.3,0.6-1.4,1.4c0,0.1,0,0.3,0,0.5v3.1h-1V189.3z"/>
	<path d="M326.4,193.1c-0.3,0.1-0.9,0.3-1.7,0.3c-1.8,0-2.9-1.2-2.9-3c0-1.8,1.2-3.1,3.1-3.1c0.6,0,1.2,0.2,1.5,0.3l-0.2,0.8
		c-0.3-0.1-0.6-0.3-1.2-0.3c-1.3,0-2.1,1-2.1,2.2c0,1.3,0.9,2.2,2,2.2c0.6,0,1-0.2,1.3-0.3L326.4,193.1z"/>
	<path d="M327.6,189.3c0-0.7,0-1.3,0-1.8h0.9l0,1.1h0c0.3-0.8,0.9-1.3,1.6-1.3c0.1,0,0.2,0,0.3,0v1c-0.1,0-0.2,0-0.4,0
		c-0.7,0-1.3,0.6-1.4,1.4c0,0.1,0,0.3,0,0.5v3.1h-1V189.3z"/>
	<path d="M334.7,193.3l-0.1-0.7h0c-0.3,0.5-0.9,0.9-1.8,0.9c-1.2,0-1.8-0.8-1.8-1.7c0-1.4,1.2-2.2,3.5-2.2v-0.1
		c0-0.5-0.1-1.3-1.3-1.3c-0.5,0-1.1,0.2-1.5,0.4l-0.2-0.7c0.5-0.3,1.2-0.5,1.9-0.5c1.8,0,2.2,1.2,2.2,2.4v2.2c0,0.5,0,1,0.1,1.4
		H334.7z M334.6,190.4c-1.2,0-2.5,0.2-2.5,1.3c0,0.7,0.5,1,1,1c0.8,0,1.2-0.5,1.4-1c0-0.1,0.1-0.2,0.1-0.3V190.4z"/>
	<path d="M337.4,193.3v-5h-0.8v-0.8h0.8v-0.3c0-0.8,0.2-1.6,0.7-2c0.4-0.4,0.9-0.5,1.4-0.5c0.4,0,0.7,0.1,0.9,0.2l-0.1,0.8
		c-0.2-0.1-0.4-0.1-0.7-0.1c-0.9,0-1.1,0.8-1.1,1.7v0.3h1.4v0.8h-1.4v5H337.4z"/>
	<path d="M342.2,185.9v1.7h1.5v0.8h-1.5v3.1c0,0.7,0.2,1.1,0.8,1.1c0.3,0,0.5,0,0.6-0.1l0,0.8c-0.2,0.1-0.5,0.1-0.9,0.1
		c-0.5,0-0.9-0.2-1.1-0.4c-0.3-0.3-0.4-0.8-0.4-1.5v-3.2h-0.9v-0.8h0.9v-1.4L342.2,185.9z"/>
	<path d="M347.3,192.3c0.3,0.2,0.9,0.4,1.4,0.4c0.8,0,1.1-0.4,1.1-0.9c0-0.5-0.3-0.8-1.1-1.1c-1-0.4-1.5-0.9-1.5-1.6
		c0-0.9,0.8-1.7,2-1.7c0.6,0,1.1,0.2,1.4,0.4l-0.3,0.8c-0.2-0.1-0.6-0.3-1.2-0.3c-0.6,0-1,0.4-1,0.8c0,0.5,0.3,0.7,1.1,1
		c1,0.4,1.5,0.9,1.5,1.8c0,1-0.8,1.7-2.2,1.7c-0.6,0-1.2-0.2-1.6-0.4L347.3,192.3z"/>
	<path d="M352.8,190.6c0,1.4,0.9,2,2,2c0.8,0,1.2-0.1,1.6-0.3l0.2,0.8c-0.4,0.2-1,0.4-1.9,0.4c-1.8,0-2.9-1.2-2.9-2.9
		c0-1.8,1-3.1,2.7-3.1c1.9,0,2.4,1.7,2.4,2.7c0,0.2,0,0.4,0,0.5H352.8z M355.9,189.9c0-0.7-0.3-1.7-1.5-1.7c-1.1,0-1.5,1-1.6,1.7
		H355.9z"/>
	<path d="M358.2,189.3c0-0.7,0-1.3,0-1.8h0.9l0,1.1h0c0.3-0.8,0.9-1.3,1.6-1.3c0.1,0,0.2,0,0.3,0v1c-0.1,0-0.2,0-0.4,0
		c-0.7,0-1.3,0.6-1.4,1.4c0,0.1,0,0.3,0,0.5v3.1h-1V189.3z"/>
	<path d="M362.8,187.5l1.1,3.3c0.2,0.5,0.3,1,0.5,1.5h0c0.1-0.5,0.3-1,0.5-1.5l1.1-3.3h1.1l-2.3,5.8h-1l-2.2-5.8H362.8z"/>
	<path d="M369.4,185.9c0,0.4-0.3,0.6-0.7,0.6c-0.4,0-0.6-0.3-0.6-0.6c0-0.4,0.3-0.7,0.7-0.7C369.1,185.2,369.4,185.5,369.4,185.9z
		 M368.2,193.3v-5.8h1.1v5.8H368.2z"/>
	<path d="M375.1,193.1c-0.3,0.1-0.9,0.3-1.7,0.3c-1.8,0-2.9-1.2-2.9-3c0-1.8,1.2-3.1,3.1-3.1c0.6,0,1.2,0.2,1.5,0.3l-0.2,0.8
		c-0.3-0.1-0.6-0.3-1.2-0.3c-1.3,0-2.1,1-2.1,2.2c0,1.3,0.9,2.2,2,2.2c0.6,0,1-0.2,1.3-0.3L375.1,193.1z"/>
	<path d="M376.9,190.6c0,1.4,0.9,2,2,2c0.8,0,1.2-0.1,1.6-0.3l0.2,0.8c-0.4,0.2-1,0.4-1.9,0.4c-1.8,0-2.9-1.2-2.9-2.9
		c0-1.8,1-3.1,2.7-3.1c1.9,0,2.4,1.7,2.4,2.7c0,0.2,0,0.4,0,0.5H376.9z M380,189.9c0-0.7-0.3-1.7-1.5-1.7c-1.1,0-1.5,1-1.6,1.7H380z
		"/>
	<path d="M384.7,192.3c0.3,0.2,0.9,0.4,1.4,0.4c0.8,0,1.1-0.4,1.1-0.9c0-0.5-0.3-0.8-1.1-1.1c-1-0.4-1.5-0.9-1.5-1.6
		c0-0.9,0.8-1.7,2-1.7c0.6,0,1.1,0.2,1.4,0.4l-0.3,0.8c-0.2-0.1-0.6-0.3-1.2-0.3c-0.6,0-1,0.4-1,0.8c0,0.5,0.3,0.7,1.1,1
		c1,0.4,1.5,0.9,1.5,1.8c0,1-0.8,1.7-2.2,1.7c-0.6,0-1.2-0.2-1.6-0.4L384.7,192.3z"/>
	<path d="M390.9,185.9v1.7h1.5v0.8h-1.5v3.1c0,0.7,0.2,1.1,0.8,1.1c0.3,0,0.5,0,0.6-0.1l0,0.8c-0.2,0.1-0.5,0.1-0.9,0.1
		c-0.5,0-0.9-0.2-1.1-0.4c-0.3-0.3-0.4-0.8-0.4-1.5v-3.2H389v-0.8h0.9v-1.4L390.9,185.9z"/>
	<path d="M396.8,193.3l-0.1-0.7h0c-0.3,0.5-0.9,0.9-1.8,0.9c-1.2,0-1.8-0.8-1.8-1.7c0-1.4,1.2-2.2,3.5-2.2v-0.1
		c0-0.5-0.1-1.3-1.3-1.3c-0.5,0-1.1,0.2-1.5,0.4l-0.2-0.7c0.5-0.3,1.2-0.5,1.9-0.5c1.8,0,2.2,1.2,2.2,2.4v2.2c0,0.5,0,1,0.1,1.4
		H396.8z M396.7,190.4c-1.2,0-2.5,0.2-2.5,1.3c0,0.7,0.5,1,1,1c0.8,0,1.2-0.5,1.4-1c0-0.1,0.1-0.2,0.1-0.3V190.4z"/>
	<path d="M400.6,185.9c0,0.4-0.3,0.6-0.7,0.6c-0.4,0-0.6-0.3-0.6-0.6c0-0.4,0.3-0.7,0.7-0.7C400.3,185.2,400.6,185.5,400.6,185.9z
		 M399.4,193.3v-5.8h1.1v5.8H399.4z"/>
	<path d="M402.2,189.3c0-0.7,0-1.3,0-1.8h0.9l0,1.1h0c0.3-0.8,0.9-1.3,1.6-1.3c0.1,0,0.2,0,0.3,0v1c-0.1,0-0.2,0-0.4,0
		c-0.7,0-1.3,0.6-1.4,1.4c0,0.1,0,0.3,0,0.5v3.1h-1V189.3z"/>
	<path d="M406,192.3c0.3,0.2,0.9,0.4,1.4,0.4c0.8,0,1.1-0.4,1.1-0.9c0-0.5-0.3-0.8-1.1-1.1c-1-0.4-1.5-0.9-1.5-1.6
		c0-0.9,0.8-1.7,2-1.7c0.6,0,1.1,0.2,1.4,0.4l-0.3,0.8c-0.2-0.1-0.6-0.3-1.2-0.3c-0.6,0-1,0.4-1,0.8c0,0.5,0.3,0.7,1.1,1
		c1,0.4,1.5,0.9,1.5,1.8c0,1-0.8,1.7-2.2,1.7c-0.6,0-1.2-0.2-1.6-0.4L406,192.3z"/>
</g>
<g>
	<path d="M50,342.7v-5h-0.8v-0.8H50v-0.3c0-0.8,0.2-1.6,0.7-2c0.4-0.4,0.9-0.5,1.4-0.5c0.4,0,0.7,0.1,0.9,0.2l-0.1,0.8
		c-0.2-0.1-0.4-0.1-0.7-0.1c-0.9,0-1.1,0.8-1.1,1.7v0.3h1.4v0.8H51v5H50z"/>
	<path d="M58.5,339.7c0,2.1-1.5,3.1-2.9,3.1c-1.6,0-2.8-1.2-2.8-3c0-1.9,1.3-3.1,2.9-3.1C57.3,336.7,58.5,337.9,58.5,339.7z
		 M53.9,339.8c0,1.3,0.7,2.2,1.8,2.2c1,0,1.8-0.9,1.8-2.3c0-1-0.5-2.2-1.7-2.2C54.4,337.5,53.9,338.7,53.9,339.8z"/>
	<path d="M59.8,338.7c0-0.7,0-1.3,0-1.8h0.9l0,1.1h0c0.3-0.8,0.9-1.3,1.6-1.3c0.1,0,0.2,0,0.3,0v1c-0.1,0-0.2,0-0.4,0
		c-0.7,0-1.3,0.6-1.4,1.4c0,0.1,0,0.3,0,0.5v3.1h-1V338.7z"/>
	<path d="M64.8,339.5L64.8,339.5c0.2-0.2,0.4-0.5,0.5-0.7l1.7-2h1.3l-2.2,2.4l2.6,3.4h-1.3l-2-2.8l-0.5,0.6v2.2h-1v-8.5h1V339.5z"/>
	<path d="M69.6,334.2h1.1v8.5h-1.1V334.2z"/>
	<path d="M73.6,335.2c0,0.4-0.3,0.6-0.7,0.6c-0.4,0-0.6-0.3-0.6-0.6c0-0.4,0.3-0.7,0.7-0.7C73.4,334.6,73.6,334.9,73.6,335.2z
		 M72.4,342.7v-5.8h1.1v5.8H72.4z"/>
	<path d="M75.4,342.7v-5h-0.8v-0.8h0.8v-0.3c0-0.8,0.2-1.6,0.7-2c0.4-0.4,0.9-0.5,1.4-0.5c0.4,0,0.7,0.1,0.9,0.2l-0.1,0.8
		c-0.2-0.1-0.4-0.1-0.7-0.1c-0.9,0-1.1,0.8-1.1,1.7v0.3h1.4v0.8h-1.4v5H75.4z"/>
	<path d="M80.2,335.2v1.7h1.5v0.8h-1.5v3.1c0,0.7,0.2,1.1,0.8,1.1c0.3,0,0.5,0,0.6-0.1l0,0.8c-0.2,0.1-0.5,0.1-0.9,0.1
		c-0.5,0-0.9-0.2-1.1-0.4c-0.3-0.3-0.4-0.8-0.4-1.5v-3.2h-0.9v-0.8h0.9v-1.4L80.2,335.2z"/>
	<path d="M83.4,340c0,1.4,0.9,2,2,2c0.8,0,1.2-0.1,1.6-0.3l0.2,0.8c-0.4,0.2-1,0.4-1.9,0.4c-1.8,0-2.9-1.2-2.9-2.9
		c0-1.8,1-3.1,2.7-3.1c1.9,0,2.4,1.7,2.4,2.7c0,0.2,0,0.4,0,0.5H83.4z M86.5,339.2c0-0.7-0.3-1.7-1.5-1.7c-1.1,0-1.5,1-1.6,1.7H86.5
		z"/>
	<path d="M88.8,338.7c0-0.7,0-1.3,0-1.8h0.9l0,1.1h0c0.3-0.8,0.9-1.3,1.6-1.3c0.1,0,0.2,0,0.3,0v1c-0.1,0-0.2,0-0.4,0
		c-0.7,0-1.3,0.6-1.4,1.4c0,0.1,0,0.3,0,0.5v3.1h-1V338.7z"/>
</g>
<g>
	<g>
		<g>
			<rect x="36.6" y="439.6" width="183.7" height="11"/>
		</g>
	</g>
	<g>
		<g>
			<circle cx="120.7" cy="454.4" r="9.2"/>
		</g>
	</g>
	<g>
		<g>
			<circle cx="204.4" cy="454.4" r="9.2"/>
		</g>
	</g>
	<g id="XMLID_3_">
		<g>
			<g>
				<path d="M226.6,413.1v29.6h-54.1v-50.2H202L226.6,413.1z M185.6,415h32.1l-18.1-16.2h-14V415z"/>
			</g>
		</g>
	</g>
	<g>
		<g>
			<circle cx="68" cy="454.4" r="9.2"/>
		</g>
	</g>
	<g>
		<path d="M152.2,439.6H52.8c-8.9,0-16.2-7.3-16.2-16.2v-14.7c0-8.9,7.3-16.2,16.2-16.2h99.4c8.9,0,16.2,7.3,16.2,16.2v14.7
			C168.5,432.3,161.2,439.6,152.2,439.6z"/>
	</g>
	<g>
		<g>
			<path class="st0" d="M96.9,429.6c-0.1,0-0.1-0.1-0.2-0.1c-1.5-0.4-2.5-1.7-2.5-3.3c0-5.1,0-10.1,0-15.2c0-0.2,0.1-0.5,0.1-0.7
				c0,0,0.1-0.1,0.1-0.1c-0.4-0.4-0.8-0.7-1.2-1.1c-0.4-0.4-0.4-0.7,0-1.1c0.9-1,1.9-1.9,2.8-2.9c0.4-0.4,0.7-0.5,1,0
				c0.6,0.9,1.4,1,2.4,1c0.7,0,1.3-0.2,1.9-0.8c0.6-0.5,1.1-1.1,1.7-1.6c0.5-0.4,1.1-0.7,1.7-1c1.7,0,3.4,0,5.1,0
				c0.1,0,0.1,0.1,0.2,0.1c1.6,0.4,2.5,1.6,2.5,3.3c0,6.7,0,13.3,0,20c0,1.2-0.5,2.2-1.5,2.8c-0.4,0.2-0.8,0.4-1.2,0.6
				C105.5,429.6,101.2,429.6,96.9,429.6z M111.4,416.2c0-3.3,0-6.6,0-9.9c0-1.4-0.9-2.3-2.2-2.3c-1.3,0-2.6,0-3.8,0
				c-0.6,0-1.1,0.2-1.5,0.6c-0.5,0.5-1.1,1-1.6,1.5c-0.9,0.9-1.9,1.3-3.1,1.3c-0.2,0-0.5,0.1-0.6,0.3c-1,1-1.9,2.1-2.9,3.1
				c-0.2,0.3-0.3,0.5-0.3,0.9c0,4.8,0,9.6,0,14.4c0,1.6,0.8,2.5,2.4,2.5c3.8,0,7.6,0,11.4,0c1.6,0,2.4-0.9,2.4-2.5
				C111.4,422.7,111.4,419.5,111.4,416.2z M94.9,409.3c0.8-0.8,1.5-1.6,2.2-2.3c-0.1-0.2-0.3-0.4-0.5-0.6c-0.8,0.8-1.5,1.6-2.2,2.3
				C94.6,408.9,94.8,409.1,94.9,409.3z"/>
		</g>
		<g>
			<path class="st0" d="M104,419.1c0.2,0.2,0.5,0.3,0.7,0.5c1.3,1.3,2.6,2.7,3.9,4c0.3,0.3,0.4,0.6,0.1,0.9
				c-0.3,0.3-0.6,0.2-0.8-0.1c-0.1-0.1-0.1-0.1-0.2-0.2c-1.3-1.3-2.6-2.6-3.8-4c-0.1-0.1-0.2-0.3-0.4-0.5c-0.2,0.2-0.3,0.3-0.4,0.4
				c-1.3,1.4-2.6,2.7-3.9,4.1c-0.1,0.1-0.2,0.3-0.3,0.3c-0.2,0-0.5,0-0.7-0.1c-0.1-0.1-0.1-0.4-0.1-0.6c0-0.1,0.2-0.3,0.3-0.4
				c1.3-1.3,2.6-2.7,3.9-4c0.1-0.1,0.3-0.2,0.5-0.3c-1.5-1.6-3-3-4.4-4.5c-0.1-0.1-0.2-0.2-0.3-0.3c-0.2-0.3-0.3-0.6,0-0.8
				c0.2-0.1,0.5-0.1,0.7,0c0.2,0.1,0.3,0.3,0.5,0.5c1.3,1.4,2.7,2.8,4.1,4.3c0.2-0.3,0.4-0.5,0.6-0.7c1.2-1.3,2.4-2.5,3.6-3.8
				c0.1-0.1,0.2-0.3,0.3-0.3c0.2,0,0.6-0.1,0.7,0c0.1,0.2,0.1,0.5,0.1,0.7c0,0.1-0.2,0.2-0.3,0.3C107,416,105.6,417.5,104,419.1z"/>
		</g>
		<g>
			<path class="st0" d="M107.7,406.2c-0.5,0-1,0-1.6,0c-0.4,0-0.6-0.2-0.6-0.6c0-0.4,0.2-0.6,0.6-0.6c1,0,2.1,0,3.1,0
				c0.3,0,0.6,0.2,0.6,0.6c0,0.4-0.3,0.5-0.6,0.5C108.7,406.2,108.2,406.2,107.7,406.2z"/>
		</g>
	</g>
</g>
<g>
	<g>
		<path d="M405.3,468h-68.5l33.1-55.8L405.3,468z M343.8,464H398l-28-44.1L343.8,464z"/>
	</g>
	<g>
		<rect x="368.3" y="390" width="4" height="64.4"/>
	</g>
	<g>
		<rect x="363.3" y="388" width="14.7" height="4"/>
	</g>
	<g>
		<rect x="343.8" y="466" width="3" height="7"/>
	</g>
	<g>
		<rect x="339.3" y="471" width="12.2" height="4"/>
	</g>
	<g>
		<rect x="395.8" y="466" width="3" height="7"/>
	</g>
	<g>
		<rect x="391.3" y="471" width="12.2" height="4"/>
	</g>
</g>
</svg>
