<?xml version="1.0" encoding="utf-8"?>
<!-- Generator: Adobe Illustrator 22.0.1, SVG Export Plug-In . SVG Version: 6.00 Build 0)  -->
<svg version="1.1" id="Warstwa_1" xmlns="http://www.w3.org/2000/svg" xmlns:xlink="http://www.w3.org/1999/xlink" x="0px" y="0px"
	 viewBox="0 0 595.3 841.9" style="enable-background:new 0 0 595.3 841.9;" xml:space="preserve">
<style type="text/css">
	.st0{fill:#FAFAFA;}
	.st1{fill:#010202;}
	.st2{fill:#FFFFFF;}
</style>
<g>
	<g>
		<g>
			<rect x="489.1" y="91.5" width="81.4" height="7.4"/>
		</g>
	</g>
	<g>
		<g>
			<circle cx="501" cy="101.5" r="6.2"/>
		</g>
	</g>
	<g>
		<g>
			<circle cx="561" cy="101.5" r="6.2"/>
		</g>
	</g>
	<g id="XMLID_1_">
		<g>
			<g>
				<path d="M574.8,73.6v20h-36.5V59.7h19.9L574.8,73.6z M547.2,74.9h21.7L556.6,64h-9.4V74.9z"/>
			</g>
		</g>
	</g>
	<g>
		<g>
			<rect x="505.8" y="73.1" transform="matrix(0.5855 -0.8107 0.8107 0.5855 140.1595 448.2067)" width="5.2" height="27.9"/>
		</g>
	</g>
	<g>
		<g>
			<rect x="476.4" y="64" transform="matrix(0.894 -0.448 0.448 0.894 25.6609 241.7633)" width="95" height="5.2"/>
		</g>
	</g>
	<g>
		<g>
			<polygon points="480.5,86.9 474.8,75.4 560.5,32.9 566.2,44.3 563.5,45.7 559.2,36.9 478.8,76.8 483.1,85.6 			"/>
		</g>
	</g>
</g>
<g>
	<g>
		<g>
			<rect x="269.9" y="226.8" width="92.1" height="6.5"/>
		</g>
	</g>
	<g>
		<g>
			<circle cx="283.3" cy="237.1" r="7.1"/>
		</g>
	</g>
	<g>
		<g>
			<circle cx="351.3" cy="237.1" r="7.1"/>
		</g>
	</g>
	<g>
		<g>
			<rect x="269.9" y="186.8" width="92.1" height="6.5"/>
		</g>
	</g>
	<g>
		<g>
			<rect x="296.5" y="182.6" transform="matrix(0.7283 -0.6853 0.6853 0.7283 -62.942 261.3429)" width="3.2" height="54.9"/>
		</g>
	</g>
	<g>
		<g>
			<rect x="269.9" y="208.4" transform="matrix(0.7101 -0.7041 0.7041 0.7101 -61.4236 270.887)" width="56.8" height="3.2"/>
		</g>
	</g>
	<g>
		<g>
			<g>
				<path d="M341.5,221.3L330,209.8l11.5-11.5l11.5,11.5L341.5,221.3z M334.6,209.8l7,7l7-7l-7-7L334.6,209.8z"/>
			</g>
		</g>
		<g>
			<g>
				<polygon points="341.5,202.8 331,192.7 333.3,190.4 341.5,198.3 350.1,189.7 352.4,192 				"/>
			</g>
		</g>
		<g>
			<g>
				<polygon points="333.1,230.1 330.8,227.8 341.7,217 352.2,227.1 350,229.4 341.7,221.5 				"/>
			</g>
		</g>
	</g>
</g>
<g>
	<g>
		<g>
			<rect x="459.2" y="214.7" width="76" height="8.1"/>
		</g>
	</g>
	<g>
		<g>
			<circle cx="470.3" cy="224.6" r="5.8"/>
		</g>
	</g>
	<g>
		<g>
			<circle cx="526.4" cy="224.6" r="5.8"/>
		</g>
	</g>
	<g>
		<g>
			<rect x="453.4" y="187.4" transform="matrix(0.7384 -0.6744 0.6744 0.7384 -18.8158 360.6501)" width="4.1" height="34.3"/>
		</g>
	</g>
</g>
<g>
	<path d="M263.4,143.8c0-0.4,0-1,0-1.5v-7h1v3.6h0c0.4-0.6,1-1.1,2-1.1c1.4,0,2.5,1.2,2.4,3c0,2.1-1.3,3.1-2.6,3.1
		c-0.8,0-1.5-0.3-1.9-1.1h0l0,1H263.4z M264.5,141.5c0,0.1,0,0.3,0,0.4c0.2,0.7,0.8,1.2,1.6,1.2c1.1,0,1.8-0.9,1.8-2.2
		c0-1.2-0.6-2.2-1.7-2.2c-0.7,0-1.4,0.5-1.6,1.3c0,0.1-0.1,0.3-0.1,0.4V141.5z"/>
	<path d="M273.5,143.8l-0.1-0.7h0c-0.3,0.5-0.9,0.9-1.8,0.9c-1.2,0-1.8-0.8-1.8-1.7c0-1.4,1.2-2.2,3.5-2.2V140
		c0-0.5-0.1-1.3-1.3-1.3c-0.5,0-1.1,0.2-1.5,0.4l-0.2-0.7c0.5-0.3,1.2-0.5,1.9-0.5c1.8,0,2.2,1.2,2.2,2.4v2.2c0,0.5,0,1,0.1,1.4
		H273.5z M273.4,140.8c-1.2,0-2.5,0.2-2.5,1.3c0,0.7,0.5,1,1,1c0.8,0,1.2-0.5,1.4-1c0-0.1,0.1-0.2,0.1-0.3V140.8z"/>
	<path d="M281.1,138c0,0.4,0,0.9,0,1.6v3.4c0,1.3-0.3,2.1-0.8,2.7c-0.6,0.5-1.4,0.7-2.1,0.7c-0.7,0-1.5-0.2-1.9-0.5l0.3-0.8
		c0.4,0.2,1,0.5,1.7,0.5c1.1,0,1.9-0.6,1.9-2v-0.6h0c-0.3,0.5-0.9,1-1.8,1c-1.4,0-2.5-1.2-2.5-2.8c0-2,1.3-3.1,2.6-3.1
		c1,0,1.6,0.5,1.8,1h0l0-0.9H281.1z M280,140.3c0-0.2,0-0.3-0.1-0.5c-0.2-0.6-0.7-1.1-1.5-1.1c-1,0-1.7,0.9-1.7,2.2
		c0,1.1,0.6,2.1,1.7,2.1c0.6,0,1.2-0.4,1.5-1.1c0.1-0.2,0.1-0.4,0.1-0.6V140.3z"/>
	<path d="M287.8,138c0,0.4,0,0.9,0,1.6v3.4c0,1.3-0.3,2.1-0.8,2.7c-0.6,0.5-1.4,0.7-2.1,0.7c-0.7,0-1.5-0.2-1.9-0.5l0.3-0.8
		c0.4,0.2,1,0.5,1.7,0.5c1.1,0,1.9-0.6,1.9-2v-0.6h0c-0.3,0.5-0.9,1-1.8,1c-1.4,0-2.5-1.2-2.5-2.8c0-2,1.3-3.1,2.6-3.1
		c1,0,1.6,0.5,1.8,1h0l0-0.9H287.8z M286.7,140.3c0-0.2,0-0.3-0.1-0.5c-0.2-0.6-0.7-1.1-1.5-1.1c-1,0-1.7,0.9-1.7,2.2
		c0,1.1,0.6,2.1,1.7,2.1c0.6,0,1.2-0.4,1.5-1.1c0.1-0.2,0.1-0.4,0.1-0.6V140.3z"/>
	<path d="M290.6,136.3c0,0.4-0.3,0.6-0.7,0.6c-0.4,0-0.6-0.3-0.6-0.6c0-0.4,0.3-0.7,0.7-0.7C290.4,135.7,290.6,136,290.6,136.3z
		 M289.4,143.8V138h1.1v5.8H289.4z"/>
	<path d="M292.8,141.1c0,1.4,0.9,2,2,2c0.8,0,1.2-0.1,1.6-0.3l0.2,0.8c-0.4,0.2-1,0.4-1.9,0.4c-1.8,0-2.9-1.2-2.9-2.9
		c0-1.8,1-3.1,2.7-3.1c1.9,0,2.4,1.7,2.4,2.7c0,0.2,0,0.4,0,0.5H292.8z M295.9,140.3c0-0.7-0.3-1.7-1.5-1.7c-1.1,0-1.5,1-1.6,1.7
		H295.9z"/>
	<path d="M305.8,135.3v7c0,0.5,0,1.1,0,1.5h-0.9l0-1h0c-0.3,0.6-1,1.1-2,1.1c-1.4,0-2.5-1.2-2.5-3c0-1.9,1.2-3.1,2.6-3.1
		c0.9,0,1.5,0.4,1.8,0.9h0v-3.5H305.8z M304.8,140.3c0-0.1,0-0.3,0-0.4c-0.2-0.7-0.7-1.2-1.5-1.2c-1.1,0-1.7,1-1.7,2.2
		c0,1.2,0.6,2.1,1.7,2.1c0.7,0,1.4-0.5,1.5-1.3c0-0.1,0-0.3,0-0.5V140.3z"/>
	<path d="M312.8,140.8c0,2.1-1.5,3.1-2.9,3.1c-1.6,0-2.8-1.2-2.8-3c0-1.9,1.3-3.1,2.9-3.1C311.7,137.8,312.8,139.1,312.8,140.8z
		 M308.2,140.9c0,1.3,0.7,2.2,1.8,2.2c1,0,1.8-0.9,1.8-2.3c0-1-0.5-2.2-1.7-2.2C308.8,138.6,308.2,139.8,308.2,140.9z"/>
	<path d="M314.2,135.3h1.1v8.5h-1.1V135.3z"/>
	<path d="M317,135.3h1.1v8.5H317V135.3z"/>
	<path d="M321,136.3c0,0.4-0.3,0.6-0.7,0.6c-0.4,0-0.6-0.3-0.6-0.6c0-0.4,0.3-0.7,0.7-0.7C320.7,135.7,321,136,321,136.3z
		 M319.8,143.8V138h1.1v5.8H319.8z"/>
	<path d="M323.2,141.1c0,1.4,0.9,2,2,2c0.8,0,1.2-0.1,1.6-0.3l0.2,0.8c-0.4,0.2-1,0.4-1.9,0.4c-1.8,0-2.9-1.2-2.9-2.9
		c0-1.8,1-3.1,2.7-3.1c1.9,0,2.4,1.7,2.4,2.7c0,0.2,0,0.4,0,0.5H323.2z M326.3,140.3c0-0.7-0.3-1.7-1.5-1.7c-1.1,0-1.5,1-1.6,1.7
		H326.3z"/>
	<path d="M328.5,142.7c0.3,0.2,0.9,0.4,1.4,0.4c0.8,0,1.1-0.4,1.1-0.9c0-0.5-0.3-0.8-1.1-1.1c-1-0.4-1.5-0.9-1.5-1.6
		c0-0.9,0.8-1.7,2-1.7c0.6,0,1.1,0.2,1.4,0.4l-0.3,0.8c-0.2-0.1-0.6-0.3-1.2-0.3c-0.6,0-1,0.4-1,0.8c0,0.5,0.3,0.7,1.1,1
		c1,0.4,1.5,0.9,1.5,1.8c0,1-0.8,1.7-2.2,1.7c-0.6,0-1.2-0.2-1.6-0.4L328.5,142.7z"/>
</g>
<g>
	<path d="M514.6,124.8c0-0.4,0-0.9,0-1.4v-6.5h1v3.4h0c0.3-0.6,1-1,1.8-1c1.3,0,2.3,1.1,2.3,2.8c0,1.9-1.2,2.9-2.4,2.9
		c-0.8,0-1.4-0.3-1.8-1h0l0,0.9H514.6z M515.6,122.6c0,0.1,0,0.2,0,0.4c0.2,0.7,0.8,1.1,1.5,1.1c1,0,1.6-0.8,1.6-2.1
		c0-1.1-0.6-2-1.6-2c-0.7,0-1.3,0.5-1.5,1.2c0,0.1-0.1,0.2-0.1,0.4V122.6z"/>
	<path d="M521.5,122.3c0,1.3,0.9,1.9,1.9,1.9c0.7,0,1.1-0.1,1.5-0.3l0.2,0.7c-0.3,0.2-0.9,0.3-1.8,0.3c-1.7,0-2.7-1.1-2.7-2.7
		c0-1.6,1-2.9,2.5-2.9c1.8,0,2.2,1.6,2.2,2.5c0,0.2,0,0.4,0,0.5H521.5z M524.4,121.6c0-0.6-0.3-1.6-1.4-1.6c-1,0-1.4,0.9-1.5,1.6
		H524.4z"/>
	<path d="M526.6,116.9h1v7.9h-1V116.9z"/>
	<path d="M530.4,117.8v1.6h1.4v0.7h-1.4v2.9c0,0.7,0.2,1,0.7,1c0.3,0,0.4,0,0.6-0.1l0,0.7c-0.2,0.1-0.5,0.1-0.9,0.1
		c-0.5,0-0.8-0.1-1.1-0.4c-0.3-0.3-0.4-0.8-0.4-1.4v-2.9h-0.8v-0.7h0.8v-1.3L530.4,117.8z"/>
	<path d="M535.3,116.9h1v7.9h-1V116.9z"/>
	<path d="M542.8,122c0,2-1.4,2.9-2.7,2.9c-1.5,0-2.6-1.1-2.6-2.8c0-1.8,1.2-2.9,2.7-2.9C541.7,119.3,542.8,120.4,542.8,122z
		 M538.5,122.1c0,1.2,0.7,2.1,1.6,2.1c0.9,0,1.6-0.9,1.6-2.1c0-0.9-0.5-2.1-1.6-2.1C539,120,538.5,121.1,538.5,122.1z"/>
	<path d="M547,124.8l-0.1-0.7h0c-0.3,0.4-0.9,0.8-1.7,0.8c-1.1,0-1.7-0.8-1.7-1.6c0-1.3,1.2-2,3.2-2v-0.1c0-0.4-0.1-1.2-1.2-1.2
		c-0.5,0-1,0.2-1.4,0.4l-0.2-0.6c0.4-0.3,1.1-0.5,1.8-0.5c1.7,0,2.1,1.1,2.1,2.2v2c0,0.5,0,0.9,0.1,1.3H547z M546.9,122
		c-1.1,0-2.3,0.2-2.3,1.2c0,0.6,0.4,0.9,0.9,0.9c0.7,0,1.1-0.4,1.3-0.9c0-0.1,0.1-0.2,0.1-0.3V122z"/>
	<path d="M554.1,116.9v6.5c0,0.5,0,1,0,1.4h-0.9l0-0.9h0c-0.3,0.6-1,1.1-1.8,1.1c-1.3,0-2.3-1.1-2.3-2.7c0-1.8,1.1-2.9,2.4-2.9
		c0.8,0,1.4,0.4,1.6,0.8h0v-3.2H554.1z M553.1,121.6c0-0.1,0-0.3,0-0.4c-0.1-0.6-0.7-1.1-1.4-1.1c-1,0-1.6,0.9-1.6,2.1
		c0,1.1,0.5,2,1.6,2c0.7,0,1.3-0.4,1.4-1.2c0-0.1,0-0.3,0-0.4V121.6z"/>
	<path d="M556.2,122.3c0,1.3,0.9,1.9,1.9,1.9c0.7,0,1.1-0.1,1.5-0.3l0.2,0.7c-0.3,0.2-0.9,0.3-1.8,0.3c-1.7,0-2.7-1.1-2.7-2.7
		c0-1.6,1-2.9,2.5-2.9c1.8,0,2.2,1.6,2.2,2.5c0,0.2,0,0.4,0,0.5H556.2z M559.1,121.6c0-0.6-0.3-1.6-1.4-1.6c-1,0-1.4,0.9-1.5,1.6
		H559.1z"/>
	<path d="M561.3,121.1c0-0.6,0-1.2,0-1.7h0.9l0,1.1h0c0.2-0.7,0.8-1.2,1.5-1.2c0.1,0,0.2,0,0.3,0v0.9c-0.1,0-0.2,0-0.3,0
		c-0.7,0-1.2,0.5-1.3,1.3c0,0.1,0,0.3,0,0.5v2.9h-1V121.1z"/>
</g>
<g>
	<g>
		<path d="M285.2,262.8c-0.2,0.1-0.6,0.2-1.1,0.2c-1.1,0-1.9-0.8-1.9-1.9c0-1.2,0.8-2,2-2c0.4,0,0.8,0.1,0.9,0.2l-0.2,0.5
			c-0.2-0.1-0.4-0.2-0.8-0.2c-0.9,0-1.3,0.6-1.3,1.4c0,0.9,0.6,1.4,1.3,1.4c0.4,0,0.6-0.1,0.8-0.2L285.2,262.8z"/>
	</g>
	<g>
		<path d="M289.4,261.1c0,1.4-1,2-1.9,2c-1,0-1.8-0.7-1.8-1.9c0-1.3,0.8-2,1.9-2C288.6,259.1,289.4,259.9,289.4,261.1z M286.4,261.1
			c0,0.8,0.5,1.4,1.1,1.4c0.7,0,1.1-0.6,1.1-1.5c0-0.6-0.3-1.4-1.1-1.4C286.7,259.7,286.4,260.4,286.4,261.1z"/>
	</g>
	<g>
		<path d="M290.2,260.2c0-0.4,0-0.7,0-1h0.6l0,0.6h0c0.2-0.4,0.6-0.7,1.2-0.7c0.5,0,1.3,0.3,1.3,1.6v2.2h-0.7v-2.2
			c0-0.6-0.2-1.1-0.9-1.1c-0.4,0-0.8,0.3-0.9,0.7c0,0.1,0,0.2,0,0.3v2.3h-0.7V260.2z"/>
	</g>
	<g>
		<path d="M295.3,258.1v1.1h1v0.5h-1v2c0,0.5,0.1,0.7,0.5,0.7c0.2,0,0.3,0,0.4,0l0,0.5c-0.1,0.1-0.3,0.1-0.6,0.1
			c-0.3,0-0.6-0.1-0.7-0.3c-0.2-0.2-0.3-0.5-0.3-1v-2h-0.6v-0.5h0.6v-0.9L295.3,258.1z"/>
	</g>
	<g>
		<path d="M299.1,263l-0.1-0.5h0c-0.2,0.3-0.6,0.6-1.1,0.6c-0.8,0-1.1-0.5-1.1-1.1c0-0.9,0.8-1.4,2.3-1.4v-0.1
			c0-0.3-0.1-0.9-0.9-0.9c-0.3,0-0.7,0.1-1,0.3l-0.2-0.4c0.3-0.2,0.8-0.3,1.2-0.3c1.1,0,1.4,0.8,1.4,1.5v1.4c0,0.3,0,0.6,0.1,0.9
			H299.1z M299,261.1c-0.7,0-1.6,0.1-1.6,0.8c0,0.4,0.3,0.7,0.6,0.7c0.5,0,0.8-0.3,0.9-0.6c0-0.1,0-0.1,0-0.2V261.1z"/>
	</g>
	<g>
		<path d="M301.5,258.2c0,0.2-0.2,0.4-0.4,0.4c-0.2,0-0.4-0.2-0.4-0.4c0-0.2,0.2-0.4,0.4-0.4C301.4,257.7,301.5,257.9,301.5,258.2z
			 M300.8,263v-3.7h0.7v3.7H300.8z"/>
	</g>
	<g>
		<path d="M302.6,260.2c0-0.4,0-0.7,0-1h0.6l0,0.6h0c0.2-0.4,0.6-0.7,1.2-0.7c0.5,0,1.3,0.3,1.3,1.6v2.2h-0.7v-2.2
			c0-0.6-0.2-1.1-0.9-1.1c-0.4,0-0.8,0.3-0.9,0.7c0,0.1,0,0.2,0,0.3v2.3h-0.7V260.2z"/>
	</g>
	<g>
		<path d="M307.3,261.2c0,0.9,0.6,1.3,1.3,1.3c0.5,0,0.8-0.1,1-0.2l0.1,0.5c-0.2,0.1-0.7,0.2-1.2,0.2c-1.2,0-1.8-0.8-1.8-1.9
			c0-1.1,0.7-2,1.8-2c1.2,0,1.5,1.1,1.5,1.8c0,0.1,0,0.2,0,0.3H307.3z M309.3,260.7c0-0.4-0.2-1.1-0.9-1.1c-0.7,0-1,0.6-1,1.1H309.3
			z"/>
	</g>
	<g>
		<path d="M312.4,257.5h0.7v5.5h-0.7V257.5z"/>
	</g>
	<g>
		<path d="M317.6,261.1c0,1.4-1,2-1.9,2c-1,0-1.8-0.7-1.8-1.9c0-1.3,0.8-2,1.9-2C316.9,259.1,317.6,259.9,317.6,261.1z M314.7,261.1
			c0,0.8,0.5,1.4,1.1,1.4c0.6,0,1.1-0.6,1.1-1.5c0-0.6-0.3-1.4-1.1-1.4C315,259.7,314.7,260.4,314.7,261.1z"/>
	</g>
	<g>
		<path d="M320.6,263l-0.1-0.5h0c-0.2,0.3-0.6,0.6-1.1,0.6c-0.8,0-1.1-0.5-1.1-1.1c0-0.9,0.8-1.4,2.3-1.4v-0.1
			c0-0.3-0.1-0.9-0.9-0.9c-0.3,0-0.7,0.1-1,0.3l-0.2-0.4c0.3-0.2,0.8-0.3,1.2-0.3c1.1,0,1.4,0.8,1.4,1.5v1.4c0,0.3,0,0.6,0.1,0.9
			H320.6z M320.5,261.1c-0.7,0-1.6,0.1-1.6,0.8c0,0.4,0.3,0.7,0.6,0.7c0.5,0,0.8-0.3,0.9-0.6c0-0.1,0-0.1,0-0.2V261.1z"/>
	</g>
	<g>
		<path d="M325.5,257.5v4.5c0,0.3,0,0.7,0,1h-0.6l0-0.7h0c-0.2,0.4-0.7,0.7-1.3,0.7c-0.9,0-1.6-0.8-1.6-1.9c0-1.2,0.8-2,1.7-2
			c0.6,0,1,0.3,1.1,0.6h0v-2.2H325.5z M324.8,260.8c0-0.1,0-0.2,0-0.3c-0.1-0.4-0.5-0.8-1-0.8c-0.7,0-1.1,0.6-1.1,1.4
			c0,0.8,0.4,1.4,1.1,1.4c0.5,0,0.9-0.3,1-0.8c0-0.1,0-0.2,0-0.3V260.8z"/>
	</g>
	<g>
		<path d="M327,261.2c0,0.9,0.6,1.3,1.3,1.3c0.5,0,0.8-0.1,1-0.2l0.1,0.5c-0.2,0.1-0.6,0.2-1.2,0.2c-1.2,0-1.8-0.8-1.8-1.9
			c0-1.1,0.7-2,1.8-2c1.2,0,1.5,1.1,1.5,1.8c0,0.1,0,0.2,0,0.3H327z M329,260.7c0-0.4-0.2-1.1-0.9-1.1c-0.7,0-1,0.6-1,1.1H329z"/>
	</g>
	<g>
		<path d="M330.5,260.4c0-0.4,0-0.8,0-1.2h0.6l0,0.7h0c0.2-0.5,0.6-0.8,1-0.8c0.1,0,0.1,0,0.2,0v0.6c-0.1,0-0.1,0-0.2,0
			c-0.5,0-0.8,0.4-0.9,0.9c0,0.1,0,0.2,0,0.3v2h-0.7V260.4z"/>
	</g>
</g>
<g>
	<g>
		<path d="M437.7,256c-0.2,0.1-0.7,0.3-1.4,0.3c-1.4,0-2.3-1-2.3-2.4c0-1.4,1-2.5,2.5-2.5c0.5,0,1,0.1,1.2,0.2l-0.2,0.7
			c-0.2-0.1-0.5-0.2-1-0.2c-1.1,0-1.7,0.8-1.7,1.8c0,1.1,0.7,1.8,1.6,1.8c0.5,0,0.8-0.1,1.1-0.2L437.7,256z"/>
	</g>
	<g>
		<path d="M442.9,253.8c0,1.7-1.2,2.5-2.3,2.5c-1.3,0-2.3-0.9-2.3-2.4c0-1.6,1-2.5,2.3-2.5C442,251.3,442.9,252.3,442.9,253.8z
			 M439.2,253.8c0,1,0.6,1.8,1.4,1.8c0.8,0,1.4-0.8,1.4-1.8c0-0.8-0.4-1.8-1.4-1.8C439.6,252,439.2,252.9,439.2,253.8z"/>
	</g>
	<g>
		<path d="M444,252.7c0-0.5,0-0.9,0-1.3h0.8l0,0.8h0c0.2-0.4,0.8-0.9,1.6-0.9c0.7,0,1.7,0.4,1.7,2v2.8h-0.9v-2.7
			c0-0.8-0.3-1.4-1.1-1.4c-0.6,0-1,0.4-1.1,0.9c0,0.1-0.1,0.3-0.1,0.4v2.8H444V252.7z"/>
	</g>
	<g>
		<path d="M450.4,250.1v1.4h1.2v0.7h-1.2v2.5c0,0.6,0.2,0.9,0.6,0.9c0.2,0,0.4,0,0.5-0.1l0,0.6c-0.2,0.1-0.4,0.1-0.8,0.1
			c-0.4,0-0.7-0.1-0.9-0.4c-0.2-0.3-0.3-0.7-0.3-1.2v-2.6h-0.7v-0.7h0.7v-1.1L450.4,250.1z"/>
	</g>
	<g>
		<path d="M453,253.9c0,1.2,0.8,1.6,1.6,1.6c0.6,0,1-0.1,1.3-0.2l0.1,0.6c-0.3,0.1-0.8,0.3-1.6,0.3c-1.4,0-2.3-1-2.3-2.4
			c0-1.4,0.8-2.5,2.2-2.5c1.5,0,1.9,1.4,1.9,2.2c0,0.2,0,0.3,0,0.4H453z M455.5,253.3c0-0.5-0.2-1.4-1.2-1.4c-0.9,0-1.2,0.8-1.3,1.4
			H455.5z"/>
	</g>
	<g>
		<path d="M457.4,252.7c0-0.5,0-0.9,0-1.3h0.8l0,0.8h0c0.2-0.4,0.8-0.9,1.6-0.9c0.7,0,1.7,0.4,1.7,2v2.8h-0.9v-2.7
			c0-0.8-0.3-1.4-1.1-1.4c-0.6,0-1,0.4-1.1,0.9c0,0.1-0.1,0.3-0.1,0.4v2.8h-0.9V252.7z"/>
	</g>
	<g>
		<path d="M463.3,253.9c0,1.2,0.8,1.6,1.6,1.6c0.6,0,1-0.1,1.3-0.2l0.1,0.6c-0.3,0.1-0.8,0.3-1.6,0.3c-1.4,0-2.3-1-2.3-2.4
			c0-1.4,0.8-2.5,2.2-2.5c1.5,0,1.9,1.4,1.9,2.2c0,0.2,0,0.3,0,0.4H463.3z M465.8,253.3c0-0.5-0.2-1.4-1.2-1.4
			c-0.9,0-1.2,0.8-1.3,1.4H465.8z"/>
	</g>
	<g>
		<path d="M467.7,252.9c0-0.6,0-1,0-1.5h0.7l0,0.9h0c0.2-0.6,0.7-1,1.3-1c0.1,0,0.2,0,0.2,0v0.8c-0.1,0-0.2,0-0.3,0
			c-0.6,0-1,0.5-1.1,1.1c0,0.1,0,0.3,0,0.4v2.5h-0.8V252.9z"/>
	</g>
	<g>
		<path d="M472.9,253c0-0.6,0-1.1,0-1.5h0.8l0,0.8h0c0.4-0.6,0.9-0.9,1.7-0.9c1.1,0,2,1,2,2.4c0,1.7-1,2.5-2.1,2.5
			c-0.6,0-1.2-0.3-1.4-0.7h0v2.6h-0.8V253z M473.8,254.2c0,0.1,0,0.2,0,0.4c0.2,0.6,0.7,1,1.3,1c0.9,0,1.4-0.7,1.4-1.8
			c0-0.9-0.5-1.8-1.4-1.8c-0.6,0-1.1,0.4-1.3,1.1c0,0.1-0.1,0.2-0.1,0.4V254.2z"/>
	</g>
	<g>
		<path d="M478.5,249.2h0.9v6.9h-0.9V249.2z"/>
	</g>
	<g>
		<path d="M483.4,256.1l-0.1-0.6h0c-0.3,0.4-0.8,0.7-1.4,0.7c-1,0-1.4-0.7-1.4-1.4c0-1.1,1-1.8,2.8-1.8v-0.1c0-0.4-0.1-1.1-1.1-1.1
			c-0.4,0-0.9,0.1-1.2,0.4l-0.2-0.6c0.4-0.3,1-0.4,1.5-0.4c1.4,0,1.8,1,1.8,1.9v1.8c0,0.4,0,0.8,0.1,1.1H483.4z M483.3,253.7
			c-0.9,0-2,0.1-2,1.1c0,0.6,0.4,0.8,0.8,0.8c0.6,0,1-0.4,1.1-0.8c0-0.1,0-0.2,0-0.3V253.7z"/>
	</g>
	<g>
		<path d="M486.5,250.1v1.4h1.2v0.7h-1.2v2.5c0,0.6,0.2,0.9,0.6,0.9c0.2,0,0.4,0,0.5-0.1l0,0.6c-0.2,0.1-0.4,0.1-0.8,0.1
			c-0.4,0-0.7-0.1-0.9-0.4c-0.2-0.3-0.3-0.7-0.3-1.2v-2.6h-0.7v-0.7h0.7v-1.1L486.5,250.1z"/>
	</g>
	<g>
		<path d="M488.7,256.1v-4.1h-0.7v-0.7h0.7v-0.2c0-0.7,0.1-1.3,0.5-1.6c0.3-0.3,0.7-0.4,1.1-0.4c0.3,0,0.6,0.1,0.7,0.1l-0.1,0.7
			c-0.1-0.1-0.3-0.1-0.5-0.1c-0.7,0-0.9,0.6-0.9,1.4v0.3h1.1v0.7h-1.1v4.1H488.7z"/>
	</g>
	<g>
		<path d="M495.6,253.8c0,1.7-1.2,2.5-2.3,2.5c-1.3,0-2.3-0.9-2.3-2.4c0-1.6,1-2.5,2.3-2.5C494.7,251.3,495.6,252.3,495.6,253.8z
			 M491.9,253.8c0,1,0.6,1.8,1.4,1.8c0.8,0,1.4-0.8,1.4-1.8c0-0.8-0.4-1.8-1.4-1.8C492.3,252,491.9,252.9,491.9,253.8z"/>
	</g>
	<g>
		<path d="M496.7,252.9c0-0.6,0-1,0-1.5h0.7l0,0.9h0c0.2-0.6,0.7-1,1.3-1c0.1,0,0.2,0,0.2,0v0.8c-0.1,0-0.2,0-0.3,0
			c-0.6,0-1,0.5-1.1,1.1c0,0.1,0,0.3,0,0.4v2.5h-0.8V252.9z"/>
	</g>
	<g>
		<path d="M499.9,252.7c0-0.5,0-0.9,0-1.3h0.7l0,0.8h0c0.3-0.4,0.7-0.9,1.5-0.9c0.6,0,1.1,0.4,1.3,0.9h0c0.1-0.3,0.3-0.5,0.5-0.6
			c0.3-0.2,0.6-0.3,1-0.3c0.6,0,1.5,0.4,1.5,2v2.8h-0.8v-2.7c0-0.9-0.3-1.4-1-1.4c-0.5,0-0.9,0.4-1,0.8c0,0.1-0.1,0.3-0.1,0.4v2.9
			h-0.8v-2.8c0-0.7-0.3-1.3-1-1.3c-0.5,0-0.9,0.4-1.1,0.9c0,0.1-0.1,0.3-0.1,0.4v2.8h-0.8V252.7z"/>
	</g>
</g>
<g>
	<g>
		<g>
			<rect x="58.7" y="364.3" width="86.9" height="7.9"/>
		</g>
	</g>
	<g>
		<g>
			<circle cx="71.3" cy="374.9" r="6.7"/>
		</g>
	</g>
	<g>
		<g>
			<circle cx="135.4" cy="374.9" r="6.7"/>
		</g>
	</g>
	<g id="XMLID_2_">
		<g>
			<g>
				<path d="M150.2,345.2v21.3h-39v-36.2h21.3L150.2,345.2z M120.6,346.6h23.1l-13.1-11.7h-10.1V346.6z"/>
			</g>
		</g>
	</g>
	<g>
		<g>
			<rect x="50.6" y="330.3" width="57.6" height="36.2"/>
		</g>
	</g>
	<g>
		<g>
			<polygon points="158.5,338 153.7,338 153.7,321.9 67,321.9 67,334.9 62.3,334.9 62.3,317.1 158.5,317.1 			"/>
		</g>
	</g>
	<g>
		<g>
			<rect x="156.1" y="329.2" width="18.8" height="22"/>
		</g>
		<g>
			<path d="M177.3,353.6h-23.6v-26.8h23.6V353.6z M158.5,348.8h14.1v-17.2h-14.1V348.8z"/>
		</g>
	</g>
</g>
<g>
	<g>
		<g>
			<polygon points="66.4,627.8 66.4,642.2 82.5,627.8 			"/>
		</g>
	</g>
	<g>
		<g>
			<polyline points="82.5,627.8 98.5,613.3 82.5,613.3 			"/>
		</g>
	</g>
	<g>
		<g>
			<polyline points="98.5,613.3 114.5,598.8 98.5,598.8 			"/>
		</g>
	</g>
	<g>
		<g>
			<polyline points="114.5,584.4 130.5,584.4 114.5,598.8 			"/>
		</g>
	</g>
	<g>
		<g>
			<rect x="53.4" y="606" transform="matrix(0.7411 -0.6714 0.6714 0.7411 -379.9915 228.9716)" width="107" height="2.4"/>
		</g>
	</g>
	<g>
		<g>
			<polyline points="130.1,584.7 146.1,570.3 130.1,570.3 			"/>
		</g>
	</g>
	<g>
		<g>
			<polygon points="66.5,644.7 66.4,641.5 144.5,640.7 144.5,570.3 147.7,570.3 147.7,643.8 			"/>
		</g>
	</g>
	<g>
		<g>
			<rect x="115.1" y="597.7" width="3.2" height="45.6"/>
		</g>
	</g>
	<g>
		<g>
			<ellipse cx="88.1" cy="648.1" rx="5.7" ry="5.8"/>
		</g>
	</g>
	<g>
		<g>
			<ellipse cx="132.6" cy="648.1" rx="5.7" ry="5.8"/>
		</g>
	</g>
</g>
<text transform="matrix(1 0 0 1 922.2751 496.7808)" style="font-family:'MyriadPro-Regular'; font-size:12px;">platform</text>
<g>
	<path d="M509.2,386.6h1.1v3.6h0c0.2-0.3,0.4-0.6,0.8-0.7c0.3-0.2,0.7-0.3,1.1-0.3c0.8,0,2,0.5,2,2.5v3.5h-1.1v-3.3
		c0-0.9-0.3-1.7-1.3-1.7c-0.7,0-1.2,0.5-1.4,1.1c-0.1,0.1-0.1,0.3-0.1,0.5v3.5h-1.1V386.6z"/>
	<path d="M516.5,392.4c0,1.4,0.9,2,2,2c0.8,0,1.2-0.1,1.6-0.3l0.2,0.8c-0.4,0.2-1,0.4-1.9,0.4c-1.8,0-2.9-1.2-2.9-2.9s1-3.1,2.7-3.1
		c1.9,0,2.4,1.7,2.4,2.7c0,0.2,0,0.4,0,0.5H516.5z M519.6,391.6c0-0.7-0.3-1.7-1.5-1.7c-1.1,0-1.5,1-1.6,1.7H519.6z"/>
	<path d="M525.1,395.1l-0.1-0.7h0c-0.3,0.5-0.9,0.9-1.8,0.9c-1.2,0-1.8-0.8-1.8-1.7c0-1.4,1.2-2.2,3.5-2.2v-0.1
		c0-0.5-0.1-1.3-1.3-1.3c-0.5,0-1.1,0.2-1.5,0.4l-0.2-0.7c0.5-0.3,1.2-0.5,1.9-0.5c1.8,0,2.2,1.2,2.2,2.4v2.2c0,0.5,0,1,0.1,1.4
		H525.1z M525,392.2c-1.2,0-2.5,0.2-2.5,1.3c0,0.7,0.5,1,1,1c0.8,0,1.2-0.5,1.4-1c0-0.1,0.1-0.2,0.1-0.3V392.2z"/>
	<path d="M528.9,387.6v1.7h1.5v0.8h-1.5v3.1c0,0.7,0.2,1.1,0.8,1.1c0.3,0,0.5,0,0.6-0.1l0,0.8c-0.2,0.1-0.5,0.1-0.9,0.1
		c-0.5,0-0.9-0.2-1.1-0.4c-0.3-0.3-0.4-0.8-0.4-1.5v-3.2H527v-0.8h0.9v-1.4L528.9,387.6z"/>
	<path d="M532.1,392.4c0,1.4,0.9,2,2,2c0.8,0,1.2-0.1,1.6-0.3l0.2,0.8c-0.4,0.2-1,0.4-1.9,0.4c-1.8,0-2.9-1.2-2.9-2.9s1-3.1,2.7-3.1
		c1.9,0,2.4,1.7,2.4,2.7c0,0.2,0,0.4,0,0.5H532.1z M535.2,391.6c0-0.7-0.3-1.7-1.5-1.7c-1.1,0-1.5,1-1.6,1.7H535.2z"/>
	<path d="M537.6,391.1c0-0.7,0-1.3,0-1.8h0.9l0,1.1h0c0.3-0.8,0.9-1.3,1.6-1.3c0.1,0,0.2,0,0.3,0v1c-0.1,0-0.2,0-0.4,0
		c-0.7,0-1.3,0.6-1.4,1.4c0,0.1,0,0.3,0,0.5v3.1h-1V391.1z"/>
</g>
<g>
	<path d="M108.1,141.8L108,141h0c-0.3,0.5-0.9,0.9-1.8,0.9c-1.2,0-1.8-0.8-1.8-1.7c0-1.4,1.2-2.2,3.5-2.2V138c0-0.5-0.1-1.3-1.3-1.3
		c-0.5,0-1.1,0.2-1.5,0.4l-0.2-0.7c0.5-0.3,1.2-0.5,1.9-0.5c1.8,0,2.2,1.2,2.2,2.4v2.2c0,0.5,0,1,0.1,1.4H108.1z M107.9,138.8
		c-1.2,0-2.5,0.2-2.5,1.3c0,0.7,0.5,1,1,1c0.8,0,1.2-0.5,1.4-1c0-0.1,0.1-0.2,0.1-0.3V138.8z"/>
	<path d="M110.5,140.7c0.3,0.2,0.9,0.4,1.4,0.4c0.8,0,1.1-0.4,1.1-0.9c0-0.5-0.3-0.8-1.1-1.1c-1-0.4-1.5-0.9-1.5-1.6
		c0-0.9,0.8-1.7,2-1.7c0.6,0,1.1,0.2,1.4,0.4l-0.3,0.8c-0.2-0.1-0.6-0.3-1.2-0.3c-0.6,0-1,0.4-1,0.8c0,0.5,0.3,0.7,1.1,1
		c1,0.4,1.5,0.9,1.5,1.8c0,1-0.8,1.7-2.2,1.7c-0.6,0-1.2-0.2-1.6-0.4L110.5,140.7z"/>
	<path d="M120.3,140.2c0,0.6,0,1.1,0,1.6h-0.9l-0.1-0.9h0c-0.3,0.5-0.9,1.1-1.9,1.1c-0.9,0-2-0.5-2-2.5V136h1.1v3.2
		c0,1.1,0.3,1.8,1.3,1.8c0.7,0,1.2-0.5,1.4-1c0.1-0.2,0.1-0.3,0.1-0.5V136h1.1V140.2z"/>
</g>
<g>
	<path d="M63.9,525.4h1.1v8.5h-1.1V525.4z"/>
	<path d="M69.9,534l-0.1-0.7h0c-0.3,0.5-0.9,0.9-1.8,0.9c-1.2,0-1.8-0.8-1.8-1.7c0-1.4,1.2-2.2,3.5-2.2v-0.1c0-0.5-0.1-1.3-1.3-1.3
		c-0.5,0-1.1,0.2-1.5,0.4l-0.2-0.7c0.5-0.3,1.2-0.5,1.9-0.5c1.8,0,2.2,1.2,2.2,2.4v2.2c0,0.5,0,1,0.1,1.4H69.9z M69.7,531
		c-1.2,0-2.5,0.2-2.5,1.3c0,0.7,0.5,1,1,1c0.8,0,1.2-0.5,1.4-1c0-0.1,0.1-0.2,0.1-0.3V531z"/>
	<path d="M72.8,528.2l1.1,3.3c0.2,0.5,0.3,1,0.5,1.5h0c0.1-0.5,0.3-1,0.5-1.5l1.1-3.3h1.1l-2.3,5.8h-1l-2.2-5.8H72.8z"/>
	<path d="M81.3,534l-0.1-0.7h0c-0.3,0.5-0.9,0.9-1.8,0.9c-1.2,0-1.8-0.8-1.8-1.7c0-1.4,1.2-2.2,3.5-2.2v-0.1c0-0.5-0.1-1.3-1.3-1.3
		c-0.5,0-1.1,0.2-1.5,0.4l-0.2-0.7c0.5-0.3,1.2-0.5,1.9-0.5c1.8,0,2.2,1.2,2.2,2.4v2.2c0,0.5,0,1,0.1,1.4H81.3z M81.2,531
		c-1.2,0-2.5,0.2-2.5,1.3c0,0.7,0.5,1,1,1c0.8,0,1.2-0.5,1.4-1c0-0.1,0.1-0.2,0.1-0.3V531z"/>
	<path d="M85.1,526.5v1.7h1.5v0.8h-1.5v3.1c0,0.7,0.2,1.1,0.8,1.1c0.3,0,0.5,0,0.6-0.1l0,0.8c-0.2,0.1-0.5,0.1-0.9,0.1
		c-0.5,0-0.9-0.2-1.1-0.4c-0.3-0.3-0.4-0.8-0.4-1.5V529h-0.9v-0.8h0.9v-1.4L85.1,526.5z"/>
	<path d="M93,531c0,2.1-1.5,3.1-2.9,3.1c-1.6,0-2.8-1.2-2.8-3c0-1.9,1.3-3.1,2.9-3.1C91.9,528,93,529.2,93,531z M88.4,531.1
		c0,1.3,0.7,2.2,1.8,2.2c1,0,1.8-0.9,1.8-2.3c0-1-0.5-2.2-1.7-2.2C88.9,528.8,88.4,530,88.4,531.1z"/>
	<path d="M94.3,530c0-0.7,0-1.3,0-1.8h0.9l0,1.1h0c0.3-0.8,0.9-1.3,1.6-1.3c0.1,0,0.2,0,0.3,0v1c-0.1,0-0.2,0-0.4,0
		c-0.7,0-1.3,0.6-1.4,1.4c0,0.1,0,0.3,0,0.5v3.1h-1V530z"/>
	<path d="M98.9,528.2l1.3,3.4c0.1,0.4,0.3,0.8,0.4,1.2h0c0.1-0.3,0.2-0.8,0.4-1.2l1.2-3.4h1.1l-1.6,4.1c-0.8,2-1.3,3-2,3.6
		c-0.5,0.5-1,0.6-1.3,0.7l-0.3-0.9c0.3-0.1,0.6-0.3,0.9-0.5c0.3-0.2,0.6-0.6,0.9-1.2c0-0.1,0.1-0.2,0.1-0.3c0-0.1,0-0.1-0.1-0.3
		l-2.1-5.3H98.9z"/>
	<path d="M107.1,528.2l1.1,3.3c0.2,0.5,0.3,1,0.5,1.5h0c0.1-0.5,0.3-1,0.5-1.5l1.1-3.3h1.1l-2.3,5.8h-1l-2.2-5.8H107.1z"/>
	<path d="M113,531.3c0,1.4,0.9,2,2,2c0.8,0,1.2-0.1,1.6-0.3l0.2,0.8c-0.4,0.2-1,0.4-1.9,0.4c-1.8,0-2.9-1.2-2.9-2.9s1-3.1,2.7-3.1
		c1.9,0,2.4,1.7,2.4,2.7c0,0.2,0,0.4,0,0.5H113z M116.1,530.5c0-0.7-0.3-1.7-1.5-1.7c-1.1,0-1.5,1-1.6,1.7H116.1z"/>
	<path d="M118.4,525.4h1.1v3.6h0c0.2-0.3,0.4-0.6,0.8-0.7c0.3-0.2,0.7-0.3,1.1-0.3c0.8,0,2,0.5,2,2.5v3.5h-1.1v-3.3
		c0-0.9-0.3-1.7-1.3-1.7c-0.7,0-1.2,0.5-1.4,1.1c-0.1,0.1-0.1,0.3-0.1,0.5v3.5h-1.1V525.4z"/>
	<path d="M126.2,526.5c0,0.4-0.3,0.6-0.7,0.6c-0.4,0-0.6-0.3-0.6-0.6c0-0.4,0.3-0.7,0.7-0.7C126,525.9,126.2,526.2,126.2,526.5z
		 M125.1,534v-5.8h1.1v5.8H125.1z"/>
	<path d="M132,533.7c-0.3,0.1-0.9,0.3-1.7,0.3c-1.8,0-2.9-1.2-2.9-3c0-1.8,1.2-3.1,3.1-3.1c0.6,0,1.2,0.2,1.5,0.3l-0.2,0.8
		c-0.3-0.1-0.6-0.3-1.2-0.3c-1.3,0-2.1,1-2.1,2.2c0,1.3,0.9,2.2,2,2.2c0.6,0,1-0.2,1.3-0.3L132,533.7z"/>
	<path d="M133.2,525.4h1.1v8.5h-1.1V525.4z"/>
	<path d="M136.7,531.3c0,1.4,0.9,2,2,2c0.8,0,1.2-0.1,1.6-0.3l0.2,0.8c-0.4,0.2-1,0.4-1.9,0.4c-1.8,0-2.9-1.2-2.9-2.9s1-3.1,2.7-3.1
		c1.9,0,2.4,1.7,2.4,2.7c0,0.2,0,0.4,0,0.5H136.7z M139.8,530.5c0-0.7-0.3-1.7-1.5-1.7c-1.1,0-1.5,1-1.6,1.7H139.8z"/>
</g>
<g>
	<path d="M253.1,530.2c0-0.7,0-1.2,0-1.7h0.8l0,0.9h0c0.4-0.6,1-1,1.8-1c1.2,0,2.2,1,2.2,2.6c0,1.8-1.1,2.7-2.3,2.7
		c-0.7,0-1.3-0.3-1.6-0.8h0v2.8h-0.9V530.2z M254,531.6c0,0.1,0,0.3,0,0.4c0.2,0.6,0.7,1.1,1.4,1.1c1,0,1.5-0.8,1.5-2
		c0-1-0.5-1.9-1.5-1.9c-0.6,0-1.2,0.5-1.4,1.1c0,0.1-0.1,0.3-0.1,0.4V531.6z"/>
	<path d="M263.3,532.3c0,0.5,0,1,0,1.4h-0.8l-0.1-0.8h0c-0.2,0.4-0.8,0.9-1.7,0.9c-0.8,0-1.8-0.4-1.8-2.2v-3h0.9v2.8
		c0,1,0.3,1.6,1.1,1.6c0.6,0,1.1-0.4,1.2-0.8c0.1-0.1,0.1-0.3,0.1-0.5v-3.1h0.9V532.3z"/>
	<path d="M264.7,532.7c0.3,0.2,0.8,0.4,1.2,0.4c0.7,0,1-0.3,1-0.8c0-0.4-0.3-0.7-0.9-0.9c-0.9-0.3-1.3-0.8-1.3-1.4
		c0-0.8,0.7-1.5,1.8-1.5c0.5,0,1,0.1,1.3,0.3l-0.2,0.7c-0.2-0.1-0.6-0.3-1-0.3c-0.5,0-0.9,0.3-0.9,0.7c0,0.4,0.3,0.6,1,0.9
		c0.9,0.3,1.3,0.8,1.3,1.5c0,0.9-0.7,1.5-1.9,1.5c-0.6,0-1.1-0.1-1.4-0.3L264.7,532.7z"/>
	<path d="M269,526.2h0.9v3.2h0c0.1-0.3,0.4-0.5,0.7-0.7c0.3-0.2,0.6-0.3,0.9-0.3c0.7,0,1.8,0.4,1.8,2.2v3h-0.9v-2.9
		c0-0.8-0.3-1.5-1.2-1.5c-0.6,0-1.1,0.4-1.2,0.9c-0.1,0.1-0.1,0.3-0.1,0.4v3.1H269V526.2z"/>
	<path d="M274.8,533.6c0-0.3,0-0.9,0-1.3v-6.2h0.9v3.2h0c0.3-0.6,0.9-0.9,1.7-0.9c1.3,0,2.2,1.1,2.1,2.6c0,1.8-1.1,2.7-2.3,2.7
		c-0.7,0-1.3-0.3-1.7-1h0l0,0.8H274.8z M275.8,531.6c0,0.1,0,0.2,0,0.3c0.2,0.6,0.7,1.1,1.4,1.1c1,0,1.5-0.8,1.5-2
		c0-1-0.5-1.9-1.5-1.9c-0.6,0-1.2,0.4-1.4,1.1c0,0.1-0.1,0.2-0.1,0.4V531.6z"/>
	<path d="M283.7,533.6l-0.1-0.6h0c-0.3,0.4-0.8,0.8-1.6,0.8c-1,0-1.6-0.7-1.6-1.5c0-1.2,1.1-1.9,3.1-1.9v-0.1c0-0.4-0.1-1.2-1.2-1.2
		c-0.5,0-1,0.1-1.3,0.4l-0.2-0.6c0.4-0.3,1-0.5,1.7-0.5c1.6,0,1.9,1.1,1.9,2.1v1.9c0,0.4,0,0.9,0.1,1.2H283.7z M283.5,531
		c-1,0-2.2,0.2-2.2,1.1c0,0.6,0.4,0.9,0.9,0.9c0.7,0,1.1-0.4,1.2-0.9c0-0.1,0.1-0.2,0.1-0.3V531z"/>
	<path d="M289.6,533.5c-0.2,0.1-0.8,0.3-1.5,0.3c-1.5,0-2.5-1-2.5-2.6c0-1.6,1.1-2.7,2.7-2.7c0.5,0,1,0.1,1.3,0.3l-0.2,0.7
		c-0.2-0.1-0.6-0.2-1.1-0.2c-1.2,0-1.8,0.9-1.8,1.9c0,1.2,0.8,1.9,1.8,1.9c0.5,0,0.9-0.1,1.1-0.3L289.6,533.5z"/>
	<path d="M291.6,530.9L291.6,530.9c0.1-0.2,0.3-0.4,0.5-0.6l1.5-1.8h1.1l-2,2.1l2.2,3h-1.1l-1.8-2.4l-0.5,0.5v1.9h-0.9v-7.5h0.9
		V530.9z"/>
</g>
<g>
	<g>
		<path d="M78,666.3c0.2,0.2,0.7,0.3,1.1,0.3c0.6,0,0.9-0.3,0.9-0.7c0-0.4-0.2-0.6-0.9-0.8c-0.8-0.3-1.2-0.8-1.2-1.3
			c0-0.7,0.6-1.4,1.6-1.4c0.5,0,0.9,0.1,1.1,0.3l-0.2,0.6c-0.2-0.1-0.5-0.3-0.9-0.3c-0.5,0-0.8,0.3-0.8,0.6c0,0.4,0.3,0.6,0.9,0.8
			c0.8,0.3,1.2,0.7,1.2,1.4c0,0.8-0.6,1.4-1.7,1.4c-0.5,0-1-0.1-1.3-0.3L78,666.3z"/>
	</g>
	<g>
		<path d="M82.9,661.2v1.3h1.2v0.6h-1.2v2.5c0,0.6,0.2,0.9,0.6,0.9c0.2,0,0.4,0,0.5-0.1l0,0.6c-0.2,0.1-0.4,0.1-0.7,0.1
			c-0.4,0-0.7-0.1-0.9-0.4c-0.2-0.2-0.3-0.7-0.3-1.2v-2.5h-0.7v-0.6h0.7v-1.1L82.9,661.2z"/>
	</g>
	<g>
		<path d="M87.6,667.1l-0.1-0.6h0c-0.3,0.4-0.8,0.7-1.4,0.7c-0.9,0-1.4-0.7-1.4-1.3c0-1.1,1-1.7,2.8-1.7v-0.1c0-0.4-0.1-1.1-1-1.1
			c-0.4,0-0.9,0.1-1.2,0.3l-0.2-0.6c0.4-0.2,0.9-0.4,1.5-0.4c1.4,0,1.8,1,1.8,1.9v1.7c0,0.4,0,0.8,0.1,1.1H87.6z M87.5,664.8
			c-0.9,0-2,0.1-2,1c0,0.5,0.4,0.8,0.8,0.8c0.6,0,1-0.4,1.1-0.8c0-0.1,0-0.2,0-0.3V664.8z"/>
	</g>
	<g>
		<path d="M90.6,661.2c0,0.3-0.2,0.5-0.5,0.5c-0.3,0-0.5-0.2-0.5-0.5c0-0.3,0.2-0.5,0.5-0.5C90.4,660.7,90.6,660.9,90.6,661.2z
			 M89.7,667.1v-4.6h0.8v4.6H89.7z"/>
	</g>
	<g>
		<path d="M91.9,664c0-0.5,0-1,0-1.4h0.7l0,0.9h0c0.2-0.6,0.7-1,1.3-1c0.1,0,0.2,0,0.2,0v0.8c-0.1,0-0.2,0-0.3,0
			c-0.6,0-1,0.4-1.1,1.1c0,0.1,0,0.2,0,0.4v2.5h-0.8V664z"/>
	</g>
	<g>
		<path d="M94.9,666.3c0.2,0.2,0.7,0.3,1.1,0.3c0.6,0,0.9-0.3,0.9-0.7c0-0.4-0.2-0.6-0.9-0.8c-0.8-0.3-1.2-0.8-1.2-1.3
			c0-0.7,0.6-1.4,1.6-1.4c0.5,0,0.9,0.1,1.1,0.3l-0.2,0.6c-0.2-0.1-0.5-0.3-0.9-0.3c-0.5,0-0.8,0.3-0.8,0.6c0,0.4,0.3,0.6,0.9,0.8
			c0.8,0.3,1.2,0.7,1.2,1.4c0,0.8-0.6,1.4-1.7,1.4c-0.5,0-1-0.1-1.3-0.3L94.9,666.3z"/>
	</g>
	<g>
		<path d="M101.8,661.2v1.3h1.2v0.6h-1.2v2.5c0,0.6,0.2,0.9,0.6,0.9c0.2,0,0.4,0,0.5-0.1l0,0.6c-0.2,0.1-0.4,0.1-0.7,0.1
			c-0.4,0-0.7-0.1-0.9-0.4c-0.2-0.2-0.3-0.7-0.3-1.2v-2.5h-0.7v-0.6h0.7v-1.1L101.8,661.2z"/>
	</g>
	<g>
		<path d="M108.1,664.8c0,1.7-1.2,2.4-2.3,2.4c-1.2,0-2.2-0.9-2.2-2.4c0-1.5,1-2.4,2.3-2.4C107.2,662.4,108.1,663.4,108.1,664.8z
			 M104.4,664.8c0,1,0.6,1.8,1.4,1.8c0.8,0,1.4-0.8,1.4-1.8c0-0.8-0.4-1.8-1.4-1.8C104.8,663.1,104.4,664,104.4,664.8z"/>
	</g>
	<g>
		<path d="M109.4,662.5l0.6,2.3c0.1,0.5,0.3,1,0.3,1.5h0c0.1-0.5,0.3-1,0.4-1.5l0.8-2.4h0.7l0.7,2.3c0.2,0.6,0.3,1,0.4,1.5h0
			c0.1-0.5,0.2-1,0.4-1.5l0.7-2.3h0.8l-1.5,4.6H113l-0.7-2.2c-0.2-0.5-0.3-1-0.4-1.5h0c-0.1,0.6-0.3,1-0.4,1.5l-0.7,2.2h-0.8
			l-1.4-4.6H109.4z"/>
	</g>
	<g>
		<path d="M116.4,665c0,1.1,0.7,1.6,1.6,1.6c0.6,0,1-0.1,1.3-0.2l0.1,0.6c-0.3,0.1-0.8,0.3-1.5,0.3c-1.4,0-2.3-0.9-2.3-2.3
			c0-1.4,0.8-2.5,2.2-2.5c1.5,0,1.9,1.3,1.9,2.2c0,0.2,0,0.3,0,0.4H116.4z M118.9,664.4c0-0.5-0.2-1.4-1.2-1.4
			c-0.8,0-1.2,0.8-1.3,1.4H118.9z"/>
	</g>
	<g>
		<path d="M124.7,660.4v5.6c0,0.4,0,0.9,0,1.2H124l0-0.8h0c-0.3,0.5-0.8,0.9-1.6,0.9c-1.1,0-2-0.9-2-2.3c0-1.5,0.9-2.5,2.1-2.5
			c0.7,0,1.2,0.3,1.4,0.7h0v-2.8H124.7z M123.9,664.4c0-0.1,0-0.2,0-0.4c-0.1-0.5-0.6-1-1.2-1c-0.9,0-1.4,0.8-1.4,1.8
			c0,0.9,0.5,1.7,1.4,1.7c0.6,0,1.1-0.4,1.2-1c0-0.1,0-0.2,0-0.4V664.4z"/>
	</g>
</g>
<g>
	<g>
		<path d="M194.8,666.5c0.2,0.2,0.6,0.3,1,0.3c0.6,0,0.8-0.3,0.8-0.6c0-0.4-0.2-0.6-0.8-0.8c-0.8-0.3-1.1-0.7-1.1-1.2
			c0-0.7,0.6-1.3,1.5-1.3c0.4,0,0.8,0.1,1.1,0.3l-0.2,0.6c-0.2-0.1-0.5-0.3-0.9-0.3c-0.5,0-0.7,0.3-0.7,0.6c0,0.4,0.3,0.5,0.8,0.7
			c0.8,0.3,1.1,0.7,1.1,1.3c0,0.8-0.6,1.3-1.6,1.3c-0.5,0-0.9-0.1-1.2-0.3L194.8,666.5z"/>
	</g>
	<g>
		<path d="M199.4,661.7v1.2h1.1v0.6h-1.1v2.3c0,0.5,0.2,0.8,0.6,0.8c0.2,0,0.4,0,0.5-0.1l0,0.6c-0.2,0.1-0.4,0.1-0.7,0.1
			c-0.4,0-0.7-0.1-0.8-0.3c-0.2-0.2-0.3-0.6-0.3-1.1v-2.4H198v-0.6h0.7v-1L199.4,661.7z"/>
	</g>
	<g>
		<path d="M203.8,667.3l-0.1-0.5h0c-0.2,0.3-0.7,0.6-1.3,0.6c-0.9,0-1.3-0.6-1.3-1.2c0-1,0.9-1.6,2.6-1.6v-0.1c0-0.4-0.1-1-1-1
			c-0.4,0-0.8,0.1-1.1,0.3l-0.2-0.5c0.4-0.2,0.9-0.4,1.4-0.4c1.3,0,1.6,0.9,1.6,1.8v1.6c0,0.4,0,0.7,0.1,1H203.8z M203.7,665.1
			c-0.9,0-1.8,0.1-1.8,1c0,0.5,0.3,0.8,0.7,0.8c0.6,0,0.9-0.4,1-0.7c0-0.1,0-0.2,0-0.3V665.1z"/>
	</g>
	<g>
		<path d="M206.6,661.7c0,0.3-0.2,0.5-0.5,0.5c-0.3,0-0.5-0.2-0.5-0.5c0-0.3,0.2-0.5,0.5-0.5C206.4,661.2,206.6,661.4,206.6,661.7z
			 M205.7,667.3v-4.3h0.8v4.3H205.7z"/>
	</g>
	<g>
		<path d="M207.8,664.3c0-0.5,0-0.9,0-1.4h0.7l0,0.9h0c0.2-0.6,0.7-0.9,1.2-0.9c0.1,0,0.2,0,0.2,0v0.7c-0.1,0-0.2,0-0.3,0
			c-0.6,0-0.9,0.4-1.1,1c0,0.1,0,0.2,0,0.4v2.3h-0.8V664.3z"/>
	</g>
	<g>
		<path d="M210.6,666.5c0.2,0.2,0.6,0.3,1,0.3c0.6,0,0.8-0.3,0.8-0.6c0-0.4-0.2-0.6-0.8-0.8c-0.8-0.3-1.1-0.7-1.1-1.2
			c0-0.7,0.6-1.3,1.5-1.3c0.4,0,0.8,0.1,1.1,0.3l-0.2,0.6c-0.2-0.1-0.5-0.3-0.9-0.3c-0.5,0-0.7,0.3-0.7,0.6c0,0.4,0.3,0.5,0.8,0.7
			c0.8,0.3,1.1,0.7,1.1,1.3c0,0.8-0.6,1.3-1.6,1.3c-0.5,0-0.9-0.1-1.2-0.3L210.6,666.5z"/>
	</g>
	<g>
		<path d="M216.1,666.5c0.2,0.2,0.6,0.3,1,0.3c0.6,0,0.8-0.3,0.8-0.6c0-0.4-0.2-0.6-0.8-0.8c-0.8-0.3-1.1-0.7-1.1-1.2
			c0-0.7,0.6-1.3,1.5-1.3c0.4,0,0.8,0.1,1.1,0.3l-0.2,0.6c-0.2-0.1-0.5-0.3-0.9-0.3c-0.5,0-0.7,0.3-0.7,0.6c0,0.4,0.3,0.5,0.8,0.7
			c0.8,0.3,1.1,0.7,1.1,1.3c0,0.8-0.6,1.3-1.6,1.3c-0.5,0-0.9-0.1-1.2-0.3L216.1,666.5z"/>
	</g>
	<g>
		<path d="M220.2,665.2c0,1.1,0.7,1.5,1.5,1.5c0.6,0,0.9-0.1,1.2-0.2l0.1,0.6c-0.3,0.1-0.8,0.3-1.4,0.3c-1.3,0-2.1-0.9-2.1-2.2
			s0.8-2.3,2-2.3c1.4,0,1.8,1.2,1.8,2c0,0.2,0,0.3,0,0.4H220.2z M222.5,664.7c0-0.5-0.2-1.3-1.1-1.3c-0.8,0-1.1,0.7-1.2,1.3H222.5z"
			/>
	</g>
	<g>
		<path d="M224.2,660.9h0.8v6.4h-0.8V660.9z"/>
	</g>
	<g>
		<path d="M226.4,667.3v-3.7h-0.6v-0.6h0.6v-0.2c0-0.6,0.1-1.2,0.5-1.5c0.3-0.3,0.7-0.4,1.1-0.4c0.3,0,0.5,0.1,0.7,0.1l-0.1,0.6
			c-0.1-0.1-0.3-0.1-0.5-0.1c-0.7,0-0.8,0.6-0.8,1.3v0.2h1v0.6h-1v3.7H226.4z"/>
	</g>
	<g>
		<path d="M230.9,664.3c0-0.6,0-1,0-1.4h0.7l0,0.7h0c0.3-0.5,0.8-0.8,1.5-0.8c1,0,1.8,0.9,1.8,2.2c0,1.6-0.9,2.3-2,2.3
			c-0.6,0-1.1-0.3-1.3-0.7h0v2.4h-0.8V664.3z M231.6,665.5c0,0.1,0,0.2,0,0.3c0.1,0.5,0.6,0.9,1.2,0.9c0.8,0,1.3-0.7,1.3-1.7
			c0-0.9-0.5-1.6-1.3-1.6c-0.5,0-1,0.4-1.2,1c0,0.1-0.1,0.2-0.1,0.3V665.5z"/>
	</g>
	<g>
		<path d="M235.9,664.3c0-0.5,0-0.9,0-1.4h0.7l0,0.9h0c0.2-0.6,0.7-0.9,1.2-0.9c0.1,0,0.2,0,0.2,0v0.7c-0.1,0-0.2,0-0.3,0
			c-0.6,0-0.9,0.4-1.1,1c0,0.1,0,0.2,0,0.4v2.3h-0.8V664.3z"/>
	</g>
	<g>
		<path d="M242.7,665.1c0,1.6-1.1,2.3-2.2,2.3c-1.2,0-2.1-0.9-2.1-2.2c0-1.4,0.9-2.3,2.1-2.3C241.9,662.8,242.7,663.7,242.7,665.1z
			 M239.3,665.1c0,0.9,0.5,1.7,1.3,1.7c0.8,0,1.3-0.7,1.3-1.7c0-0.7-0.4-1.7-1.3-1.7C239.7,663.4,239.3,664.3,239.3,665.1z"/>
	</g>
	<g>
		<path d="M243.7,664.3c0-0.6,0-1,0-1.4h0.7l0,0.7h0c0.3-0.5,0.8-0.8,1.5-0.8c1,0,1.8,0.9,1.8,2.2c0,1.6-0.9,2.3-2,2.3
			c-0.6,0-1.1-0.3-1.3-0.7h0v2.4h-0.8V664.3z M244.5,665.5c0,0.1,0,0.2,0,0.3c0.1,0.5,0.6,0.9,1.2,0.9c0.8,0,1.3-0.7,1.3-1.7
			c0-0.9-0.5-1.6-1.3-1.6c-0.5,0-1,0.4-1.2,1c0,0.1-0.1,0.2-0.1,0.3V665.5z"/>
	</g>
	<g>
		<path d="M249.2,665.2c0,1.1,0.7,1.5,1.5,1.5c0.6,0,0.9-0.1,1.2-0.2l0.1,0.6c-0.3,0.1-0.8,0.3-1.4,0.3c-1.3,0-2.1-0.9-2.1-2.2
			s0.8-2.3,2-2.3c1.4,0,1.8,1.2,1.8,2c0,0.2,0,0.3,0,0.4H249.2z M251.5,664.7c0-0.5-0.2-1.3-1.1-1.3c-0.8,0-1.1,0.7-1.2,1.3H251.5z"
			/>
	</g>
	<g>
		<path d="M253.3,660.9h0.8v6.4h-0.8V660.9z"/>
	</g>
	<g>
		<path d="M255.4,660.9h0.8v6.4h-0.8V660.9z"/>
	</g>
	<g>
		<path d="M257.9,665.2c0,1.1,0.7,1.5,1.5,1.5c0.6,0,0.9-0.1,1.2-0.2l0.1,0.6c-0.3,0.1-0.8,0.3-1.4,0.3c-1.3,0-2.1-0.9-2.1-2.2
			s0.8-2.3,2-2.3c1.4,0,1.8,1.2,1.8,2c0,0.2,0,0.3,0,0.4H257.9z M260.3,664.7c0-0.5-0.2-1.3-1.1-1.3c-0.8,0-1.1,0.7-1.2,1.3H260.3z"
			/>
	</g>
	<g>
		<path d="M265.7,660.9v5.2c0,0.4,0,0.8,0,1.1h-0.7l0-0.8h0c-0.2,0.5-0.8,0.9-1.5,0.9c-1,0-1.9-0.9-1.9-2.2c0-1.4,0.9-2.3,1.9-2.3
			c0.7,0,1.1,0.3,1.3,0.7h0v-2.6H265.7z M264.9,664.7c0-0.1,0-0.2,0-0.3c-0.1-0.5-0.5-0.9-1.1-0.9c-0.8,0-1.3,0.7-1.3,1.7
			c0,0.9,0.4,1.6,1.3,1.6c0.5,0,1-0.3,1.2-0.9c0-0.1,0-0.2,0-0.3V664.7z"/>
	</g>
</g>
<g>
	<path d="M84.8,815.1v1.7h1.5v0.8h-1.5v3.1c0,0.7,0.2,1.1,0.8,1.1c0.3,0,0.5,0,0.6-0.1l0,0.8c-0.2,0.1-0.5,0.1-0.9,0.1
		c-0.5,0-0.9-0.2-1.1-0.4c-0.3-0.3-0.4-0.8-0.4-1.5v-3.2h-0.9v-0.8h0.9v-1.4L84.8,815.1z"/>
	<path d="M87.5,818.6c0-0.7,0-1.3,0-1.8h0.9l0,1.1h0c0.3-0.8,0.9-1.3,1.6-1.3c0.1,0,0.2,0,0.3,0v1c-0.1,0-0.2,0-0.4,0
		c-0.7,0-1.3,0.6-1.4,1.4c0,0.1,0,0.3,0,0.5v3.1h-1V818.6z"/>
	<path d="M94.5,822.6l-0.1-0.7h0c-0.3,0.5-0.9,0.9-1.8,0.9c-1.2,0-1.8-0.8-1.8-1.7c0-1.4,1.2-2.2,3.5-2.2v-0.1
		c0-0.5-0.1-1.3-1.3-1.3c-0.5,0-1.1,0.2-1.5,0.4l-0.2-0.7c0.5-0.3,1.2-0.5,1.9-0.5c1.8,0,2.2,1.2,2.2,2.4v2.2c0,0.5,0,1,0.1,1.4
		H94.5z M94.4,819.6c-1.2,0-2.5,0.2-2.5,1.3c0,0.7,0.5,1,1,1c0.8,0,1.2-0.5,1.4-1c0-0.1,0.1-0.2,0.1-0.3V819.6z"/>
	<path d="M101.2,822.4c-0.3,0.1-0.9,0.3-1.7,0.3c-1.8,0-2.9-1.2-2.9-3c0-1.8,1.2-3.1,3.1-3.1c0.6,0,1.2,0.2,1.5,0.3l-0.2,0.8
		c-0.3-0.1-0.6-0.3-1.2-0.3c-1.3,0-2.1,1-2.1,2.2c0,1.3,0.9,2.2,2,2.2c0.6,0,1-0.2,1.3-0.3L101.2,822.4z"/>
	<path d="M103.9,815.1v1.7h1.5v0.8h-1.5v3.1c0,0.7,0.2,1.1,0.8,1.1c0.3,0,0.5,0,0.6-0.1l0,0.8c-0.2,0.1-0.5,0.1-0.9,0.1
		c-0.5,0-0.9-0.2-1.1-0.4c-0.3-0.3-0.4-0.8-0.4-1.5v-3.2H102v-0.8h0.9v-1.4L103.9,815.1z"/>
	<path d="M111.8,819.6c0,2.1-1.5,3.1-2.9,3.1c-1.6,0-2.8-1.2-2.8-3c0-1.9,1.3-3.1,2.9-3.1C110.7,816.6,111.8,817.9,111.8,819.6z
		 M107.2,819.7c0,1.3,0.7,2.2,1.8,2.2c1,0,1.8-0.9,1.8-2.3c0-1-0.5-2.2-1.7-2.2C107.7,817.4,107.2,818.6,107.2,819.7z"/>
	<path d="M113.1,818.6c0-0.7,0-1.3,0-1.8h0.9l0,1.1h0c0.3-0.8,0.9-1.3,1.6-1.3c0.1,0,0.2,0,0.3,0v1c-0.1,0-0.2,0-0.4,0
		c-0.7,0-1.3,0.6-1.4,1.4c0,0.1,0,0.3,0,0.5v3.1h-1V818.6z"/>
</g>
<g>
	<path d="M394.7,789.1l0.8,3c0.2,0.6,0.3,1.2,0.4,1.8h0c0.1-0.6,0.3-1.2,0.5-1.8l0.9-3h0.9l0.9,2.9c0.2,0.7,0.4,1.3,0.5,1.9h0
		c0.1-0.6,0.3-1.2,0.4-1.9l0.8-2.9h1l-1.9,5.8h-1l-0.9-2.8c-0.2-0.6-0.4-1.2-0.5-1.9h0c-0.1,0.7-0.3,1.3-0.5,1.9l-0.9,2.8h-1
		l-1.8-5.8H394.7z"/>
	<path d="M406.3,794.9l-0.1-0.7h0c-0.3,0.5-0.9,0.9-1.8,0.9c-1.2,0-1.8-0.8-1.8-1.7c0-1.4,1.2-2.2,3.5-2.2V791
		c0-0.5-0.1-1.3-1.3-1.3c-0.5,0-1.1,0.2-1.5,0.4l-0.2-0.7c0.5-0.3,1.2-0.5,1.9-0.5c1.8,0,2.2,1.2,2.2,2.4v2.2c0,0.5,0,1,0.1,1.4
		H406.3z M406.1,791.9c-1.2,0-2.5,0.2-2.5,1.3c0,0.7,0.5,1,1,1c0.8,0,1.2-0.5,1.4-1c0-0.1,0.1-0.2,0.1-0.3V791.9z"/>
	<path d="M410.1,787.4v1.7h1.5v0.8h-1.5v3.1c0,0.7,0.2,1.1,0.8,1.1c0.3,0,0.5,0,0.6-0.1l0,0.8c-0.2,0.1-0.5,0.1-0.9,0.1
		c-0.5,0-0.9-0.2-1.1-0.4c-0.3-0.3-0.4-0.8-0.4-1.5v-3.2h-0.9v-0.8h0.9v-1.4L410.1,787.4z"/>
	<path d="M413.3,792.1c0,1.4,0.9,2,2,2c0.8,0,1.2-0.1,1.6-0.3l0.2,0.8c-0.4,0.2-1,0.4-1.9,0.4c-1.8,0-2.9-1.2-2.9-2.9s1-3.1,2.7-3.1
		c1.9,0,2.4,1.7,2.4,2.7c0,0.2,0,0.4,0,0.5H413.3z M416.4,791.4c0-0.7-0.3-1.7-1.5-1.7c-1.1,0-1.5,1-1.6,1.7H416.4z"/>
	<path d="M418.7,790.9c0-0.7,0-1.3,0-1.8h0.9l0,1.1h0c0.3-0.8,0.9-1.3,1.6-1.3c0.1,0,0.2,0,0.3,0v1c-0.1,0-0.2,0-0.4,0
		c-0.7,0-1.3,0.6-1.4,1.4c0,0.1,0,0.3,0,0.5v3.1h-1V790.9z"/>
	<path d="M425.6,789.1l1.1,3.3c0.2,0.5,0.3,1,0.5,1.5h0c0.1-0.5,0.3-1,0.5-1.5l1.1-3.3h1.1l-2.3,5.8h-1l-2.2-5.8H425.6z"/>
	<path d="M431.4,792.1c0,1.4,0.9,2,2,2c0.8,0,1.2-0.1,1.6-0.3l0.2,0.8c-0.4,0.2-1,0.4-1.9,0.4c-1.8,0-2.9-1.2-2.9-2.9s1-3.1,2.7-3.1
		c1.9,0,2.4,1.7,2.4,2.7c0,0.2,0,0.4,0,0.5H431.4z M434.5,791.4c0-0.7-0.3-1.7-1.5-1.7c-1.1,0-1.5,1-1.6,1.7H434.5z"/>
	<path d="M436.8,786.3h1.1v3.6h0c0.2-0.3,0.4-0.6,0.8-0.7c0.3-0.2,0.7-0.3,1.1-0.3c0.8,0,2,0.5,2,2.5v3.5h-1.1v-3.3
		c0-0.9-0.3-1.7-1.3-1.7c-0.7,0-1.2,0.5-1.4,1.1c-0.1,0.1-0.1,0.3-0.1,0.5v3.5h-1.1V786.3z"/>
	<path d="M444.7,787.4c0,0.4-0.3,0.6-0.7,0.6c-0.4,0-0.6-0.3-0.6-0.6c0-0.4,0.3-0.7,0.7-0.7C444.4,786.8,444.7,787,444.7,787.4z
		 M443.5,794.9v-5.8h1.1v5.8H443.5z"/>
	<path d="M450.4,794.6c-0.3,0.1-0.9,0.3-1.7,0.3c-1.8,0-2.9-1.2-2.9-3c0-1.8,1.2-3.1,3.1-3.1c0.6,0,1.2,0.2,1.5,0.3l-0.2,0.8
		c-0.3-0.1-0.6-0.3-1.2-0.3c-1.3,0-2.1,1-2.1,2.2c0,1.3,0.9,2.2,2,2.2c0.6,0,1-0.2,1.3-0.3L450.4,794.6z"/>
	<path d="M451.7,786.3h1.1v8.5h-1.1V786.3z"/>
	<path d="M455.1,792.1c0,1.4,0.9,2,2,2c0.8,0,1.2-0.1,1.6-0.3l0.2,0.8c-0.4,0.2-1,0.4-1.9,0.4c-1.8,0-2.9-1.2-2.9-2.9s1-3.1,2.7-3.1
		c1.9,0,2.4,1.7,2.4,2.7c0,0.2,0,0.4,0,0.5H455.1z M458.2,791.4c0-0.7-0.3-1.7-1.5-1.7c-1.1,0-1.5,1-1.6,1.7H458.2z"/>
</g>
<g>
	<path d="M21.3,43.5L21.3,43.5l-4,2.1l-0.6-2.3l5-2.7h2.6v22.8h-3V43.5z"/>
</g>
<g>
	<g>
		<g>
			<path d="M320.1,84.7h-44.4c-3.2,0-5.8-2.6-5.8-5.8V48.6c0-3.2,2.6-5.8,5.8-5.8h44.4c3.2,0,5.8,2.6,5.8,5.8v30.3
				C325.9,82.1,323.3,84.7,320.1,84.7z M275.7,46.8c-1,0-1.8,0.8-1.8,1.8v30.3c0,1,0.8,1.8,1.8,1.8h44.4c1,0,1.8-0.8,1.8-1.8V48.6
				c0-1-0.8-1.8-1.8-1.8H275.7z"/>
		</g>
	</g>
	<g>
		<g>
			<rect x="265.6" y="81.4" width="62.4" height="6.7"/>
		</g>
	</g>
	<g>
		<g>
			<circle cx="274.7" cy="89.5" r="4.8"/>
		</g>
	</g>
	<g>
		<g>
			<circle cx="320.7" cy="89.5" r="4.8"/>
		</g>
	</g>
	<g>
		<g>
			<rect x="260.9" y="59" transform="matrix(0.7384 -0.6744 0.6744 0.7384 19.3771 196.1652)" width="3.3" height="28.2"/>
		</g>
	</g>
	<g>
		<g>
			<polygon points="297.9,53.1 288.5,64.3 307.3,64.3 			"/>
		</g>
	</g>
	<g>
		<g>
			<rect x="294" y="60.7" width="8.3" height="12.3"/>
		</g>
	</g>
</g>
<g>
	<g>
		<g>
			<path d="M429.1,84.2h-44.4c-3.2,0-5.8-2.6-5.8-5.8V48.1c0-3.2,2.6-5.8,5.8-5.8h44.4c3.2,0,5.8,2.6,5.8,5.8v30.3
				C434.8,81.6,432.2,84.2,429.1,84.2z M384.6,46.3c-1,0-1.8,0.8-1.8,1.8v30.3c0,1,0.8,1.8,1.8,1.8h44.4c1,0,1.8-0.8,1.8-1.8V48.1
				c0-1-0.8-1.8-1.8-1.8H384.6z"/>
		</g>
	</g>
	<g>
		<g>
			<rect x="374.6" y="80.9" width="62.4" height="6.7"/>
		</g>
	</g>
	<g>
		<g>
			<circle cx="383.7" cy="89" r="4.8"/>
		</g>
	</g>
	<g>
		<g>
			<circle cx="429.7" cy="89" r="4.8"/>
		</g>
	</g>
	<g>
		<g>
			<rect x="369.8" y="58.5" transform="matrix(0.7384 -0.6744 0.6744 0.7384 48.223 269.5235)" width="3.3" height="28.2"/>
		</g>
	</g>
	<g>
		<g>
			<polygon points="406.8,73.1 416.2,61.9 397.5,61.9 			"/>
		</g>
	</g>
	<g>
		<g>
			<rect x="402.4" y="53.2" transform="matrix(-1 -1.224647e-16 1.224647e-16 -1 813.1387 118.7573)" width="8.3" height="12.3"/>
		</g>
	</g>
</g>
<g>
	<path d="M233.4,56.5v-1.7l2.1-2.1c5.1-4.9,7.4-7.5,7.5-10.5c0-2-1-3.9-4-3.9c-1.8,0-3.3,0.9-4.3,1.7l-0.9-1.9c1.4-1.2,3.4-2,5.7-2
		c4.3,0,6.1,3,6.1,5.8c0,3.7-2.7,6.7-6.9,10.8l-1.6,1.5v0.1h9v2.3H233.4z"/>
</g>
<g>
	<path d="M0.9,187"/>
</g>
<g>
	<g>
		<path d="M119.6,234.3H27.5c-3.3,0-6.1-2.7-6.1-6.1v-35.4c0-3.3,2.7-6.1,6.1-6.1h92.1c3.3,0,6.1,2.7,6.1,6.1v35.4
			C125.7,231.5,122.9,234.3,119.6,234.3z"/>
	</g>
	<g>
		<path class="st0" d="M36,214.4h-9c-0.8,0-1.5-0.7-1.5-1.5v-21.3c0-0.8,0.7-1.5,1.5-1.5h9c0.8,0,1.5,0.7,1.5,1.5v21.3
			C37.5,213.7,36.8,214.4,36,214.4z"/>
	</g>
	<g>
		<path class="st0" d="M56.9,214.4H43c-0.8,0-1.5-0.7-1.5-1.5v-21.3c0-0.8,0.7-1.5,1.5-1.5h13.9c0.8,0,1.5,0.7,1.5,1.5v21.3
			C58.4,213.7,57.7,214.4,56.9,214.4z"/>
	</g>
	<g>
		<path class="st0" d="M77,214.4H63.2c-0.8,0-1.5-0.7-1.5-1.5v-21.3c0-0.8,0.7-1.5,1.5-1.5H77c0.8,0,1.5,0.7,1.5,1.5v21.3
			C78.6,213.7,77.9,214.4,77,214.4z"/>
	</g>
	<g>
		<path class="st0" d="M97.2,214.4H83.4c-0.8,0-1.5-0.7-1.5-1.5v-21.3c0-0.8,0.7-1.5,1.5-1.5h13.9c0.8,0,1.5,0.7,1.5,1.5v21.3
			C98.8,213.7,98.1,214.4,97.2,214.4z"/>
	</g>
	<g>
		<path class="st0" d="M120.9,214.4h-9.2c-0.5,0-0.6-0.2-1-0.6c-1.8-2-8.1-9.4-8.1-9.4c-0.1-0.2-0.2-0.2-0.3-0.7
			c0-0.2-0.1-0.6-0.1-0.7l0-11.8c0-0.6,0.5-1,1-1h17.6c0.6,0,1,0.5,1,1v22.2C121.9,213.9,121.5,214.4,120.9,214.4z"/>
	</g>
	<g>
		<circle cx="41.5" cy="236.6" r="5.7"/>
	</g>
	<g>
		<circle cx="110.5" cy="236.8" r="5.7"/>
	</g>
</g>
<g>
	<g>
		<path class="st1" d="M143.4,234.3h79.7L222,226c0,0-1-3.9-3.6-5c-2.6-1.2-17.7-3.3-17.7-3.3l-15-14.1l-31.7,0.3
			c-0.3,0-8.7,14.4-8.7,14.4h-7.5c0,0-1.9-0.3-2.6,1.9c-0.7,2.2-2.4,14.1-2.4,14.1H143.4z"/>
	</g>
	<g>
		<polygon class="st2" points="178,205.5 185.4,205.5 197.5,217.7 178,218.2 		"/>
	</g>
	<g>
		<polygon class="st2" points="155.1,205.5 154.8,205.9 148.3,218.2 155.1,218.2 		"/>
	</g>
	<g>
		<rect x="157.9" y="205.5" class="st2" width="17.5" height="12.7"/>
	</g>
	<g>
		<circle cx="150.4" cy="234.3" r="5.7"/>
	</g>
	<g>
		<circle cx="201.2" cy="234.3" r="5.7"/>
	</g>
</g>
<g>
	<path d="M455,63.1c0.8,0.5,2.7,1.3,4.7,1.3c3.7,0,4.8-2.3,4.8-4.1c0-3-2.7-4.2-5.5-4.2h-1.6V54h1.6c2.1,0,4.7-1.1,4.7-3.6
		c0-1.7-1.1-3.2-3.7-3.2c-1.7,0-3.3,0.7-4.2,1.4l-0.7-2.1c1.1-0.8,3.3-1.6,5.5-1.6c4.2,0,6,2.5,6,5c0,2.2-1.3,4-3.9,5V55
		c2.6,0.5,4.7,2.5,4.7,5.4c0,3.4-2.6,6.3-7.7,6.3c-2.4,0-4.5-0.7-5.5-1.4L455,63.1z"/>
</g>
<g>
	<path d="M12.4,195.9v-4.2H5.2v-1.4l6.9-9.9h2.3v9.6h2.2v1.6h-2.2v4.2H12.4z M12.4,190.1v-5.2c0-0.8,0-1.6,0.1-2.4h-0.1
		c-0.5,0.9-0.9,1.6-1.3,2.3L7.3,190v0H12.4z"/>
</g>
<g>
	<g>
		<g>
			<rect x="234.6" y="364.6" width="72.2" height="7.7"/>
		</g>
	</g>
	<g>
		<g>
			<circle cx="245.2" cy="374" r="5.5"/>
		</g>
	</g>
	<g>
		<g>
			<circle cx="298.4" cy="374" r="5.5"/>
		</g>
	</g>
	<g>
		<path d="M292.7,368.4h-43.9c-3.1,0-5.7-2.6-5.7-5.7v-46.3c0-3.1,2.6-5.7,5.7-5.7h43.9c3.1,0,5.7,2.6,5.7,5.7v46.3
			C298.4,365.9,295.9,368.4,292.7,368.4z"/>
	</g>
	<g>
		<g>
			<path class="st2" d="M268.9,349.5c-0.5-0.1-1-0.1-1.5-0.2c-2.6-0.6-4.5-3-4.6-5.7c0-1.8,0-3.5,0-5.3c0-0.9,0.6-1.5,1.5-1.5
				c0.2,0,0.4,0,0.7,0c0-0.2,0-0.3,0-0.5c0-1.6,0-3.2,0-4.8c0-1,0.8-1.7,1.7-1.5c0.7,0.1,1.1,0.7,1.1,1.5c0,1.6,0,3.1,0,4.7
				c0,0.2,0,0.3,0,0.5c1.9,0,3.7,0,5.5,0c0-0.2,0-0.3,0-0.4c0-1.6,0-3.2,0-4.8c0-1,0.7-1.6,1.7-1.5c0.7,0.1,1.2,0.7,1.2,1.4
				c0,1.6,0,3.3,0,4.9c0,0.1,0,0.2,0,0.4c0.2,0,0.5,0,0.7,0c0.9,0,1.5,0.6,1.5,1.5c0,2,0.1,3.9-0.1,5.9c-0.2,2.8-2.7,5.2-5.4,5.3
				c-0.2,0-0.4,0-0.5,0c0,1.1-0.1,2.2,0,3.2c0.1,0.9,0.6,1.3,1.6,1.3c1.7-0.2,3.3-0.7,4.7-1.7c4.2-3,6.4-7,6.5-12.2
				c0.1-6.8-4.6-12.7-11.1-14.4c-8.2-2.1-16.5,3.1-18.2,11.4c-1.3,6.2,1.5,12.5,7,15.8c0.5,0.3,1,0.6,1.5,1c0.3,0.2,0.6,0.6,0.8,0.9
				c0.6,1,0,2.1-1.1,2.3c-0.4,0-0.9,0-1.3-0.2c-5.5-2.6-9.1-6.9-10.4-12.9c-2-9,3.2-18.2,12-21.2c7.6-2.6,15.8-0.1,20.6,6.3
				c2.6,3.4,3.9,7.3,3.7,11.6c-0.3,5.4-2.4,10-6.6,13.5c-2.5,2.1-5.4,3.2-8.6,3.3c-0.9,0-1.7,0-2.6-0.1c-0.7,0-1.2-0.5-1.6-1.1
				c-0.4-0.7-0.6-1.6-0.6-2.4c0-1.3,0-2.6,0-3.9C268.9,349.8,268.9,349.7,268.9,349.5z"/>
		</g>
	</g>
</g>
<g>
	<g>
		<rect x="471" y="353.7" width="93.7" height="10"/>
	</g>
	<g>
		<circle cx="484.6" cy="365.9" r="7.2"/>
	</g>
	<g>
		<circle cx="553.8" cy="365.9" r="7.2"/>
	</g>
	<g>
		<rect x="463.8" y="320" transform="matrix(0.7384 -0.6744 0.6744 0.7384 -108.0999 403.7308)" width="5" height="42.3"/>
	</g>
	<g>
		<rect x="513.5" y="319.1" width="48.2" height="37.6"/>
		<path d="M564.7,359.7h-54.2v-43.6h54.2V359.7z M516.5,353.7h42.2v-31.6h-42.2V353.7z"/>
	</g>
	<g>
		<path class="st2" d="M541.3,277.5c0,0,6.1,2.6,5.8,8.7c-0.2,6.1-5.5,7-5.8,14.2c-0.2,7.2,5.8,8.3,5.8,8.3"/>
		<path d="M546.9,310.1c-2.5-0.4-7.2-3.1-7-9.8c0.1-4.2,1.8-6.6,3.3-8.6c1.2-1.7,2.3-3.2,2.4-5.6c0.2-5-4.7-7.1-4.9-7.2l1.2-2.8
			c0.3,0.1,7,3.1,6.7,10.1c-0.1,3.4-1.6,5.4-3,7.3c-1.4,1.9-2.7,3.6-2.8,6.9c-0.2,5.7,4,6.7,4.5,6.7L546.9,310.1z"/>
	</g>
	<g>
		<path class="st2" d="M533.3,277.5c0,0,6.1,2.6,5.8,8.7c-0.2,6.1-5.5,7-5.8,14.2c-0.2,7.2,5.8,8.3,5.8,8.3"/>
		<path d="M538.8,310.1c-2.5-0.4-7.2-3.1-7-9.8c0.1-4.2,1.8-6.6,3.3-8.6c1.2-1.7,2.3-3.2,2.4-5.6c0.2-5-4.9-7.2-4.9-7.2l1.2-2.8
			c0.3,0.1,7,3.1,6.7,10.1c-0.1,3.4-1.6,5.4-3,7.3c-1.4,1.9-2.7,3.6-2.8,6.9c-0.2,5.8,4.3,6.7,4.5,6.7L538.8,310.1z"/>
	</g>
	<g>
		<path class="st2" d="M524.8,278.3c0,0,6.1,2.6,5.8,8.7c-0.2,6.1-5.5,7-5.8,14.2c-0.2,7.2,5.8,8.3,5.8,8.3"/>
		<path d="M530.3,310.9c-2.5-0.4-7.2-3.1-7-9.8c0.1-4.2,1.8-6.6,3.3-8.6c1.2-1.7,2.3-3.2,2.4-5.6c0.2-5-4.9-7.2-4.9-7.2l1.2-2.8
			c0.3,0.1,7,3.1,6.7,10.1c-0.1,3.4-1.6,5.4-3,7.3c-1.4,1.9-2.7,3.6-2.8,6.9c-0.2,5.7,4,6.7,4.5,6.7L530.3,310.9z"/>
	</g>
</g>
<g>
	<g id="XMLID_4_">
		<g>
			<path d="M327.2,448.4v54h-79.6v-19.1c0-3.5,2.5-6.4,5.9-7l30.9-5.3l9.7-23.1L327.2,448.4z M323.4,475.9v-24.7h-9l0.7,24.7H323.4z
				 M311.3,475.9v-24.7l-15.7,0l-10,24.7H311.3z"/>
		</g>
	</g>
	<g>
		<circle cx="264.8" cy="505.7" r="7.7"/>
	</g>
	<g>
		<circle cx="314.3" cy="505.7" r="7.7"/>
	</g>
	<g>
		<rect x="324.3" y="480.8" width="6.7" height="21.6"/>
	</g>
	<g>
		<rect x="323.5" y="486.4" transform="matrix(0.9518 -0.3066 0.3066 0.9518 -133.4931 128.0732)" width="34.9" height="5"/>
	</g>
</g>
<g>
	<g id="XMLID_7_">
		<g>
			<path d="M468.8,447.7v54.5h-80.3v-19.3c0-3.5,2.5-6.5,6-7.1l31.2-5.3l9.8-23.3L468.8,447.7z M464.9,475.5v-25h-9.1l0.7,25H464.9z
				 M452.8,475.5v-25l-15.9,0l-10.1,25H452.8z"/>
		</g>
	</g>
	<g>
		<circle cx="556.1" cy="502.5" r="10.9"/>
	</g>
	<g>
		<rect x="465.9" y="480.4" width="6.8" height="21.8"/>
	</g>
	<g>
		<rect x="451.6" y="488.9" width="128" height="13.3"/>
	</g>
	<g>
		<rect x="466.3" y="467.7" width="33.1" height="23.7"/>
	</g>
	<g>
		<circle cx="408.8" cy="502.5" r="10.9"/>
	</g>
	<g>
		<circle cx="532.1" cy="502.5" r="10.9"/>
	</g>
</g>
<g>
	<g id="XMLID_5_">
		<g>
			<path d="M98,773.4v-58.1H80.6l-10.4,36.9l0.7,21.3H98z M110.2,745.3l0-30h-9.6v30.2L110.2,745.3z M113,712.2v33.3l16.2,13.6v28.5
				H61v-19.8l16.3-55.5H113z"/>
		</g>
	</g>
	<g>
		<circle cx="77.2" cy="790" r="7.8"/>
	</g>
	<g>
		<circle cx="113.4" cy="790.2" r="7.8"/>
	</g>
	<g>
		<g>
			<path class="st2" d="M112.4,773.4c-0.3,0-0.6-0.1-0.9-0.1c-1.7-0.4-2.8-1.9-2.9-3.6c0-1.1,0-2.2,0-3.3c0-0.6,0.4-0.9,1-1
				c0.1,0,0.3,0,0.4,0c0-0.1,0-0.2,0-0.3c0-1,0-2,0-3c0-0.6,0.5-1,1.1-0.9c0.4,0.1,0.7,0.5,0.7,0.9c0,1,0,2,0,2.9c0,0.1,0,0.2,0,0.3
				c1.2,0,2.3,0,3.5,0c0-0.1,0-0.2,0-0.3c0-1,0-2,0-3c0-0.6,0.5-1,1-0.9c0.4,0.1,0.7,0.4,0.7,0.9c0,1,0,2,0,3.1c0,0.1,0,0.2,0,0.3
				c0.2,0,0.3,0,0.4,0c0.6,0,1,0.4,1,0.9c0,1.2,0,2.5,0,3.7c-0.1,1.7-1.7,3.2-3.4,3.3c-0.1,0-0.2,0-0.3,0c0,0.7,0,1.4,0,2
				c0,0.6,0.4,0.8,1,0.8c1.1-0.1,2.1-0.4,2.9-1.1c2.6-1.9,4-4.4,4.1-7.6c0.1-4.2-2.9-8-7-9c-5.1-1.3-10.3,2-11.4,7.1
				c-0.8,3.9,1,7.8,4.4,9.9c0.3,0.2,0.6,0.4,0.9,0.6c0.2,0.2,0.4,0.3,0.5,0.6c0.4,0.6,0,1.3-0.7,1.4c-0.3,0-0.6,0-0.8-0.1
				c-3.5-1.6-5.7-4.3-6.5-8.1c-1.3-5.6,2-11.4,7.5-13.3c4.8-1.6,9.9,0,12.9,4c1.6,2.1,2.4,4.6,2.3,7.3c-0.2,3.4-1.5,6.3-4.1,8.5
				c-1.5,1.3-3.4,2-5.4,2.1c-0.5,0-1.1,0-1.6-0.1c-0.5,0-0.8-0.3-1-0.7c-0.3-0.5-0.4-1-0.4-1.5c0-0.8,0-1.6,0-2.5
				C112.4,773.6,112.4,773.5,112.4,773.4z"/>
		</g>
	</g>
</g>
<g>
	<g>
		<rect x="388.5" y="756" width="109.5" height="10"/>
	</g>
	<g>
		<circle cx="404.4" cy="769.4" r="8.4"/>
	</g>
	<g>
		<circle cx="485.2" cy="769.4" r="8.4"/>
	</g>
	<g id="XMLID_6_">
		<g>
			<path d="M503.8,731.9v26.9h-49.2v-45.6h26.8L503.8,731.9z M466.6,733.7h29.2L479.2,719h-12.7V733.7z"/>
		</g>
	</g>
	<g>
		<rect x="377.4" y="721.5" width="73.4" height="36.6"/>
	</g>
	<g>
		<path d="M395.9,751.3h-34.5v-29.8h34.5V751.3z M366.4,746.3h24.5v-19.8h-24.5V746.3z"/>
	</g>
	<g>
		<g>
			<circle class="st2" cx="416.2" cy="747" r="7.2"/>
		</g>
		<g>
			<polygon class="st2" points="416.4,730.8 409.8,743.9 422.7,743.9 			"/>
		</g>
	</g>
</g>
<g>
	<g>
		<circle cx="422.6" cy="639.9" r="11.2"/>
	</g>
	<g>
		<polygon points="499,650.5 377.5,632.7 380.6,618.7 386.4,620 384.8,627.7 499.9,644.6 		"/>
	</g>
</g>
<g>
	<path d="M242.2,174.4h-8.7l-0.9,5.8c0.5-0.1,1-0.1,1.9-0.1c1.8,0,3.5,0.4,4.9,1.2c1.8,1,3.3,3,3.3,5.8c0,4.4-3.5,7.8-8.5,7.8
		c-2.5,0-4.6-0.7-5.7-1.4l0.8-2.3c0.9,0.6,2.8,1.3,4.9,1.3c2.9,0,5.4-1.9,5.4-4.9c0-2.9-2-5-6.5-5c-1.3,0-2.3,0.1-3.2,0.2l1.5-10.9
		h10.9V174.4z"/>
</g>
<g>
	<path d="M430.9,191.5c-0.6,0-1.4,0-2.3,0.1c-4.8,0.8-7.4,4.3-7.9,8.1h0.1c1.1-1.4,3-2.6,5.5-2.6c4,0,6.9,2.9,6.9,7.4
		c0,4.2-2.8,8-7.6,8c-4.9,0-8.1-3.8-8.1-9.7c0-4.5,1.6-8,3.9-10.3c1.9-1.9,4.4-3,7.3-3.4c0.9-0.1,1.7-0.2,2.2-0.2V191.5z M430,204.6
		c0-3.3-1.9-5.2-4.7-5.2c-1.9,0-3.6,1.2-4.4,2.8c-0.2,0.4-0.4,0.8-0.4,1.4c0.1,3.7,1.8,6.5,5,6.5C428.2,210.1,430,207.9,430,204.6z"
		/>
</g>
<g>
	<path d="M41,312.2v2l-9.9,20.7h-3.2l9.9-20.1v-0.1H26.7v-2.6H41z"/>
</g>
<g>
	<path d="M217.3,313.3c0-2.9,1.7-4.9,4.5-6.1l0-0.1c-2.5-1.2-3.6-3.2-3.6-5.1c0-3.6,3-6.1,7-6.1c4.4,0,6.6,2.8,6.6,5.6
		c0,1.9-0.9,4-3.7,5.3v0.1c2.8,1.1,4.6,3.1,4.6,5.9c0,4-3.4,6.6-7.7,6.6C220.2,319.5,217.3,316.7,217.3,313.3z M229.5,313.2
		c0-2.8-1.9-4.1-5-5c-2.7,0.8-4.1,2.5-4.1,4.7c-0.1,2.3,1.6,4.3,4.6,4.3C227.8,317.3,229.5,315.5,229.5,313.2z M221.1,301.8
		c0,2.3,1.7,3.5,4.3,4.2c2-0.7,3.5-2.1,3.5-4.1c0-1.8-1.1-3.7-3.9-3.7C222.5,298.2,221.1,299.9,221.1,301.8z"/>
</g>
<g>
	<path d="M439.2,316.9c0.7,0.1,1.4,0,2.5-0.1c1.8-0.2,3.5-1,4.8-2.2c1.5-1.4,2.6-3.4,3-6.1h-0.1c-1.3,1.5-3.1,2.5-5.4,2.5
		c-4.1,0-6.7-3.1-6.7-7c0-4.3,3.1-8.1,7.8-8.1s7.5,3.8,7.5,9.6c0,5-1.7,8.5-3.9,10.7c-1.8,1.7-4.2,2.8-6.6,3
		c-1.1,0.2-2.1,0.2-2.8,0.2V316.9z M440.4,303.9c0,2.8,1.7,4.8,4.4,4.8c2.1,0,3.7-1,4.5-2.4c0.2-0.3,0.3-0.6,0.3-1.1
		c0-3.9-1.4-6.9-4.7-6.9C442.2,298.3,440.4,300.6,440.4,303.9z"/>
</g>
<g>
	<path d="M32.3,418.6L32.3,418.6l-4,2.1l-0.6-2.3l5-2.7h2.6v22.8h-3V418.6z"/>
	<path d="M58.7,426.9c0,7.7-2.9,12-7.9,12c-4.4,0-7.5-4.2-7.5-11.7c0-7.6,3.3-11.8,7.9-11.8C55.9,415.4,58.7,419.6,58.7,426.9z
		 M46.3,427.2c0,5.9,1.8,9.3,4.6,9.3c3.2,0,4.7-3.7,4.7-9.5c0-5.6-1.4-9.3-4.6-9.3C48.3,417.7,46.3,421,46.3,427.2z"/>
</g>
<g>
	<path d="M255.8,418.1L255.8,418.1l-4,2.1l-0.6-2.3l5-2.7h2.6V438h-3V418.1z"/>
	<path d="M273.7,418.1L273.7,418.1l-4,2.1l-0.6-2.3l5-2.7h2.6V438h-3V418.1z"/>
</g>
<g>
	<path d="M396.8,427.3L396.8,427.3l-4,2.1l-0.6-2.3l5-2.7h2.6v22.8h-3V427.3z"/>
	<path d="M408,447.2v-1.9l2.4-2.3c5.8-5.5,8.4-8.5,8.5-11.9c0-2.3-1.1-4.4-4.5-4.4c-2.1,0-3.8,1-4.8,1.9l-1-2.2
		c1.6-1.3,3.8-2.3,6.4-2.3c4.9,0,7,3.4,7,6.6c0,4.2-3,7.6-7.8,12.2l-1.8,1.7v0.1h10.2v2.6H408z"/>
</g>
<g>
	<path d="M39.3,581.1L39.3,581.1l-4,2.1l-0.6-2.3l5-2.7h2.6V601h-3V581.1z"/>
	<path d="M51.3,597.5c0.9,0.6,2.9,1.4,5,1.4c4,0,5.2-2.5,5.1-4.4c0-3.2-2.9-4.6-5.9-4.6h-1.7v-2.3h1.7c2.2,0,5.1-1.2,5.1-3.9
		c0-1.8-1.2-3.4-4-3.4c-1.8,0-3.6,0.8-4.6,1.5l-0.8-2.2c1.2-0.9,3.5-1.8,6-1.8c4.5,0,6.5,2.7,6.5,5.4c0,2.3-1.4,4.3-4.2,5.4v0.1
		c2.8,0.6,5.1,2.7,5.1,5.8c0,3.6-2.8,6.8-8.3,6.8c-2.6,0-4.8-0.8-5.9-1.5L51.3,597.5z"/>
</g>
<g>
	<g>
		<g>
			<polygon points="193.6,626.1 193.6,639.7 208.6,626.1 			"/>
		</g>
	</g>
	<g>
		<g>
			<polyline points="208.6,626.1 223.7,612.5 208.6,612.5 			"/>
		</g>
	</g>
	<g>
		<g>
			<polyline points="223.7,612.5 238.8,598.9 223.7,598.9 			"/>
		</g>
	</g>
	<g>
		<g>
			<polyline points="238.8,585.3 253.8,585.3 238.8,598.9 			"/>
		</g>
	</g>
	<g>
		<g>
			<rect x="181.3" y="605.6" transform="matrix(0.7411 -0.6714 0.6714 0.7411 -347.409 312.5871)" width="100.5" height="2.2"/>
		</g>
	</g>
	<g>
		<g>
			<polyline points="253.4,585.6 268.4,572.1 253.4,572.1 			"/>
		</g>
	</g>
	<g>
		<g>
			<rect x="239.3" y="597.9" width="3" height="42.9"/>
		</g>
	</g>
	<g>
		<g>
			<ellipse cx="214" cy="645.1" rx="5.3" ry="5.5"/>
		</g>
	</g>
	<g>
		<g>
			<ellipse cx="257.2" cy="645.1" rx="5.3" ry="5.5"/>
		</g>
	</g>
	<g>
		<g>
			<rect x="230" y="601.2" transform="matrix(3.316195e-03 -1 1 3.316195e-03 -408.3528 871.5042)" width="6" height="78.9"/>
		</g>
	</g>
	<g>
		<g>
			<polygon points="260.2,621.4 260.2,638.7 278.3,638.7 278.3,627.3 			"/>
		</g>
	</g>
	<g>
		<g>
			<rect x="241.9" y="626.1" width="14.5" height="12.6"/>
		</g>
	</g>
	<g>
		<g>
			<rect x="241.9" y="615.3" width="6.5" height="11.5"/>
		</g>
	</g>
	<g>
		<path d="M202.3,556.6L202.3,556.6l-4,2.1l-0.6-2.3l5-2.7h2.6v22.8h-3V556.6z"/>
		<path d="M223.1,576.5v-6.2h-10.6v-2l10.2-14.5h3.3v14.1h3.2v2.4H226v6.2H223.1z M223.1,567.9v-7.6c0-1.2,0-2.4,0.1-3.6h-0.1
			c-0.7,1.3-1.3,2.3-1.9,3.4l-5.6,7.7v0.1H223.1z"/>
	</g>
</g>
<g>
	<path d="M353.3,582.6L353.3,582.6l-4,2.1l-0.6-2.3l5-2.7h2.6v22.8h-3V582.6z"/>
	<path d="M378.1,582.3h-8.7l-0.9,5.8c0.5-0.1,1-0.1,1.9-0.1c1.8,0,3.5,0.4,4.9,1.2c1.8,1,3.3,3,3.3,5.8c0,4.4-3.5,7.8-8.5,7.8
		c-2.5,0-4.6-0.7-5.7-1.4l0.8-2.3c0.9,0.6,2.8,1.3,4.9,1.3c2.9,0,5.4-1.9,5.4-4.9c0-2.9-2-5-6.5-5c-1.3,0-2.3,0.1-3.2,0.2l1.5-10.9
		h10.9V582.3z"/>
</g>
<g>
	<path d="M26.3,727.6L26.3,727.6l-4,2.1l-0.6-2.3l5-2.7h2.6v22.8h-3V727.6z"/>
	<path d="M50.5,726.9c-0.6,0-1.4,0-2.3,0.1c-4.8,0.8-7.4,4.3-7.9,8.1h0.1c1.1-1.4,3-2.6,5.5-2.6c4,0,6.9,2.9,6.9,7.4
		c0,4.2-2.8,8-7.6,8c-4.9,0-8.1-3.8-8.1-9.7c0-4.5,1.6-8,3.9-10.3c1.9-1.9,4.4-3,7.3-3.4c0.9-0.1,1.7-0.2,2.2-0.2V726.9z M49.6,740
		c0-3.3-1.9-5.2-4.7-5.2c-1.9,0-3.6,1.2-4.4,2.8c-0.2,0.3-0.4,0.8-0.4,1.4c0.1,3.7,1.8,6.5,5,6.5C47.9,745.5,49.6,743.3,49.6,740z"
		/>
</g>
<g>
	<path d="M329.8,722.6L329.8,722.6l-4,2.1l-0.6-2.3l5-2.7h2.6v22.8h-3V722.6z"/>
	<path d="M355.8,719.7v2l-9.9,20.7h-3.2l9.9-20.1v-0.1h-11.1v-2.6H355.8z"/>
</g>
<g>
	<g>
		<g>
			<rect x="335.5" y="365.7" width="72.2" height="7.7"/>
		</g>
	</g>
	<g>
		<g>
			<circle cx="346.1" cy="375.1" r="5.5"/>
		</g>
	</g>
	<g>
		<g>
			<circle cx="399.3" cy="375.1" r="5.5"/>
		</g>
	</g>
	<g>
		<path d="M394.6,369.6h-43.9c-3.1,0-5.7-2.6-5.7-5.7v-46.3c0-3.1,2.6-5.7,5.7-5.7h43.9c3.1,0,5.7,2.6,5.7,5.7v46.3
			C400.3,367,397.7,369.6,394.6,369.6z"/>
	</g>
	<g>
		<g>
			<path class="st2" d="M363.6,359.6c-0.1,0-0.2-0.1-0.3-0.1c-2.3-0.6-3.7-2.4-3.7-4.8c0-7.4,0-14.7,0-22.1c0-0.3,0.1-0.7,0.2-1
				c0.1,0,0.1-0.1,0.2-0.1c-0.6-0.5-1.2-1.1-1.8-1.6c-0.6-0.6-0.6-1,0-1.5c1.4-1.4,2.8-2.8,4.2-4.2c0.6-0.6,1-0.7,1.5,0
				c0.9,1.3,2.1,1.5,3.6,1.4c1.1-0.1,2-0.4,2.8-1.1c0.9-0.8,1.7-1.6,2.6-2.3c0.8-0.6,1.7-1,2.6-1.5c2.5,0,5.1,0,7.6,0
				c0.1,0,0.2,0.1,0.3,0.1c2.3,0.7,3.8,2.4,3.8,4.8c0,9.7,0,19.4,0,29.1c0,1.7-0.7,3.2-2.2,4.1c-0.6,0.4-1.2,0.6-1.9,0.8
				C376.6,359.6,370.1,359.6,363.6,359.6z M385.6,340.1c0-4.8,0-9.6,0-14.5c0-2-1.3-3.4-3.3-3.4c-1.9,0-3.9,0-5.8,0
				c-0.9,0-1.6,0.3-2.3,0.9c-0.8,0.7-1.7,1.4-2.4,2.2c-1.3,1.3-2.9,1.9-4.7,1.8c-0.3,0-0.7,0.2-1,0.4c-1.5,1.5-2.9,3-4.3,4.5
				c-0.4,0.4-0.5,0.7-0.5,1.3c0,7,0,14,0,21c0,2.3,1.3,3.6,3.6,3.6c5.7,0,11.4,0,17.1,0c2.3,0,3.6-1.3,3.6-3.6
				C385.6,349.6,385.6,344.8,385.6,340.1z M360.6,330c1.2-1.2,2.3-2.3,3.3-3.3c-0.2-0.3-0.5-0.7-0.7-0.9c-1.2,1.2-2.3,2.3-3.4,3.4
				C360.1,329.4,360.5,329.8,360.6,330z"/>
		</g>
		<g>
			<path class="st2" d="M374.4,344.3c0.4,0.3,0.7,0.5,1,0.8c2,1.9,3.9,3.9,5.9,5.9c0.4,0.4,0.5,0.8,0.1,1.3
				c-0.4,0.4-0.9,0.3-1.3-0.1c-0.1-0.1-0.2-0.2-0.3-0.3c-1.9-1.9-3.8-3.8-5.8-5.8c-0.2-0.2-0.4-0.4-0.6-0.7
				c-0.3,0.3-0.5,0.4-0.7,0.6c-2,2-4,4-5.9,5.9c-0.2,0.2-0.3,0.4-0.5,0.4c-0.3,0-0.8,0.1-1-0.1c-0.2-0.2-0.2-0.6-0.1-0.9
				c0-0.2,0.3-0.4,0.5-0.6c2-2,3.9-3.9,5.9-5.9c0.2-0.2,0.5-0.3,0.8-0.5c-2.3-2.3-4.4-4.4-6.6-6.6c-0.2-0.2-0.3-0.3-0.5-0.5
				c-0.3-0.4-0.4-0.9,0-1.1c0.3-0.2,0.8-0.1,1.1,0c0.3,0.1,0.5,0.5,0.8,0.7c2,2,4.1,4.1,6.2,6.2c0.3-0.4,0.6-0.8,0.9-1.1
				c1.8-1.8,3.7-3.7,5.5-5.5c0.2-0.2,0.3-0.4,0.5-0.5c0.3-0.1,0.9-0.1,1,0.1c0.2,0.2,0.1,0.7,0.1,1.1c0,0.2-0.3,0.3-0.5,0.5
				C378.8,339.8,376.7,342,374.4,344.3z"/>
		</g>
		<g>
			<path class="st2" d="M379.9,325.5c-0.8,0-1.6,0-2.4,0c-0.5,0-0.9-0.3-0.9-0.8c0-0.5,0.4-0.8,0.9-0.8c1.6,0,3.1,0,4.7,0
				c0.5,0,0.9,0.3,0.9,0.8c0,0.5-0.4,0.8-0.9,0.8C381.4,325.5,380.7,325.5,379.9,325.5z"/>
		</g>
	</g>
</g>
<g>
	<g id="XMLID_8_">
		<g>
			<path d="M205.6,773.4v-58.1h-17.4l-10.4,36.9l0.7,21.3H205.6z M217.8,745.3l0-30h-9.6v30.2L217.8,745.3z M220.6,712.2v33.3
				l16.2,13.6v28.5h-68.3v-19.8l16.3-55.5H220.6z"/>
		</g>
	</g>
	<g>
		<circle cx="184.8" cy="790" r="7.8"/>
	</g>
	<g>
		<circle cx="221" cy="790.2" r="7.8"/>
	</g>
	<g>
		<g>
			<path class="st2" d="M215.1,782.6c-0.1,0-0.1-0.1-0.2-0.1c-1.5-0.4-2.4-1.6-2.4-3.1c0-4.7,0-9.4,0-14.2c0-0.2,0.1-0.4,0.1-0.7
				c0,0,0.1-0.1,0.1-0.1c-0.4-0.3-0.8-0.7-1.2-1c-0.4-0.4-0.4-0.6,0-1c0.9-0.9,1.8-1.8,2.7-2.7c0.4-0.4,0.7-0.4,1,0
				c0.6,0.8,1.4,1,2.3,0.9c0.7,0,1.3-0.2,1.8-0.7c0.5-0.5,1.1-1,1.7-1.5c0.5-0.4,1.1-0.6,1.7-1c1.6,0,3.3,0,4.9,0
				c0.1,0,0.1,0.1,0.2,0.1c1.5,0.4,2.4,1.5,2.4,3.1c0,6.2,0,12.5,0,18.7c0,1.1-0.5,2-1.4,2.6c-0.4,0.2-0.8,0.4-1.2,0.5
				C223.4,782.6,219.2,782.6,215.1,782.6z M229.1,770.1c0-3.1,0-6.2,0-9.3c0-1.3-0.8-2.2-2.1-2.2c-1.2,0-2.5,0-3.7,0
				c-0.6,0-1,0.2-1.5,0.6c-0.5,0.5-1.1,0.9-1.6,1.4c-0.8,0.8-1.8,1.2-3,1.2c-0.2,0-0.5,0.1-0.6,0.3c-0.9,1-1.8,1.9-2.8,2.9
				c-0.2,0.2-0.3,0.5-0.3,0.8c0,4.5,0,9,0,13.5c0,1.5,0.8,2.3,2.3,2.3c3.7,0,7.3,0,11,0c1.5,0,2.3-0.8,2.3-2.3
				C229.1,776.2,229.1,773.1,229.1,770.1z M213.2,763.6c0.7-0.7,1.5-1.5,2.1-2.1c-0.1-0.2-0.3-0.4-0.4-0.6c-0.7,0.7-1.5,1.5-2.2,2.2
				C212.8,763.2,213,763.4,213.2,763.6z"/>
		</g>
		<g>
			<path class="st2" d="M222,772.8c0.2,0.2,0.5,0.3,0.7,0.5c1.3,1.2,2.5,2.5,3.8,3.8c0.3,0.3,0.3,0.5,0.1,0.8
				c-0.3,0.3-0.6,0.2-0.8-0.1c-0.1-0.1-0.1-0.1-0.2-0.2c-1.2-1.2-2.5-2.5-3.7-3.7c-0.1-0.1-0.2-0.3-0.4-0.5
				c-0.2,0.2-0.3,0.3-0.4,0.4c-1.3,1.3-2.5,2.5-3.8,3.8c-0.1,0.1-0.2,0.3-0.3,0.3c-0.2,0-0.5,0-0.6-0.1c-0.1-0.1-0.1-0.4-0.1-0.6
				c0-0.1,0.2-0.2,0.3-0.4c1.3-1.3,2.5-2.5,3.8-3.8c0.1-0.1,0.3-0.2,0.5-0.3c-1.5-1.5-2.9-2.8-4.2-4.2c-0.1-0.1-0.2-0.2-0.3-0.3
				c-0.2-0.2-0.2-0.6,0-0.7c0.2-0.1,0.5-0.1,0.7,0c0.2,0.1,0.3,0.3,0.5,0.5c1.3,1.3,2.6,2.6,4,4c0.2-0.2,0.4-0.5,0.6-0.7
				c1.2-1.2,2.3-2.4,3.5-3.5c0.1-0.1,0.2-0.3,0.3-0.3c0.2,0,0.6-0.1,0.6,0c0.1,0.2,0.1,0.5,0.1,0.7c0,0.1-0.2,0.2-0.3,0.3
				C224.8,769.9,223.5,771.3,222,772.8z"/>
		</g>
		<g>
			<path class="st2" d="M225.5,760.7c-0.5,0-1,0-1.5,0c-0.3,0-0.6-0.2-0.6-0.5c0-0.4,0.2-0.5,0.6-0.5c1,0,2,0,3,0
				c0.3,0,0.6,0.2,0.6,0.5c0,0.4-0.3,0.5-0.6,0.5C226.5,760.7,226,760.7,225.5,760.7z"/>
		</g>
	</g>
</g>
<g>
	<g>
		<rect x="58.1" y="496.5" width="109.5" height="10"/>
	</g>
	<g>
		<circle cx="74.1" cy="509.9" r="8.4"/>
	</g>
	<g>
		<circle cx="154.9" cy="509.9" r="8.4"/>
	</g>
	<g id="XMLID_3_">
		<g>
			<path d="M173.5,472.4v26.9h-49.2v-45.6h26.8L173.5,472.4z M136.2,474.2h29.2l-16.5-14.7h-12.7V474.2z"/>
		</g>
	</g>
	<g>
		<rect x="68.1" y="442.2" width="43.8" height="58.1"/>
	</g>
	<g>
		<rect x="58.8" y="463.6" width="18.7" height="20.8"/>
	</g>
	<g>
		<path class="st2" d="M75.8,468.2l1.7,6.5c0.4,1.4,0.7,2.7,0.9,4.1h0.1c0.3-1.3,0.7-2.7,1.1-4l2.1-6.5h1.9l2,6.4
			c0.5,1.5,0.8,2.9,1.1,4.2h0.1c0.2-1.3,0.6-2.6,1-4.1l1.8-6.4H92l-4.1,12.7h-2.1l-1.9-6.1c-0.4-1.4-0.8-2.7-1.1-4.2h-0.1
			c-0.3,1.5-0.7,2.8-1.2,4.2l-2.1,6.1h-2.1l-3.8-12.7H75.8z"/>
		<path class="st2" d="M103.1,480.5c-0.6,0.3-1.9,0.7-3.7,0.7c-3.8,0-6.3-2.6-6.3-6.5c0-3.9,2.7-6.8,6.8-6.8c1.4,0,2.6,0.3,3.2,0.7
			l-0.5,1.8c-0.6-0.3-1.4-0.6-2.7-0.6c-2.9,0-4.5,2.2-4.5,4.8c0,2.9,1.9,4.8,4.4,4.8c1.3,0,2.2-0.3,2.8-0.6L103.1,480.5z"/>
	</g>
</g>
<g>
	<g>
		<rect x="67.1" y="105" width="93.7" height="10"/>
	</g>
	<g>
		<circle cx="80.8" cy="117.2" r="7.2"/>
	</g>
	<g>
		<circle cx="149.9" cy="117.2" r="7.2"/>
	</g>
	<g>
		<rect x="73.6" y="70.4" width="69.1" height="36.7"/>
		<path d="M145.2,109.6H71.1V67.9h74.1V109.6z M76.1,104.6h64.1V72.9H76.1V104.6z"/>
	</g>
	<g>
		<rect x="127.7" y="49.1" width="23.6" height="58"/>
		<path d="M153.8,109.6h-28.6v-63h28.6V109.6z M130.2,104.6h18.6v-53h-18.6V104.6z"/>
	</g>
	<g>
		<g>
			<path class="st2" d="M110,93.2c2.3,1.1,4.7,1.6,7.1,1.9c2,0.2,2.6,1,2,2.9c-1.1,3.2-3,5.7-6.1,7.1c-4.3,2-8.9-0.2-10.2-5
				c-0.3-1-0.3-2.1-0.5-3.2C106.4,97.6,108.1,96.8,110,93.2z"/>
		</g>
		<g>
			<path class="st2" d="M100.3,87.2c-2.3,3.7-2.2,5.8,0.4,8.7c-1.9,1.8-3.2,4.1-4.3,6.4c-0.4,0.9-1.2,1.1-2.1,0.7
				c-0.2-0.1-0.3-0.1-0.4-0.2c-3-1.7-5.6-6.9-5-10.3c0.6-4.1,4.3-6.7,8.5-6.1C98.2,86.7,99.2,87,100.3,87.2z"/>
		</g>
		<g>
			<path class="st2" d="M102.4,86c-0.7-2.4-1.9-4.6-3.4-6.6c-0.7-1-0.6-2,0.6-2.5c1.1-0.5,2.4-0.9,3.6-1.1c2-0.3,4.1-0.2,6,0.6
				c4.2,1.7,5.8,5.9,3.9,10.1c-0.7,1.5-1.7,2.7-3.1,3.7C108.7,86.5,106.2,85.1,102.4,86z"/>
		</g>
		<g>
			<path class="st2" d="M108.6,91.5c0,2.3-1.8,4.2-4.2,4.2c-2.4,0-4.2-1.8-4.3-4.2c0-2.4,1.9-4.3,4.2-4.3
				C106.7,87.3,108.6,89.1,108.6,91.5z"/>
		</g>
	</g>
</g>
</svg>
